<svg xmlns="http://www.w3.org/2000/svg" width="171" height="24" fill="none" viewBox="0 0 171 24"><path fill="#0056D2" d="M85.947 7.666c.105-2.019.823-3.664 1.948-4.948V1.002h-1.498c-3.025 0-5.585 1.165-7.076 3.79h-.085v-3.5h-7.758v21.36h7.758v-8.626c0-3.657 1.07-6.452 5.374-6.452q.706.008 1.337.092m58.739-.078c.647-1.884 1.688-3.572 3.046-4.92V1.002h-1.491c-3.025 0-5.585 1.165-7.076 3.79h-.085v-3.5h-7.765v21.36h7.765v-8.626c0-3.657 1.07-6.452 5.374-6.452zm-42.984-.804c-1.195-.622-2.862-1.038-4.185-1.038-.893 0-2.426.374-2.426 1.454 0 1.461 2.426 1.666 3.503 1.878 3.615.706 6.351 2.371 6.351 6.324 0 5.62-5.247 7.956-10.326 7.956-3.116 0-6.175-.876-8.827-2.457l2.813-5.294c1.576 1.087 4.22 2.167 6.141 2.167.985 0 2.434-.459 2.434-1.623 0-1.666-2.434-1.751-4.868-2.38-2.426-.62-4.853-1.785-4.853-5.618 0-5.245 4.853-7.574 9.636-7.574 2.476 0 4.945.374 7.203 1.37zM171 22.652h-7.758v-2.38h-.085c-1.364 2.126-4.058 3.079-6.612 3.079-6.485 0-11.043-5.287-11.043-11.407 0-6.113 4.481-11.365 10.959-11.365 2.511 0 5.163.917 6.781 2.788V1.292H171zm-17.479-10.66c0 2.704 1.836 4.787 4.987 4.787s4.98-2.075 4.98-4.786c0-2.626-1.829-4.828-4.98-4.828s-4.987 2.202-4.987 4.828m-23.43 1.25h-16.333c0 3.078 1.668 4.744 4.861 4.744 1.66 0 2.856-.537 3.707-1.955h7.463c-1.238 5.04-6.141 7.327-11.128 7.327-7.245 0-12.661-4.003-12.661-11.365C106 4.878 110.98.586 118.105.586c7.59 0 11.986 4.581 11.986 11.866zm-7.203-4.376c-.386-2.04-2.307-3.374-4.389-3.374-2.265 0-4.129 1.164-4.607 3.374zM46.803 11.62a13 13 0 0 0-.035-.544v-.007a11.76 11.76 0 0 0-1.934-5.513 12 12 0 0 0-1.688-2.033c-.922-.89-1.99-1.63-3.2-2.21C38.137.439 36.132 0 33.994 0c-.211 0-.43 0-.648.014-1.498.07-2.954.353-4.318.861-1.372.494-2.575 1.15-3.552 1.949q-.297.243-.648.571l-.168.163-.232.247-.106.106-.05.056-.273.29q-.294.336-.577.684l-.007-.007c-.373.445-.725.925-.978 1.348-.176.276-.345.55-.506.833l-2.237 4.54-.12.232-.246.501c-.492.995-1.013 1.99-1.604 2.81-1.308 1.44-2.792 2.145-4.691 2.145q-.2-.001-.408-.014c-1.147-.049-2.131-.317-3.004-.832l-.274-.17a5 5 0 0 1-1.667-1.85 5.1 5.1 0 0 1-.633-2.682v-.07c.063-1.49.626-2.647 1.765-3.643.275-.233.563-.444.873-.62.042-.03.084-.05.126-.071.844-.466 1.808-.692 2.912-.692l.345.007c1.751.063 3.102.614 4.185 1.687L20.637 2.3A13.2 13.2 0 0 0 17.908.918q-.054-.022-.12-.043l-.365-.127a14.3 14.3 0 0 0-3.348-.677c-.028-.007-.064-.007-.092-.015-.176-.014-.358-.035-.534-.042a15 15 0 0 0-.57-.014h-.113c-2.124.007-4.1.445-5.908 1.313a12.04 12.04 0 0 0-4.874 4.235 11.77 11.77 0 0 0-1.97 6.064q-.012.284-.014.557c0 3.057 1.111 5.753 3.32 8.012 2.307 2.372 5.31 3.65 8.912 3.798.232.007.457.014.69.014 2.039 0 3.924-.367 5.612-1.094.422-.184.83-.396 1.252-.628q.337-.202.654-.424l.162-.106.267-.183a10 10 0 0 0 .908-.749l.098-.098q.254-.246.507-.502l.605-.684.232-.29.105-.155.106-.155c.9-1.518 3.833-7.045 3.833-7.045v-.014l.176-.339.148-.261c.429-.79.745-1.348 1.16-1.941l.014-.014c.964-1.405 2.624-2.4 4.58-2.57 3.277-.282 6.147 1.878 6.414 4.828.26 2.951-2.18 5.57-5.458 5.852a6.5 6.5 0 0 1-1.97-.127l-.014.007c-2.405-.501-3.938-2.266-4.691-3.05l-3.151 5.824s.977.989 1.653 1.49c.675.494 1.54.98 2.236 1.284A13.9 13.9 0 0 0 33.896 24c.232 0 .19 0 .43-.007 3.6-.148 6.808-1.532 9.122-3.904 2.195-2.251 3.383-4.82 3.39-7.863v-.092a7 7 0 0 1-.035-.515m12.07 11.753c-1.639 0-3.116-.19-4.452-.572-1.337-.381-2.469-.981-3.411-1.807q-1.416-1.24-2.188-3.155-.769-1.919-.767-4.61V1.285h7.484v11.844q-.002 2.013.957 2.923.958.91 2.434.91 1.506 0 2.454-.847.941-.848.943-2.83v-12h7.484v11.78q.002 2.784-.788 4.73-.791 1.951-2.215 3.19c-.957.827-2.11 1.427-3.461 1.808q-2.026.58-4.474.579"/></svg>