<svg xmlns="http://www.w3.org/2000/svg" width="138" height="40" fill="none" viewBox="0 0 138 40"><path fill="#45535E" d="M0 7.453h4.815v10.694h10.15V7.452h4.814V33.68h-4.815V22.773H4.814V33.68H0zm35.024 17.693a3.99 3.99 0 0 1-3.988 3.987 3.99 3.99 0 0 1-3.988-3.986V13.853h-4.561v11.294c0 4.706 3.84 8.546 8.549 8.546s8.549-3.826 8.549-8.546V13.853h-4.562zm17.298-11.16c-2.268 0-3.841.654-5.375 2.16V7.454h-4.575v16.094c0 6.026 4.361 10.146 9.243 10.146 5.441 0 10.203-4.2 10.203-9.853.013-5.587-4.388-9.853-9.496-9.853m.106 15.467c-3.107 0-5.468-2.587-5.468-5.613s2.374-5.627 5.468-5.627c2.628 0 5.002 2.587 5.002 5.627 0 3.026-2.374 5.613-5.001 5.613m17.085-14.32c0-2.306 1.534-3.026 3.215-3.026 1.347 0 3.134 1.026 4.308 2.266l2.987-3.506c-1.494-2.014-4.521-3.4-7.002-3.4-4.961 0-8.536 2.88-8.536 7.666 0 8.867 10.91 6.054 10.91 11.027 0 1.533-1.494 2.88-3.214 2.88-2.707 0-3.575-1.32-4.815-2.707l-3.32 3.427c2.12 2.586 4.747 3.906 7.881 3.906 4.708 0 8.51-2.92 8.51-7.48-.014-9.84-10.924-6.786-10.924-11.053m22.967-1.4c-4.895 0-9.243 4.12-9.243 10.147V40h4.575v-8.72c1.52 1.493 3.108 2.16 5.375 2.16 5.108 0 9.509-4.267 9.509-9.853-.013-5.667-4.774-9.854-10.216-9.854m.814 15.467c-3.108 0-5.469-2.6-5.469-5.627s2.374-5.626 5.469-5.626c2.627 0 5.001 2.586 5.001 5.626 0 3.027-2.374 5.627-5.001 5.627m43.092.253c-2.694 0-3.467-1.173-3.467-2.96v-7.92h4.201V14.56h-4.201V9.28l-4.628 2.08v16.133c0 4.12 2.84 6.2 6.748 6.2.587 0 1.387-.04 1.827-.146l1.134-4.16c-.52.026-1.107.066-1.614.066"/><path fill="#F8761F" d="M124.302 18.813c-.88-1.506-2.107-2.72-3.654-3.626a9.9 9.9 0 0 0-3.695-1.28v-4.8c1.347-.574 2.187-1.84 2.187-3.32a3.625 3.625 0 0 0-3.627-3.64 3.65 3.65 0 0 0-3.655 3.64c0 1.48.787 2.746 2.134 3.32v4.8c-1.08.16-2.2.493-3.214 1.013-2.094-1.587-8.923-6.787-12.924-9.813.094-.347.174-.694.174-1.067 0-2.227-1.8-4.04-4.041-4.04a4.046 4.046 0 0 0-4.042 4.04 4.046 4.046 0 0 0 4.042 4.04c.76 0 1.467-.227 2.067-.587l.84.64 11.603 8.36c-.613.56-1.187 1.2-1.64 1.92-.92 1.454-1.494 3.067-1.494 4.827v.373c0 1.24.24 2.4.64 3.494.347.96.867 1.826 1.507 2.613l-3.854 3.853a3.09 3.09 0 0 0-3.281.72 3.05 3.05 0 0 0-.907 2.214c0 .84.32 1.613.92 2.2.587.586 1.374.92 2.201.92s1.627-.334 2.214-.92.92-1.374.92-2.2c0-.32-.053-.64-.146-.934l3.974-3.973a11 11 0 0 0 1.774.973c1.254.534 2.627.867 4.134.867h.28a9.8 9.8 0 0 0 4.722-1.187 9.76 9.76 0 0 0 3.694-3.48c.92-1.48 1.441-3.12 1.441-4.92v-.093c-.014-1.813-.427-3.44-1.294-4.947m-4.855 8.347c-1.08 1.2-2.32 1.933-3.721 1.933h-.227c-.8 0-1.587-.226-2.347-.626-.867-.44-1.52-1.08-2.067-1.88-.56-.787-.854-1.64-.854-2.56v-.28c0-.894.174-1.747.6-2.547a5.5 5.5 0 0 1 1.921-2.093 4.73 4.73 0 0 1 2.654-.8h.093c.881 0 1.708.173 2.494.573a5.25 5.25 0 0 1 1.961 1.787c.493.773.787 1.6.88 2.506.014.187.027.387.027.56 0 1.254-.48 2.4-1.414 3.427"/></svg>