<svg xmlns="http://www.w3.org/2000/svg" width="142" height="41" fill="none" viewBox="0 0 142 41"><path fill="#0C1327" d="M125.786 18.967c-.408-1.181-1.325-1.922-2.532-2.243-1.914-.52-3.688-.21-5.293 1.022l-.738.57c-1.565-2.052-4.914-2.633-7.795-.41l-.838-1.051h-2.801V30.13h4.008v-9.08c.179-.12.269-.18.388-.22 2.263-1.152 3.808-.25 3.858 2.282v7.02h4.077V21.01c.319-.17.648-.32.997-.45 1.934-.622 3.071.14 3.24 2.162.03.26.03.53.03.79v6.64h4.008c.029-.12.039-.231.049-.361 0-2.674.04-5.347-.039-8.01-.03-.951-.31-1.903-.619-2.814m-55.491-6.618c0 3.294.01 6.498-.01 9.692 0 .67-.06 1.352-.19 2.012-.229 1.112-.837 2.013-2.003 2.193-.947.14-1.914.14-2.851 0-1.007-.14-1.695-.85-1.934-1.832a10.5 10.5 0 0 1-.34-2.423c-.039-2.884-.009-5.757-.009-8.641v-1.001h-4.237v.91c0 2.674-.01 5.348.01 8.011q0 1.712.18 3.424c.339 2.914 1.934 4.877 4.535 5.497 1.875.44 3.838.47 5.733.09 2.81-.53 4.495-2.212 5.103-4.996.14-.63.22-1.272.23-1.922.04-3.485.04-6.99.05-10.484 0-.17-.03-.34-.05-.54h-4.217zm15.253 4.365c-1.166-.08-2.263-.22-3.36-.18-2.77.1-5.013 1.902-5.781 4.576a9.1 9.1 0 0 0-.01 5.036c.728 2.624 2.612 4.125 5.303 4.316 1.695.12 3.25-.21 4.646-1.222l.738.921h2.492V11.267h-4.028zm-.01 9.602c-1.216.791-2.522.962-3.808.31-1.296-.66-1.515-1.932-1.535-3.233 0-.44.06-.881.19-1.302.528-1.892 2.392-2.713 4.446-1.982.249.08.468.21.707.32zm18.496-2.202c.05-1.482-.14-2.864-.668-4.166-.748-1.892-2.143-3.044-4.147-3.374a9.4 9.4 0 0 0-2.183-.05c-2.612.17-4.636 1.832-5.343 4.345a9.2 9.2 0 0 0 .05 5.287c.598 1.963 1.913 3.244 3.847 3.875 1.416.45 2.881.49 4.337.32 1.086-.13 2.113-.44 2.98-1.191l.529-3.124c-.618.26-1.167.53-1.745.71-1.395.431-2.81.572-4.227.131-1.256-.39-2.003-1.582-1.764-2.773h8.334zM95.6 22.1c.21-1.612 1.167-2.473 2.632-2.493 1.147 0 2.333.8 2.452 2.493zm41.386-5.266-2.891 8.831c-.569-1.642-1.057-3.084-1.546-4.525-.508-1.422-.996-2.854-1.495-4.296h-4.476l5.304 12.836-1.924 4.927h4.057l6.988-17.783h-4.017zm-89.613 5.738c-1.366 1.111-2.622 2.182-3.937 3.174a5 5 0 0 1-1.546.74c-.997.301-1.704-.06-2.083-1.04a5.3 5.3 0 0 1-.359-1.613 845 845 0 0 1-.359-8.71c-.05-1.332-.08-2.674-.18-4.006-.09-1.281-.408-2.533-1.086-3.644-1.236-2.063-4.326-2.243-5.592-.15-.32.54-.658 1.09-.948 1.661-1.694 3.305-3.359 6.629-5.044 9.933-1.983 3.875-4.207 7.63-6.908 11.064a12 12 0 0 1-1.605 1.712c-.957.801-1.974.51-2.412-.66a7 7 0 0 1-.38-1.873c-.139-2.163.13-4.305.619-6.408 1.007-4.296 2.093-8.571 3.12-12.856.518-2.183.977-4.366.598-6.639C18.972 1.495 18.055.394 16.6.083c-1.525-.32-3 .34-3.907 1.812a19 19 0 0 0-.947 1.853C9.822 8.013 7.3 11.908 4.01 15.242 2.783 16.504 1.387 17.595 0 18.797c-.05 1.932 1.167 3.304 3.031 3.394.957.03 1.834-.25 2.662-.7.488-.261.977-.561 1.565-.892-.17.761-.3 1.412-.449 2.063-.648 2.773-1.136 5.577-.927 8.45.16 2.153.668 4.186 1.964 5.958 1.415 1.932 3.34 2.914 5.732 2.934 2.193.01 4.127-.761 5.892-2.033 1.953-1.422 3.489-3.234 4.864-5.186 2.612-3.695 4.606-7.73 6.44-11.845l.578-1.202.14.04c0 .961-.04 1.902 0 2.854.09 2.213.299 4.405 1.176 6.488.947 2.233 2.552 3.695 4.975 3.995 1.236.17 2.492.12 3.708-.13 3.16-.701 5.593-2.463 6.819-5.607.438-1.112.668-2.283.309-3.485-.2-.65-.539-1.151-1.107-1.321" opacity="0.3"/><path fill="#675D55" d="M109.805 21.052v9.083h-4.008V16.856h2.802l.837 1.052c2.881-2.213 6.241-1.632 7.797.41l.738-.57c1.605-1.232 3.38-1.542 5.294-1.022 1.196.32 2.114 1.062 2.532 2.244.309.91.579 1.872.609 2.814.079 2.673.039 5.347.039 8.01-.009.13-.029.251-.049.361h-4.008v-6.629c0-.26 0-.53-.03-.791-.17-2.023-1.306-2.784-3.241-2.163-.349.13-.668.28-.997.45v9.123h-4.078v-7.019c-.049-2.534-1.605-3.436-3.858-2.284-.1.03-.19.1-.379.21"/><path fill="#665C54" d="M70.295 12.351h4.208c.03.21.05.38.05.54-.01 3.486-.01 6.99-.05 10.486-.01.65-.09 1.281-.23 1.922-.608 2.774-2.283 4.467-5.105 4.997a13.5 13.5 0 0 1-5.732-.09c-2.593-.62-4.198-2.583-4.537-5.497a33 33 0 0 1-.18-3.425c-.03-2.674-.01-5.348-.01-8.012v-.91h4.238v1c0 2.885-.03 5.759.01 8.643.01.82.13 1.632.339 2.423.25.971.927 1.682 1.934 1.833a9.7 9.7 0 0 0 2.852 0c1.166-.18 1.765-1.082 2.004-2.193.13-.661.19-1.332.19-2.013.04-3.205.02-6.41.02-9.704m19.293 17.815h-2.493l-.738-.921c-1.395 1.011-2.96 1.332-4.646 1.222-2.702-.19-4.586-1.703-5.304-4.316a9.1 9.1 0 0 1 .01-5.038c.778-2.673 3.011-4.476 5.783-4.576 1.096-.04 2.193.1 3.36.18V11.27h4.028zm-4.038-3.845v-5.879c-.25-.12-.469-.25-.708-.32-2.054-.731-3.908.09-4.447 1.983-.13.41-.19.851-.19 1.302.03 1.302.25 2.563 1.536 3.234 1.286.641 2.592.47 3.809-.32"/><path fill="#675C55" d="M104.052 24.118h-8.336c-.229 1.192.519 2.383 1.765 2.774 1.406.44 2.832.3 4.228-.13.578-.18 1.126-.451 1.744-.711l-.528 3.124c-.868.751-1.894 1.061-2.981 1.192-1.456.17-2.922.13-4.337-.32-1.935-.632-3.25-1.924-3.849-3.876a9.2 9.2 0 0 1-.05-5.288c.708-2.513 2.742-4.176 5.344-4.346a10 10 0 0 1 2.184.05c2.004.32 3.4 1.482 4.148 3.375.528 1.292.717 2.674.668 4.156m-8.435-2.013h5.085c-.12-1.682-1.307-2.494-2.453-2.494-1.466.02-2.423.892-2.632 2.494"/><path fill="#665C55" d="M131.065 16.858c.508 1.442.997 2.864 1.495 4.296.489 1.442.977 2.884 1.546 4.526l2.891-8.832h4.008l-6.989 17.785h-4.058l1.924-4.927-5.304-12.838h4.487z"/><path fill="#EC5250" d="m31.358 19.731-.578 1.202c-1.835 4.116-3.839 8.141-6.44 11.846-1.387 1.963-2.922 3.766-4.866 5.188-1.755 1.272-3.69 2.053-5.893 2.033-2.393-.01-4.317-1.002-5.733-2.934-1.296-1.763-1.804-3.806-1.964-5.959-.21-2.884.28-5.678.927-8.452.16-.65.28-1.302.449-2.063-.578.34-1.077.631-1.565.892-.828.45-1.705.73-2.663.7-1.864-.08-3.08-1.451-3.03-3.384 1.385-1.202 2.771-2.294 4.018-3.555 3.29-3.335 5.812-7.22 7.737-11.496.269-.631.598-1.262.947-1.853C13.62.414 15.097-.247 16.612.083c1.456.31 2.373 1.412 2.672 3.175.389 2.273-.08 4.466-.598 6.64-1.037 4.275-2.114 8.561-3.12 12.857-.49 2.103-.759 4.246-.619 6.41.04.63.17 1.271.379 1.872.439 1.172 1.456 1.462 2.413.66a12 12 0 0 0 1.605-1.712c2.702-3.434 4.915-7.19 6.91-11.065 1.694-3.305 3.36-6.63 5.044-9.934.28-.57.619-1.112.948-1.662 1.266-2.093 4.347-1.903 5.593.16.668 1.111.997 2.363 1.087 3.645.1 1.332.13 2.674.18 4.006.119 2.904.219 5.808.358 8.712.04.54.16 1.091.36 1.612.378.971 1.086 1.332 2.083 1.042a4.8 4.8 0 0 0 1.545-.741c1.316-1.002 2.573-2.063 3.939-3.175.568.17.907.671 1.096 1.312.36 1.202.13 2.373-.309 3.485-1.226 3.134-3.659 4.907-6.82 5.608-1.216.25-2.462.3-3.708.13-2.413-.3-4.029-1.762-4.976-3.996-.877-2.073-1.086-4.266-1.176-6.489-.04-.951 0-1.893 0-2.854z"/></svg>