<svg xmlns="http://www.w3.org/2000/svg" width="155" height="38" fill="none" viewBox="0 0 155 38"><path fill="#000" d="M40.475 13.467h15.579v2.917h-6.138v16.43h-3.358v-16.43h-6.105zm14.911 5.342h2.88v2.705h.056c.1-.391.278-.749.534-1.107a4.6 4.6 0 0 1 .945-.983c.356-.313.767-.537 1.234-.727.434-.178.9-.279 1.357-.279.355 0 .611.022.745.022.133.023.278.056.411.056v2.962c-.2-.056-.434-.078-.667-.1s-.434-.056-.667-.056c-.512 0-1.001.1-1.468.313-.467.2-.845.514-1.2.905a5 5 0 0 0-.824 1.497c-.2.593-.311 1.286-.311 2.068v6.661h-3.08zM77.67 32.813h-3.025v-1.956h-.055c-.39.727-.946 1.263-1.69 1.7-.746.435-1.513.648-2.28.648-1.824 0-3.158-.436-3.98-1.364-.824-.905-1.235-2.291-1.235-4.124V18.82h3.08v8.595c0 1.24.234 2.113.723 2.604.467.514 1.134.771 1.979.771.645 0 1.179-.1 1.612-.312.434-.202.8-.47 1.057-.805.278-.335.467-.75.589-1.207.134-.47.178-.984.178-1.52V18.82h3.08v14.005zm5.237-4.493c.1.906.434 1.52 1.023 1.912.59.357 1.312.536 2.135.536.278 0 .611-.022.978-.078.356-.056.723-.134 1.023-.257a1.9 1.9 0 0 0 .8-.57 1.26 1.26 0 0 0 .279-.95c-.022-.391-.156-.727-.434-.984s-.611-.436-1.023-.614c-.411-.157-.9-.28-1.434-.392s-1.079-.234-1.646-.357a16 16 0 0 1-1.668-.47c-.534-.178-1-.413-1.434-.748-.412-.313-.767-.694-1-1.185-.257-.492-.39-1.062-.39-1.777 0-.771.178-1.397.567-1.912.356-.514.845-.927 1.412-1.24a6.4 6.4 0 0 1 1.902-.67c.689-.135 1.356-.18 1.979-.18.723 0 1.412.079 2.057.235.645.157 1.256.391 1.768.749.534.335.978.805 1.312 1.341.356.537.567 1.207.667 1.99h-3.213c-.156-.75-.49-1.241-1.001-1.498-.534-.257-1.134-.391-1.824-.391-.2 0-.489.022-.767.056-.311.056-.567.1-.845.2-.256.101-.49.258-.667.437-.178.178-.278.436-.278.749 0 .39.133.67.389.905s.59.413 1.023.592c.411.157.9.28 1.434.391.534.101 1.101.235 1.668.358.567.134 1.101.28 1.646.47s1.023.413 1.434.748a3.65 3.65 0 0 1 1.023 1.163c.256.47.39 1.061.39 1.732 0 .827-.178 1.52-.568 2.112-.389.57-.867 1.062-1.467 1.42-.59.357-1.279.614-2.002.804-.745.157-1.468.258-2.18.258-.866 0-1.69-.101-2.434-.313-.745-.213-1.412-.515-1.946-.906-.534-.413-.979-.905-1.279-1.52-.311-.592-.49-1.319-.511-2.168h3.102zm10.13-9.51h2.335v-4.237h3.08v4.203h2.768v2.29h-2.768v7.478c0 .335.022.592.055.85.023.234.1.435.178.592.1.156.256.28.434.357.2.079.467.134.823.134.2 0 .433 0 .645-.022.211-.022.433-.056.645-.1v2.403a10 10 0 0 1-1.001.1c-.334.056-.645.056-1 .056-.824 0-1.469-.078-1.947-.235a2.9 2.9 0 0 1-1.156-.67 2.44 2.44 0 0 1-.567-1.107c-.1-.436-.156-.983-.178-1.542V21.1h-2.335v-2.347zm10.341 0h2.902v1.91h.055c.434-.827 1.023-1.397 1.802-1.754a5.9 5.9 0 0 1 2.513-.537c1.1 0 2.057.179 2.88.593.822.39 1.49.905 2.023 1.598.534.67.945 1.475 1.201 2.37.256.905.412 1.877.412 2.894 0 .95-.134 1.855-.356 2.738-.256.872-.612 1.677-1.101 2.347a5.5 5.5 0 0 1-1.868 1.62c-.767.414-1.646.616-2.669.616-.433 0-.9-.056-1.334-.135a5.3 5.3 0 0 1-1.279-.39 4.7 4.7 0 0 1-1.134-.694 3.6 3.6 0 0 1-.867-.983h-.056v6.996h-3.091V18.81zm10.763 7.018a6.4 6.4 0 0 0-.256-1.833 4.8 4.8 0 0 0-.745-1.576 4 4 0 0 0-1.2-1.106c-.49-.28-1.057-.414-1.668-.414-1.279 0-2.258.436-2.925 1.341-.645.906-.978 2.113-.978 3.61 0 .727.078 1.364.255 1.956.178.593.412 1.107.768 1.543a3.7 3.7 0 0 0 1.234 1.028c.489.257 1.023.391 1.668.391.723 0 1.279-.156 1.768-.436s.867-.67 1.201-1.106c.311-.47.533-.984.667-1.576a8.5 8.5 0 0 0 .211-1.822m5.415-12.361h3.08v2.917h-3.08zm0 5.342h3.08v14.004h-3.08zm5.827-5.342h3.08v19.346h-3.08zm12.465 19.738c-1.101 0-2.102-.18-2.98-.57-.868-.392-1.59-.872-2.213-1.52a6.55 6.55 0 0 1-1.357-2.347 9.2 9.2 0 0 1-.489-2.962c0-1.05.156-2.034.489-2.94a6.9 6.9 0 0 1 1.357-2.347 6 6 0 0 1 2.213-1.52 7.8 7.8 0 0 1 2.98-.57c1.1 0 2.101.179 2.98.57.867.358 1.59.872 2.212 1.52a6.5 6.5 0 0 1 1.357 2.347c.311.906.489 1.878.489 2.94 0 1.084-.155 2.067-.489 2.961-.334.895-.767 1.677-1.357 2.348a6 6 0 0 1-2.212 1.52 7.7 7.7 0 0 1-2.98.57m0-2.46c.667 0 1.278-.156 1.768-.435.511-.28.9-.67 1.234-1.14s.567-1.006.723-1.576a7 7 0 0 0 0-3.588 4.8 4.8 0 0 0-.723-1.576 3.8 3.8 0 0 0-1.234-1.106 3.64 3.64 0 0 0-1.768-.436c-.668 0-1.279.156-1.768.436-.512.28-.901.67-1.235 1.106a4.7 4.7 0 0 0-.722 1.576 7 7 0 0 0-.234 1.777c0 .615.078 1.207.234 1.81a4.7 4.7 0 0 0 .722 1.577q.5.705 1.235 1.14c.511.313 1.1.436 1.768.436m7.961-11.936h2.335v-4.236h3.08v4.203h2.769v2.29h-2.769v7.478c0 .335.022.592.056.85.022.234.1.435.178.592.1.156.255.28.433.357.201.079.467.134.823.134.2 0 .434 0 .645-.022.2-.022.434-.056.645-.1v2.403a10 10 0 0 1-1.001.1c-.333.056-.645.056-1 .056-.823 0-1.468-.078-1.946-.235a3 3 0 0 1-1.157-.67 2.44 2.44 0 0 1-.567-1.107c-.1-.436-.155-.983-.178-1.542V21.1h-2.335v-2.347.056z"/><path fill="#00B67A" d="M36.883 13.468H22.795L18.458 0 14.1 13.468 0 13.445l11.397 8.338-4.37 13.457 11.398-8.338 11.397 8.338-4.336-13.468z"/><path fill="#005128" d="m26.467 24.823-.979-3.04-7.027 5.13z"/></svg>