<svg xmlns="http://www.w3.org/2000/svg" width="139" height="40" fill="none" viewBox="0 0 139 40"><path fill="#164C82" fill-rule="evenodd" d="M47.616 18.45V1.5h6.159c1.305 0 2.142.28 2.89.56 1.684.84 2.431 2.44 2.431 3.84 0 1.59-.658 2.72-1.963 3.56 1.963.47 3.08 1.78 3.08 3.84 0 2.34-1.406 4.03-3.738 4.78-.837.28-1.774.37-3.169.37zM55.17 4.4c-.469-.19-.937-.28-1.585-.28h-3.169v4.4h2.99c.837 0 1.405-.09 1.863-.37a2.02 2.02 0 0 0 1.027-1.78c0-.84-.469-1.59-1.126-1.97m.847 7.03c-.369-.19-.937-.28-1.864-.28h-3.737v4.68h3.458c1.116 0 1.684-.19 2.143-.37.837-.37 1.216-1.12 1.216-2.06s-.38-1.6-1.216-1.97m20.997 7.02V1.5h2.89v16.96h-2.89zm21.008 0V1.5h2.89v16.96h-2.89zM110.16 1.4c1.863 0 3.737.47 4.763.94l-.089 2.81c-1.495-.75-2.89-1.22-4.664-1.22-1.585 0-2.99.47-2.99 1.78 0 3.47 8.68 2.06 8.68 7.77 0 3.18-2.611 5.15-6.537 5.15-2.611 0-4.385-.75-5.701-1.5l1.216-2.34c1.027.66 2.711 1.31 4.574 1.31 1.774 0 3.359-.66 3.359-2.15 0-3.65-8.591-2.06-8.591-7.78 0-3.08 2.432-4.77 5.98-4.77m19.323 17.05v-7.31h-8.122v7.31h-2.89V1.5h2.89v6.93h8.122V1.5h2.89v16.96h-2.89zm-75.52 2.91c1.775 0 3.17.37 4.665 1.03l-.837 2.44c-.837-.38-1.964-.84-3.548-.84-3.17 0-5.132 2.72-5.132 6 0 3.37 1.863 6.09 5.132 6.09 1.584 0 2.71-.47 3.548-.84l.837 2.43c-1.495.66-2.89 1.03-4.664 1.03-5.043 0-7.933-3.56-7.933-8.62-.01-4.79 2.89-8.72 7.933-8.72m63.103 0c1.864 0 3.269.37 4.664 1.03l-.837 2.44c-.837-.38-1.963-.84-3.548-.84-3.179 0-5.132 2.72-5.132 6 0 3.37 1.863 6.09 5.132 6.09 1.585 0 2.711-.47 3.548-.84l.837 2.43c-1.395.66-2.8 1.03-4.664 1.03-5.043 0-7.933-3.56-7.933-8.62 0-4.79 2.89-8.72 7.933-8.72m-42.005 8.62c0 5.06-3.169 8.71-7.933 8.71s-7.932-3.56-7.932-8.62 3.179-8.71 7.932-8.71c4.854 0 7.933 3.56 7.933 8.62m-2.99 0c0-3.65-2.142-6-4.943-6s-4.943 2.34-4.943 6.09c0 3.65 2.143 6 4.943 6 2.79-.01 4.943-2.35 4.943-6.09m4.943 2.06V21.55h2.89v10.59c0 2.9 1.495 3.93 3.917 3.93s3.916-1.03 3.916-3.93V21.55h2.89v10.49c0 4.59-2.61 6.65-6.816 6.65-4.176 0-6.797-2.06-6.797-6.65m19.045-5.9h-.09c.09.56.09 1.5.09 2.25v10.02h-2.89V21.55h3.178l7.744 11.52h.089c-.089-.56-.089-1.5-.089-2.25v-9.27h2.89v16.86h-2.521zm27.913 12.27V21.55h2.89v16.86zm5.511 0V21.55h2.89v14.24H139v2.62zM95.779 1.59H82.157v2.62h5.412v14.24h2.89V4.22h5.322zM71.883 18.45c-2.432-5.15-3.08-6.56-4.106-6.56h-2.71v6.56h-2.89V1.59h5.69c4.385 0 5.98 2.25 5.98 4.78 0 2.34-1.217 3.84-3.08 4.4.747.47 1.584 2.06 4.385 7.68zM68.055 4.12h-2.99v5.15h2.89c2.053 0 2.99-1.03 2.99-2.62 0-1.4-.837-2.53-2.89-2.53" clip-rule="evenodd"/><path fill="#00A0E2" fill-rule="evenodd" d="M19.323 9.65c0 5.34-4.385 9.65-9.706 9.65C4.385 19.3 0 14.99 0 9.65S4.385 0 9.617 0c5.321 0 9.706 4.31 9.706 9.65m20.54 0c.01 5.32-4.286 9.64-9.587 9.65h-.03c-5.322 0-9.617-4.31-9.617-9.65S24.924 0 30.246 0c5.301-.01 9.606 4.3 9.616 9.62zm-20.54 20.7c0 5.34-4.385 9.65-9.706 9.65C4.385 40 0 35.69 0 30.35s4.385-9.65 9.617-9.65c5.321 0 9.706 4.31 9.706 9.65m20.54 0c.01 5.32-4.286 9.64-9.587 9.65h-.03c-5.302.01-9.607-4.3-9.617-9.62v-.03c-.01-5.32 4.285-9.64 9.587-9.65h.03c5.301-.01 9.606 4.3 9.616 9.62z" clip-rule="evenodd"/></svg>