<svg xmlns="http://www.w3.org/2000/svg" width="138" height="40" fill="none" viewBox="0 0 138 40"><g fill="#fff" opacity="0.5"><path d="M35.021 25.147a3.99 3.99 0 0 1-3.988 3.987 3.99 3.99 0 0 1-3.987-3.987V13.854h-4.562v11.293c0 4.707 3.841 8.547 8.55 8.547 4.707 0 8.548-3.827 8.548-8.547V13.854h-4.56zm-20.057-7.001H4.814V7.453H0v26.24h4.815v-10.92h10.15v10.92h4.814V7.453h-4.815zm37.36-4.16c-2.267 0-3.84.654-5.374 2.16V7.453h-4.575v16.093c0 6.027 4.361 10.147 9.243 10.147 5.441 0 10.202-4.2 10.202-9.853.014-5.587-4.388-9.854-9.496-9.854m.107 15.467c-3.107 0-5.468-2.587-5.468-5.613s2.374-5.627 5.468-5.627c2.628 0 5.002 2.587 5.002 5.627 0 3.026-2.374 5.613-5.002 5.613m83.954 0c-2.694 0-3.468-1.174-3.468-2.96v-7.92h4.201v-4.014h-4.201V9.28l-4.628 2.08v16.134c0 4.12 2.841 6.2 6.749 6.2.586 0 1.387-.04 1.827-.147l1.133-4.16c-.52.027-1.107.067-1.613.067m-66.87-14.321c0-2.306 1.534-3.026 3.214-3.026 1.347 0 3.135 1.027 4.308 2.266l2.988-3.506c-1.494-2.014-4.522-3.4-7.002-3.4-4.962 0-8.536 2.88-8.536 7.666 0 8.867 10.91 6.054 10.91 11.027 0 1.533-1.494 2.88-3.215 2.88-2.707 0-3.574-1.32-4.814-2.707l-3.321 3.427c2.12 2.587 4.748 3.907 7.882 3.907 4.708 0 8.51-2.92 8.51-7.48-.014-9.84-10.924-6.787-10.924-11.054m33.165 8.439c0-5.653-4.762-9.853-10.203-9.853-4.895 0-9.243 4.12-9.243 10.146V40h4.575v-8.72c1.52 1.493 3.108 2.16 5.375 2.16 5.108-.014 9.496-4.28 9.496-9.867M93.29 29.2c-3.107 0-5.468-2.6-5.468-5.627s2.374-5.627 5.468-5.627c2.628 0 5.002 2.587 5.002 5.627 0 3.027-2.374 5.627-5.002 5.627"/><path d="M120.647 15.187a9.9 9.9 0 0 0-3.694-1.28v-4.8c1.347-.574 2.187-1.84 2.187-3.32a3.626 3.626 0 0 0-3.628-3.64 3.65 3.65 0 0 0-3.654 3.64c0 1.48.787 2.746 2.134 3.32v4.8c-1.08.16-2.201.493-3.214 1.013-2.094-1.587-8.923-6.787-12.924-9.813.094-.347.174-.694.174-1.067A4.04 4.04 0 0 0 93.986 0a4.04 4.04 0 0 0-4.04 4.04 4.046 4.046 0 0 0 4.04 4.04c.76 0 1.468-.227 2.068-.587l.84.64 11.603 8.36c-.613.56-1.187 1.2-1.64 1.92-.921 1.454-1.494 3.067-1.494 4.827v.373c0 1.24.24 2.4.64 3.494.347.96.867 1.826 1.507 2.613l-3.854 3.853a3.09 3.09 0 0 0-3.281.72 3.05 3.05 0 0 0-.907 2.214c0 .84.32 1.613.92 2.2.587.586 1.374.92 2.201.92s1.627-.334 2.214-.92.92-1.374.92-2.2c0-.32-.053-.64-.147-.934l3.975-3.973a11 11 0 0 0 1.774.973c1.253.534 2.627.867 4.134.867h.28a9.8 9.8 0 0 0 4.721-1.187c1.561-.853 2.775-2 3.695-3.48s1.44-3.12 1.44-4.92v-.093c0-1.773-.413-3.413-1.267-4.907-.893-1.546-2.134-2.76-3.681-3.666m-1.2 11.973c-1.081 1.2-2.321 1.933-3.721 1.933h-.227c-.8 0-1.587-.226-2.347-.626-.867-.44-1.521-1.08-2.068-1.88-.56-.787-.853-1.64-.853-2.56v-.28c0-.894.173-1.747.6-2.547a5.5 5.5 0 0 1 1.921-2.093 4.73 4.73 0 0 1 2.654-.8h.093c.88 0 1.707.173 2.494.573a5.26 5.26 0 0 1 1.961 1.787c.493.773.786 1.6.88 2.506.013.187.027.387.027.56 0 1.254-.481 2.4-1.414 3.427"/></g></svg>