<svg xmlns="http://www.w3.org/2000/svg" width="141" height="41" fill="none" viewBox="0 0 141 41"><path fill="#fff" d="M125.786 18.967c-.408-1.181-1.325-1.922-2.532-2.243-1.914-.52-3.688-.21-5.293 1.022l-.738.57c-1.565-2.052-4.914-2.633-7.795-.41l-.838-1.051h-2.801V30.13h4.008v-9.08c.179-.12.269-.18.388-.22 2.263-1.152 3.808-.25 3.858 2.283v7.018h4.077V21.01c.319-.17.648-.32.997-.45 1.934-.622 3.071.14 3.24 2.162.03.26.03.53.03.791v6.638h4.008c.029-.12.039-.23.049-.36 0-2.673.04-5.347-.039-8.01-.03-.951-.31-1.903-.619-2.814M70.295 12.35c0 3.294.01 6.498-.01 9.692 0 .671-.06 1.352-.19 2.013-.229 1.111-.837 2.012-2.003 2.192-.947.14-1.914.14-2.851 0-1.007-.14-1.695-.85-1.934-1.832a10.5 10.5 0 0 1-.34-2.423c-.039-2.884-.009-5.757-.009-8.64V12.35h-4.237v.911c0 2.673-.01 5.347.01 8.01q0 1.713.18 3.424c.339 2.914 1.934 4.877 4.535 5.497 1.875.441 3.838.471 5.733.09 2.81-.53 4.495-2.212 5.103-4.996.14-.63.22-1.271.23-1.922.04-3.485.04-6.989.05-10.484 0-.17-.03-.34-.05-.54h-4.217zm15.253 4.365c-1.166-.08-2.263-.22-3.36-.18-2.77.1-5.013 1.902-5.781 4.575a9.1 9.1 0 0 0-.01 5.037c.728 2.623 2.612 4.125 5.303 4.315 1.695.12 3.25-.21 4.646-1.222l.738.922h2.492V11.268h-4.028zm-.01 9.602c-1.216.79-2.522.96-3.808.31-1.296-.66-1.515-1.932-1.535-3.234 0-.44.06-.881.19-1.302.528-1.892 2.392-2.713 4.446-1.982.249.08.468.21.707.32zm18.496-2.203c.05-1.482-.14-2.864-.668-4.166-.748-1.892-2.143-3.044-4.147-3.374a9.4 9.4 0 0 0-2.183-.05c-2.612.17-4.636 1.832-5.343 4.345a9.2 9.2 0 0 0 .05 5.287c.598 1.963 1.913 3.244 3.847 3.875 1.416.45 2.881.49 4.337.32 1.086-.13 2.113-.44 2.98-1.191l.529-3.124c-.618.26-1.167.53-1.745.71-1.395.431-2.81.572-4.227.131-1.256-.39-2.003-1.582-1.764-2.773h8.334zM95.6 22.1c.21-1.612 1.167-2.473 2.632-2.493 1.147 0 2.333.8 2.452 2.493zm41.386-5.266-2.891 8.831c-.569-1.642-1.057-3.084-1.546-4.525-.508-1.422-.996-2.854-1.495-4.296h-4.476l5.304 12.836-1.924 4.927h4.057l6.988-17.783h-4.017zm-89.613 5.738c-1.366 1.111-2.622 2.182-3.937 3.174-.47.34-.997.58-1.546.74-.997.301-1.704-.06-2.083-1.04a5.3 5.3 0 0 1-.359-1.613 845 845 0 0 1-.359-8.71c-.05-1.332-.08-2.674-.18-4.006-.09-1.281-.408-2.533-1.086-3.644-1.236-2.063-4.326-2.243-5.592-.15-.32.54-.658 1.09-.948 1.661-1.694 3.305-3.359 6.629-5.044 9.933-1.983 3.875-4.207 7.63-6.908 11.064a12 12 0 0 1-1.605 1.712c-.957.801-1.974.51-2.412-.66a7 7 0 0 1-.38-1.873c-.139-2.163.13-4.305.619-6.408 1.007-4.296 2.093-8.571 3.12-12.856.518-2.183.977-4.366.598-6.639C18.972 1.495 18.055.394 16.6.083c-1.525-.32-3 .34-3.907 1.812a19 19 0 0 0-.947 1.853C9.822 8.013 7.3 11.908 4.01 15.242 2.783 16.504 1.387 17.595 0 18.797c-.05 1.932 1.167 3.304 3.031 3.394.957.03 1.834-.25 2.662-.7.488-.261.977-.561 1.565-.892-.17.761-.3 1.412-.449 2.063-.648 2.773-1.136 5.577-.927 8.45.16 2.153.668 4.186 1.964 5.958 1.415 1.932 3.34 2.914 5.732 2.934 2.193.01 4.127-.761 5.892-2.033 1.953-1.422 3.489-3.234 4.864-5.186 2.612-3.695 4.606-7.73 6.44-11.845l.578-1.202.14.04c0 .961-.04 1.902 0 2.854.09 2.213.299 4.405 1.176 6.488.947 2.233 2.552 3.695 4.975 3.995 1.236.17 2.492.12 3.708-.13 3.16-.701 5.593-2.463 6.819-5.607.438-1.112.668-2.283.309-3.485-.2-.65-.539-1.151-1.107-1.321" opacity="0.5"/></svg>