<svg xmlns="http://www.w3.org/2000/svg" width="154" height="38" fill="none" viewBox="0 0 154 38"><path fill="#fff" d="M62.397 18.418c-.467 0-.923.1-1.356.28a4.1 4.1 0 0 0-1.235.726c-.389.28-.69.615-.945.983a3.4 3.4 0 0 0-.534 1.107h-.055v-2.705h-2.88l-.056 13.926h3.08v-6.661c0-.771.1-1.475.312-2.068.2-.592.489-1.084.822-1.497a3.75 3.75 0 0 1 1.201-.906 3.6 3.6 0 0 1 1.468-.313c.234 0 .434.023.667.056.234.023.467.056.668.1v-2.961c-.134 0-.278-.022-.412-.056-.122.011-.378-.011-.745-.011m36.058-3.844h-3.08v4.236h-2.336v2.291h2.335v8.26c.023.57.078 1.106.178 1.542s.278.805.567 1.107c.278.279.668.514 1.157.67.49.157 1.134.235 1.946.235.356 0 .667 0 1.001-.056q.5-.033 1-.1v-2.404c-.2.056-.433.079-.645.101-.2.022-.433.022-.645.022-.355 0-.611-.056-.822-.134a1 1 0 0 1-.434-.357 1.7 1.7 0 0 1-.178-.593c-.022-.257-.056-.514-.056-.85v-7.476h2.769v-2.291h-2.769v-4.203zM74.617 26.936c0 .536-.056 1.062-.178 1.52-.133.47-.311.872-.59 1.207-.255.335-.61.592-1.056.805-.433.2-.978.313-1.612.313-.845 0-1.512-.258-1.98-.772-.489-.491-.722-1.363-.722-2.604v-8.594h-3.08v8.896c0 1.833.41 3.23 1.234 4.124.823.928 2.157 1.364 3.98 1.364a4.37 4.37 0 0 0 2.28-.649c.745-.447 1.313-.983 1.69-1.698h.056v1.956h3.047V18.81h-3.069zM56.055 13.469h-15.58l-.022 2.917h6.105v16.43h3.358v-16.43h6.139zm34.708 12.248c-.411-.336-.9-.57-1.434-.75a19 19 0 0 0-1.646-.469 38 38 0 0 0-1.668-.357 8.6 8.6 0 0 1-1.434-.391c-.434-.18-.768-.358-1.023-.593a1.15 1.15 0 0 1-.39-.905c0-.313.1-.57.278-.749s.412-.335.668-.436c.278-.1.533-.156.845-.201.278-.022.567-.056.767-.056.69 0 1.279.134 1.824.391.511.257.845.75 1 1.498h3.214c-.1-.771-.311-1.442-.667-1.99a4.1 4.1 0 0 0-1.312-1.34c-.512-.358-1.134-.593-1.768-.75a8.7 8.7 0 0 0-2.057-.234c-.612 0-1.28.056-1.98.179a6.5 6.5 0 0 0-1.901.67c-.567.313-1.057.727-1.413 1.24-.389.515-.567 1.14-.567 1.912 0 .726.134 1.285.39 1.777.233.492.589.872 1 1.185.434.335.901.57 1.435.749.533.178 1.1.335 1.668.469s1.1.257 1.645.358 1.024.234 1.435.39c.411.18.745.358 1.023.616.278.256.412.592.434.983s-.078.693-.278.95-.467.436-.8.57c-.312.134-.668.201-1.024.257s-.69.078-.978.078q-1.234 0-2.136-.536c-.589-.391-.923-1.006-1.023-1.911h-.022v-.023h-3.102c.022.85.2 1.576.511 2.169a4.45 4.45 0 0 0 1.279 1.52c.534.39 1.2.692 1.946.905a9.4 9.4 0 0 0 2.435.313c.723 0 1.435-.1 2.18-.257.723-.18 1.412-.436 2.001-.805a4.8 4.8 0 0 0 1.468-1.42c.39-.592.567-1.285.567-2.112 0-.67-.133-1.263-.389-1.732a3.46 3.46 0 0 0-1-1.163m52.285-5.208a6.2 6.2 0 0 0-2.213-1.52c-.867-.391-1.879-.57-2.98-.57s-2.102.201-2.98.57a6.1 6.1 0 0 0-2.202 1.52 6.75 6.75 0 0 0-1.357 2.347c-.333.905-.489 1.878-.489 2.94 0 1.061.178 2.067.489 2.961.312.894.768 1.699 1.357 2.347.612.648 1.334 1.14 2.202 1.52.867.391 1.868.57 2.98.57 1.134 0 2.102-.2 2.98-.57a6.2 6.2 0 0 0 2.213-1.52c.589-.67 1.023-1.442 1.357-2.347.333-.905.489-1.877.489-2.962a9 9 0 0 0-.489-2.939c-.312-.905-.768-1.699-1.357-2.347m-1.468 7.097a4.9 4.9 0 0 1-.723 1.576c-.333.47-.722.85-1.234 1.14-.489.28-1.101.436-1.768.436s-1.257-.134-1.768-.436a3.9 3.9 0 0 1-1.234-1.14 4.7 4.7 0 0 1-.723-1.576 7 7 0 0 1 0-3.588 4.7 4.7 0 0 1 .723-1.575c.333-.436.722-.828 1.234-1.107.489-.28 1.101-.436 1.768-.436s1.257.157 1.768.436q.734.42 1.234 1.107c.334.469.568.983.723 1.575q.234.89.234 1.777c0 .626-.078 1.219-.234 1.811m-13.11-14.136h-3.08v19.346h3.08zm24.892 16.998c-.2.023-.434.023-.645.023-.356 0-.612-.056-.823-.135a1 1 0 0 1-.433-.357 1.7 1.7 0 0 1-.178-.593c-.023-.257-.056-.514-.056-.849v-7.477h2.769v-2.302h-2.769v-4.203h-3.08v4.236h-2.336v2.291h2.336v8.26c.022.57.078 1.106.178 1.542s.278.805.567 1.107c.278.279.667.514 1.156.67.49.157 1.135.235 1.946.235.356 0 .667 0 1.001-.056q.5-.033 1.001-.1v-2.404c-.2.056-.434.09-.634.112m-30.72-11.657h-3.081v14.005h3.081zm0-5.343h-3.081v2.917h3.081zm-7.086 7.142c-.534-.693-1.201-1.208-2.024-1.599-.823-.413-1.768-.592-2.88-.592-.923 0-1.746.179-2.513.536s-1.357.928-1.801 1.755h-.056v-1.911h-2.869v19.201h3.08v-6.996h.056c.233.357.511.693.867.983.334.28.723.514 1.135.693a5.8 5.8 0 0 0 1.278.391c.434.079.901.134 1.335.134 1.023 0 1.901-.2 2.669-.614a5.5 5.5 0 0 0 1.879-1.62c.489-.671.845-1.476 1.101-2.348a10.5 10.5 0 0 0-.056-5.633 6.8 6.8 0 0 0-1.201-2.38m-1.623 7.04a4.7 4.7 0 0 1-.668 1.577c-.333.436-.722.827-1.201 1.106-.478.28-1.056.436-1.768.436-.645 0-1.178-.134-1.668-.391a3.7 3.7 0 0 1-1.234-1.028c-.356-.436-.589-.95-.767-1.543-.178-.592-.256-1.24-.256-1.956 0-1.497.334-2.704.979-3.61.667-.905 1.645-1.34 2.924-1.34.612 0 1.179.133 1.668.413q.701.42 1.201 1.106c.334.47.59.984.745 1.576.178.592.256 1.207.256 1.833a8.5 8.5 0 0 1-.211 1.822M22.796 13.468 18.46 0l-4.37 13.468L0 13.445l11.398 8.327-4.37 13.467 11.398-8.337 11.398 8.337-4.337-13.467 11.398-8.304z" opacity="0.5"/></svg>