<svg xmlns="http://www.w3.org/2000/svg" width="139" height="40" fill="none" viewBox="0 0 139 40"><path fill="#fff" d="M54.242 23.98c1.585 0 2.71.47 3.548.84l.837-2.44c-1.495-.66-2.89-1.03-4.664-1.03-5.042 0-7.932 3.93-7.932 8.71 0 5.06 2.89 8.62 7.932 8.62 1.774 0 3.17-.38 4.664-1.03l-.837-2.43c-.837.37-1.963.84-3.548.84-3.268 0-5.132-2.72-5.132-6.09-.01-3.27 1.953-5.99 5.132-5.99m33.318-5.53h2.89V4.22h5.32V1.59H82.148v2.63h5.411zm21.847-2.34c-1.864 0-3.548-.66-4.574-1.31l-1.216 2.34c1.306.75 3.079 1.5 5.7 1.5 3.916 0 6.537-1.97 6.537-5.15 0-5.71-8.679-4.31-8.679-7.77 0-1.31 1.395-1.78 2.989-1.78 1.774 0 3.169.47 4.664 1.22l.089-2.81c-1.026-.47-2.899-.94-4.763-.94-3.547 0-5.979 1.69-5.969 4.78 0 5.71 8.59 4.12 8.59 7.78-.01 1.49-1.594 2.14-3.368 2.14m11.944-4.96h8.121v7.3h2.89V1.5h-2.89v6.93h-8.121V1.5h-2.89v16.95h2.89zM79.898 1.5h-2.89v16.96h2.89zm21.007 0h-2.89v16.96h2.89zM87.753 32.13c0 2.9-1.494 3.93-3.916 3.93-2.431 0-3.916-1.03-3.916-3.93V21.55h-2.89v10.49c0 4.59 2.611 6.65 6.816 6.65 4.195 0 6.816-2.06 6.816-6.65V21.55h-2.89v10.58zm16.325-1.31c0 .75 0 1.69.089 2.25h-.089l-7.743-11.52h-3.179v16.86h2.89V28.38c0-.75 0-1.69-.09-2.25h.09l8.4 12.27h2.522V21.55h-2.89zm13.258-6.84c1.584 0 2.71.47 3.548.84l.837-2.44c-1.395-.66-2.801-1.03-4.664-1.03-5.042 0-7.932 3.93-7.932 8.71 0 5.06 2.89 8.62 7.932 8.62 1.863 0 3.269-.38 4.664-1.03l-.837-2.43c-.838.37-1.964.84-3.548.84-3.268 0-5.132-2.72-5.132-6.09 0-3.27 1.963-5.99 5.132-5.99m9.515-2.43h-2.89v16.86h2.89zm5.515 14.23V21.55h-2.889v16.86h9.526v-2.63zM70.762 10.77c1.863-.56 3.079-2.06 3.079-4.4 0-2.53-1.585-4.78-5.98-4.78h-5.69v16.86h2.89V11.9h2.711c1.026 0 1.684 1.4 4.106 6.56h3.268c-2.8-5.63-3.637-7.22-4.384-7.69m-2.8-1.5h-2.89V4.12h2.99c2.052 0 2.889 1.12 2.889 2.53-.01 1.59-.937 2.62-2.99 2.62m-10.829.19c1.305-.84 1.963-1.97 1.963-3.56 0-1.4-.748-3-2.422-3.84-.747-.28-1.584-.56-2.89-.56h-6.158v16.96h5.69c1.405 0 2.332-.09 3.169-.37 2.332-.75 3.737-2.44 3.737-4.78-.01-2.07-1.126-3.38-3.09-3.85m-6.717-5.34h3.169c.658 0 1.116.09 1.584.28.658.37 1.117 1.12 1.117 1.97.01.74-.39 1.42-1.027 1.78-.468.28-1.026.37-1.863.37h-2.99v-4.4zm5.6 11.34c-.468.19-1.026.37-2.142.37h-3.458v-4.68h3.737c.937 0 1.495.09 1.863.28.837.38 1.216 1.03 1.216 1.97s-.379 1.68-1.216 2.06m11.098 5.9c-4.763 0-7.932 3.65-7.932 8.71s3.178 8.62 7.932 8.62c4.753 0 7.932-3.65 7.932-8.71.01-5.06-3.07-8.62-7.932-8.62m0 14.71c-2.8 0-4.943-2.34-4.943-6 0-3.75 2.143-6.09 4.943-6.09s4.942 2.34 4.942 6c.01 3.74-2.142 6.09-4.942 6.09M9.616 20.7C4.385 20.7 0 25.01 0 30.35S4.385 40 9.616 40c5.321 0 9.706-4.31 9.706-9.65s-4.385-9.65-9.706-9.65M30.241 0c-5.321 0-9.616 4.31-9.616 9.65s4.295 9.65 9.616 9.65h.03c5.301-.01 9.596-4.33 9.586-9.65v-.03C39.847 4.3 35.542-.01 30.241 0m0 20.7h-.03c-5.301.01-9.596 4.33-9.586 9.65v.03c.01 5.32 4.315 9.63 9.616 9.62h.03c5.301-.01 9.596-4.33 9.586-9.65v-.03c-.01-5.32-4.315-9.63-9.616-9.62M9.616 0C4.385 0 0 4.31 0 9.65s4.385 9.65 9.616 9.65c5.321 0 9.706-4.31 9.706-9.65S14.937 0 9.616 0" opacity="0.5"/></svg>