<svg xmlns="http://www.w3.org/2000/svg" width="67" height="67" fill="none" viewBox="0 0 67 67"><rect width="67" height="67" fill="#FFE8E8" rx="4"/><g clip-path="url(#a)"><path fill="#7E8595" d="M22.93 19.182h22.14v.698H22.93zm0 3.924h22.14v.697H22.93zm2.953 3.924h16.234v.697H25.883zM45.07 46.793H22.93v-.698h22.14zm0-3.923H22.93v-.699h22.14zm-2.953-3.925H25.884v-.697h16.233z"/><path fill="url(#b)" d="M45.745 48.973c-.789 0-1.428-.64-1.428-1.43 0-1.92-.488-3.824-1.411-5.507a11.5 11.5 0 0 0-3.886-4.152l-11.582-7.386a14.35 14.35 0 0 1-4.855-5.187 14.35 14.35 0 0 1-1.763-6.882 1.429 1.429 0 0 1 2.858 0c0 1.92.488 3.825 1.41 5.508a11.5 11.5 0 0 0 3.886 4.151l11.583 7.387a14.35 14.35 0 0 1 4.854 5.187 14.35 14.35 0 0 1 1.763 6.882c0 .789-.64 1.428-1.429 1.428"/><path fill="url(#c)" d="M45.411 40.662a14.35 14.35 0 0 0-4.854-5.187L28.974 28.09a11.5 11.5 0 0 1-3.885-4.151 11.5 11.5 0 0 1-1.411-5.508 1.43 1.43 0 0 0-.855-1.309 1.43 1.43 0 0 0-.854 1.309c0 2.398.61 4.778 1.763 6.881a14.36 14.36 0 0 0 4.854 5.187l11.583 7.387a11.5 11.5 0 0 1 3.885 4.151 11.5 11.5 0 0 1 1.41 5.508c0 .585.352 1.088.855 1.309.503-.222.855-.724.855-1.309 0-2.399-.61-4.778-1.763-6.882"/><path fill="url(#d)" d="m40.56 35.474-5.191-3.31-2.736 1.645 6.39 4.075c.644.41 1.243.886 1.791 1.414h3.747a14.4 14.4 0 0 0-4.001-3.824"/><path fill="url(#e)" d="M22.25 48.973c-.79 0-1.43-.64-1.43-1.43 0-2.398.61-4.778 1.763-6.881a14.35 14.35 0 0 1 4.855-5.187l11.582-7.387a11.5 11.5 0 0 0 3.886-4.151 11.5 11.5 0 0 0 1.41-5.508 1.429 1.429 0 0 1 2.858 0c0 2.399-.61 4.778-1.763 6.882a14.36 14.36 0 0 1-4.854 5.187l-11.583 7.386a11.5 11.5 0 0 0-3.885 4.151 11.5 11.5 0 0 0-1.411 5.509c0 .789-.64 1.428-1.429 1.428"/><path fill="url(#f)" d="m28.976 37.884 11.583-7.387a14.35 14.35 0 0 0 4.854-5.187 14.35 14.35 0 0 0 1.763-6.882 1.43 1.43 0 0 0-.984-1.358 1.43 1.43 0 0 0-.985 1.358c0 1.92-.488 3.825-1.41 5.508a11.5 11.5 0 0 1-3.886 4.152l-11.583 7.386a14.35 14.35 0 0 0-4.854 5.187 14.36 14.36 0 0 0-1.763 6.882c0 .634.413 1.171.984 1.358a1.43 1.43 0 0 0 .985-1.358c0-1.92.488-3.825 1.41-5.508a11.5 11.5 0 0 1 3.886-4.151"/><path fill="url(#g)" d="M34 29.847a2.468 2.468 0 1 0 0-4.937 2.468 2.468 0 0 0 0 4.937"/><path fill="url(#h)" d="M33.997 29.438a2.06 2.06 0 1 0 0-4.12 2.06 2.06 0 0 0 0 4.12"/><path fill="url(#i)" d="M35.672 25.563a2.468 2.468 0 0 1-4.101 2.262 2.468 2.468 0 1 0 4.1-2.263"/><path fill="url(#j)" d="M28.601 44.987a2.468 2.468 0 1 0 0-4.936 2.468 2.468 0 0 0 0 4.936"/><path fill="url(#k)" d="M28.607 44.579a2.06 2.06 0 1 0 0-4.12 2.06 2.06 0 0 0 0 4.12"/><path fill="url(#l)" d="M30.28 40.705a2.468 2.468 0 0 1-4.101 2.262 2.468 2.468 0 1 0 4.102-2.262"/><path fill="url(#m)" d="M39.648 25.923a2.468 2.468 0 1 0 0-4.937 2.468 2.468 0 0 0 0 4.937"/><path fill="url(#n)" d="M39.646 25.514a2.06 2.06 0 1 0 0-4.12 2.06 2.06 0 0 0 0 4.12"/><path fill="url(#o)" d="M40.75 21.246a2.468 2.468 0 0 1-3.312 3.312 2.468 2.468 0 1 0 3.312-3.312"/><path fill="url(#p)" d="M39.648 49a2.468 2.468 0 1 0 0-4.936 2.468 2.468 0 0 0 0 4.937"/><path fill="url(#q)" d="M39.646 48.593a2.06 2.06 0 1 0 0-4.12 2.06 2.06 0 0 0 0 4.12"/><path fill="url(#r)" d="M40.75 44.324a2.468 2.468 0 0 1-3.312 3.312 2.468 2.468 0 1 0 3.312-3.312"/><path fill="url(#s)" d="M28.093 21.997a2.468 2.468 0 1 0 0-4.936 2.468 2.468 0 0 0 0 4.936"/><path fill="url(#t)" d="M28.091 21.59a2.06 2.06 0 1 0 0-4.12 2.06 2.06 0 0 0 0 4.12"/><path fill="url(#u)" d="M29.195 17.322a2.468 2.468 0 0 1-3.312 3.312 2.468 2.468 0 1 0 3.312-3.312"/><path fill="url(#v)" d="M34.445 41.167a2.468 2.468 0 1 0 0-4.937 2.468 2.468 0 0 0 0 4.937"/><path fill="url(#w)" d="M34.443 40.759a2.06 2.06 0 1 0 0-4.12 2.06 2.06 0 0 0 0 4.12"/><path fill="url(#x)" d="M35.546 36.49a2.468 2.468 0 0 1-3.312 3.312 2.468 2.468 0 1 0 3.312-3.312"/></g><defs><linearGradient id="b" x1="36.3206" x2="31.3673" y1="30.365" y2="35.9534" gradientUnits="userSpaceOnUse"><stop stop-color="#FF7044"/><stop offset="1" stop-color="#F92814"/></linearGradient><linearGradient id="c" x1="32.5749" x2="11.1741" y1="32.2523" y2="24.3778" gradientUnits="userSpaceOnUse"><stop stop-color="#FF7044" stop-opacity="0"/><stop offset="1" stop-color="#FFA425"/></linearGradient><linearGradient id="d" x1="39.0552" x2="35.666" y1="36.8632" y2="33.474" gradientUnits="userSpaceOnUse"><stop stop-color="#F92814" stop-opacity="0"/><stop offset="1" stop-color="#C1272D"/></linearGradient><linearGradient id="e" x1="32.9973" x2="36.1725" y1="31.5063" y2="36.2055" gradientUnits="userSpaceOnUse"><stop stop-color="#FF7044"/><stop offset="1" stop-color="#F92814"/></linearGradient><linearGradient id="f" x1="36.5727" x2="28.3172" y1="38.538" y2="17.0103" gradientUnits="userSpaceOnUse"><stop stop-color="#FF7044" stop-opacity="0"/><stop offset="1" stop-color="#FFA425"/></linearGradient><linearGradient id="g" x1="33.4101" x2="35.5934" y1="26.2629" y2="30.2237" gradientUnits="userSpaceOnUse"><stop stop-color="#FFDA45"/><stop offset="1" stop-color="#FFA425"/></linearGradient><linearGradient id="h" x1="34.2066" x2="33.3434" y1="27.8929" y2="25.3947" gradientUnits="userSpaceOnUse"><stop stop-color="#FFDA45" stop-opacity="0"/><stop offset="1" stop-color="#FCEE21"/></linearGradient><linearGradient id="i" x1="33.8588" x2="38.8733" y1="28.3389" y2="23.2182" gradientUnits="userSpaceOnUse"><stop stop-color="#FFDA45" stop-opacity="0"/><stop offset="1" stop-color="#B53759"/></linearGradient><linearGradient id="j" x1="28.005" x2="30.1883" y1="41.408" y2="45.3688" gradientUnits="userSpaceOnUse"><stop stop-color="#FFDA45"/><stop offset="1" stop-color="#FFA425"/></linearGradient><linearGradient id="k" x1="28.8094" x2="27.9461" y1="43.0379" y2="40.5397" gradientUnits="userSpaceOnUse"><stop stop-color="#FFDA45" stop-opacity="0"/><stop offset="1" stop-color="#FCEE21"/></linearGradient><linearGradient id="l" x1="28.4614" x2="33.4759" y1="43.4858" y2="38.3653" gradientUnits="userSpaceOnUse"><stop stop-color="#FFDA45" stop-opacity="0"/><stop offset="1" stop-color="#B53759"/></linearGradient><linearGradient id="m" x1="38.7244" x2="41.9211" y1="22.5311" y2="25.7277" gradientUnits="userSpaceOnUse"><stop stop-color="#18CFFC"/><stop offset="1" stop-color="#4A98F7"/></linearGradient><linearGradient id="n" x1="39.942" x2="38.4191" y1="23.8743" y2="21.7152" gradientUnits="userSpaceOnUse"><stop stop-color="#18CFFC" stop-opacity="0"/><stop offset="1" stop-color="#65E1DC"/></linearGradient><linearGradient id="o" x1="39.7311" x2="43.1238" y1="24.4" y2="18.0901" gradientUnits="userSpaceOnUse"><stop stop-color="#0469BC" stop-opacity="0"/><stop offset="1" stop-color="#0469BC"/></linearGradient><linearGradient id="p" x1="38.7244" x2="41.9211" y1="45.6092" y2="48.8059" gradientUnits="userSpaceOnUse"><stop stop-color="#18CFFC"/><stop offset="1" stop-color="#4A98F7"/></linearGradient><linearGradient id="q" x1="39.942" x2="38.4191" y1="46.9524" y2="44.7934" gradientUnits="userSpaceOnUse"><stop stop-color="#18CFFC" stop-opacity="0"/><stop offset="1" stop-color="#65E1DC"/></linearGradient><linearGradient id="r" x1="39.7311" x2="43.1238" y1="47.478" y2="41.1681" gradientUnits="userSpaceOnUse"><stop stop-color="#0469BC" stop-opacity="0"/><stop offset="1" stop-color="#0469BC"/></linearGradient><linearGradient id="s" x1="27.1697" x2="30.3664" y1="18.6053" y2="21.802" gradientUnits="userSpaceOnUse"><stop stop-color="#92F37F"/><stop offset="1" stop-color="#4AB272"/></linearGradient><linearGradient id="t" x1="28.3873" x2="26.8644" y1="19.9505" y2="17.7915" gradientUnits="userSpaceOnUse"><stop stop-color="#92F37F" stop-opacity="0"/><stop offset="1" stop-color="#FFEE83"/></linearGradient><linearGradient id="u" x1="28.1765" x2="31.5692" y1="20.4761" y2="14.1662" gradientUnits="userSpaceOnUse"><stop stop-color="#4AB272" stop-opacity="0"/><stop offset="1" stop-color="#009245"/></linearGradient><linearGradient id="v" x1="33.5213" x2="36.718" y1="37.7752" y2="40.9719" gradientUnits="userSpaceOnUse"><stop stop-color="#92F37F"/><stop offset="1" stop-color="#4AB272"/></linearGradient><linearGradient id="w" x1="34.7389" x2="33.2159" y1="39.1184" y2="36.9594" gradientUnits="userSpaceOnUse"><stop stop-color="#92F37F" stop-opacity="0"/><stop offset="1" stop-color="#FFEE83"/></linearGradient><linearGradient id="x" x1="34.528" x2="37.9207" y1="39.6441" y2="33.3342" gradientUnits="userSpaceOnUse"><stop stop-color="#4AB272" stop-opacity="0"/><stop offset="1" stop-color="#009245"/></linearGradient><clipPath id="a"><path fill="#fff" d="M18 17h32v32H18z"/></clipPath></defs></svg>