<svg xmlns="http://www.w3.org/2000/svg" width="67" height="67" fill="none" viewBox="0 0 67 67"><rect width="67" height="67" fill="#E3F9F6" rx="4"/><g clip-path="url(#a)"><path fill="url(#b)" d="M48.818 17h-28.82c-.853 0-1.28 1.03-.677 1.633L48.368 47.68c.603.603 1.633.176 1.633-.676V18.183c0-.653-.53-1.183-1.183-1.183m-5.163 18.154a.377.377 0 0 1-.643.266L31.58 23.99a.377.377 0 0 1 .266-.643H43.19c.257 0 .466.208.466.465z"/><path fill="url(#c)" d="M48.82 21.027H24.068a.402.402 0 0 0-.284.687l25.954 25.955a.94.94 0 0 0 .267-.665V22.21c0-.653-.53-1.183-1.183-1.183M43.66 35.155a.377.377 0 0 1-.643.266L31.584 23.99a.377.377 0 0 1 .266-.643h11.342c.257 0 .466.209.466.466z"/><path fill="url(#d)" d="M49.655 17.346a1.18 1.18 0 0 0-.837-.346h-28.82c-.853 0-1.28 1.03-.677 1.633l1.519 1.518h26.01z"/><path fill="url(#e)" d="m46.852 46.161 1.518 1.519c.603.602 1.633.175 1.633-.678v-28.82c0-.327-.132-.622-.346-.836l-2.805 2.805z"/><path fill="url(#f)" d="M22.164 17.875v1.4a.344.344 0 1 1-.687 0v-1.4a.344.344 0 1 1 .687 0"/><path fill="url(#g)" d="M24.094 17.875v.716a.344.344 0 1 1-.688 0v-.716a.344.344 0 1 1 .688 0"/><path fill="url(#h)" d="M26.016 17.875v.716a.344.344 0 1 1-.688 0v-.716a.344.344 0 1 1 .688 0"/><path fill="url(#i)" d="M27.946 17.875v1.4a.344.344 0 1 1-.688 0v-1.4a.344.344 0 1 1 .688 0"/><path fill="url(#j)" d="M29.875 17.875v.716a.344.344 0 1 1-.687 0v-.716a.344.344 0 1 1 .687 0"/><path fill="url(#k)" d="M31.797 17.875v.716a.344.344 0 1 1-.688 0v-.716a.344.344 0 1 1 .688 0"/><path fill="url(#l)" d="M33.727 17.875v1.4a.344.344 0 1 1-.688 0v-1.4a.344.344 0 1 1 .688 0"/><path fill="url(#m)" d="M35.657 17.875v.716a.344.344 0 1 1-.688 0v-.716a.344.344 0 1 1 .688 0"/><path fill="url(#n)" d="M37.578 17.875v.716a.344.344 0 1 1-.687 0v-.716a.344.344 0 1 1 .687 0"/><path fill="url(#o)" d="M39.508 17.875v1.4a.344.344 0 1 1-.688 0v-1.4a.344.344 0 1 1 .688 0"/><path fill="url(#p)" d="M41.43 17.875v.716a.344.344 0 1 1-.688 0v-.716a.344.344 0 1 1 .688 0"/><path fill="url(#q)" d="M43.36 17.875v.716a.344.344 0 1 1-.688 0v-.716a.344.344 0 1 1 .688 0"/><path fill="url(#r)" d="M45.29 17.875v1.4a.344.344 0 1 1-.688 0v-1.4a.344.344 0 1 1 .687 0"/><path fill="url(#s)" d="M49.127 21.438h-1.4a.344.344 0 1 1 0-.688h1.4a.344.344 0 0 1 0 .688"/><path fill="url(#t)" d="M49.122 23.366h-.716a.344.344 0 1 1 0-.688h.716a.344.344 0 0 1 0 .688"/><path fill="url(#u)" d="M49.122 25.291h-.716a.344.344 0 0 1 0-.687h.716a.344.344 0 0 1 0 .687"/><path fill="url(#v)" d="M49.127 27.217h-1.4a.344.344 0 1 1 0-.688h1.4a.344.344 0 0 1 0 .688"/><path fill="url(#w)" d="M49.122 29.145h-.716a.344.344 0 0 1 0-.688h.716a.344.344 0 0 1 0 .688"/><path fill="url(#x)" d="M49.122 31.07h-.716a.344.344 0 1 1 0-.687h.716a.344.344 0 0 1 0 .688"/><path fill="url(#y)" d="M49.127 32.998h-1.4a.344.344 0 1 1 0-.687h1.4a.344.344 0 0 1 0 .687"/><path fill="url(#z)" d="M49.122 34.924h-.716a.344.344 0 0 1 0-.688h.716a.344.344 0 0 1 0 .688"/><path fill="url(#A)" d="M49.122 36.852h-.716a.344.344 0 0 1 0-.688h.716a.344.344 0 1 1 0 .688"/><path fill="url(#B)" d="M49.127 38.778h-1.4a.344.344 0 1 1 0-.688h1.4a.344.344 0 0 1 0 .688"/><path fill="url(#C)" d="M49.122 40.705h-.716a.344.344 0 0 1 0-.687h.716a.344.344 0 0 1 0 .687"/><path fill="url(#D)" d="M49.122 42.631h-.716a.344.344 0 0 1 0-.688h.716a.344.344 0 1 1 0 .688"/><path fill="url(#E)" d="M49.127 44.559h-1.4a.344.344 0 1 1 0-.688h1.4a.344.344 0 0 1 0 .688"/><path fill="#7E8595" d="M44.41 48.454h-.94a.784.784 0 0 1 0-1.57h.94a.784.784 0 0 1 0 1.57m-4.078 0h-.94a.784.784 0 0 1 0-1.57h.94a.784.784 0 0 1 0 1.57m-4.078 0h-.941a.784.784 0 0 1 0-1.57h.94a.784.784 0 0 1 0 1.57m-4.079 0h-.94a.784.784 0 0 1 0-1.57h.94a.784.784 0 0 1 0 1.57m-4.078 0h-.941a.784.784 0 0 1 0-1.57h.941a.784.784 0 0 1 0 1.57m-4.078 0h-.942a.784.784 0 0 1 0-1.57h.942a.784.784 0 0 1 0 1.57m-4.079 0h-.609a.784.784 0 0 1-.784-.785v-.332a.784.784 0 0 1 1.426-.451.784.784 0 0 1-.033 1.567m-.609-3.47a.784.784 0 0 1-.784-.784v-.942a.784.784 0 0 1 1.569 0v.942a.784.784 0 0 1-.785.784m0-4.078a.784.784 0 0 1-.784-.785v-.94a.784.784 0 0 1 1.569 0v.94a.784.784 0 0 1-.785.785m0-4.079a.784.784 0 0 1-.784-.784v-.941a.784.784 0 0 1 1.569 0v.94a.784.784 0 0 1-.785.785m0-4.078a.784.784 0 0 1-.784-.785v-.94a.784.784 0 0 1 1.569 0v.94a.784.784 0 0 1-.785.785m0-4.079a.784.784 0 0 1-.784-.784v-.941a.784.784 0 0 1 1.569 0v.941a.784.784 0 0 1-.785.784m0-4.078a.784.784 0 0 1-.784-.784v-.942a.784.784 0 0 1 1.569 0v.942a.784.784 0 0 1-.785.784"/><path fill="url(#F)" d="M19.668 49a1.668 1.668 0 1 0 0-3.336 1.668 1.668 0 0 0 0 3.337"/><path fill="url(#G)" d="M19.666 48.724a1.392 1.392 0 1 0 0-2.784 1.392 1.392 0 0 0 0 2.784"/><path fill="url(#H)" d="M20.418 45.84a1.668 1.668 0 0 1-2.238 2.239 1.668 1.668 0 1 0 2.238-2.24"/><path fill="url(#I)" d="M19.668 25.034a1.668 1.668 0 1 0 0-3.337 1.668 1.668 0 0 0 0 3.337"/><path fill="url(#J)" d="M19.666 24.757a1.392 1.392 0 1 0 0-2.784 1.392 1.392 0 0 0 0 2.784"/><path fill="url(#K)" d="M20.418 21.873a1.668 1.668 0 0 1-2.238 2.238 1.668 1.668 0 1 0 2.238-2.238"/><path fill="url(#L)" d="M43.653 49a1.668 1.668 0 1 0 0-3.336 1.668 1.668 0 0 0 0 3.337"/><path fill="url(#M)" d="M43.65 48.724a1.392 1.392 0 1 0 0-2.784 1.392 1.392 0 0 0 0 2.784"/><path fill="url(#N)" d="M44.403 45.84a1.668 1.668 0 0 1-2.238 2.239 1.668 1.668 0 1 0 2.237-2.24"/></g><defs><linearGradient id="b" x1="32.856" x2="46.3994" y1="10.1302" y2="74.6667" gradientUnits="userSpaceOnUse"><stop stop-color="#FF7044"/><stop offset="1" stop-color="#F92814"/></linearGradient><linearGradient id="c" x1="38.9737" x2="32.8173" y1="27.9364" y2="10.1512" gradientUnits="userSpaceOnUse"><stop stop-color="#FF7044" stop-opacity="0"/><stop offset="1" stop-color="#FFA425"/></linearGradient><linearGradient id="d" x1="34.3471" x2="34.3471" y1="16.8989" y2="26.7188" gradientUnits="userSpaceOnUse"><stop stop-color="#FF7044"/><stop offset="1" stop-color="#F92814"/></linearGradient><linearGradient id="e" x1="50.1268" x2="44.5176" y1="32.6537" y2="32.6537" gradientUnits="userSpaceOnUse"><stop stop-color="#FF7044"/><stop offset="1" stop-color="#F92814"/></linearGradient><linearGradient id="f" x1="21.7404" x2="22.448" y1="18.5754" y2="18.5754" gradientUnits="userSpaceOnUse"><stop stop-color="#FFDA45"/><stop offset="1" stop-color="#FFA425"/></linearGradient><linearGradient id="g" x1="23.6701" x2="24.3777" y1="18.2332" y2="18.2332" gradientUnits="userSpaceOnUse"><stop stop-color="#FFDA45"/><stop offset="1" stop-color="#FFA425"/></linearGradient><linearGradient id="h" x1="25.592" x2="26.2996" y1="18.2332" y2="18.2332" gradientUnits="userSpaceOnUse"><stop stop-color="#FFDA45"/><stop offset="1" stop-color="#FFA425"/></linearGradient><linearGradient id="i" x1="27.5216" x2="28.2292" y1="18.5754" y2="18.5754" gradientUnits="userSpaceOnUse"><stop stop-color="#FFDA45"/><stop offset="1" stop-color="#FFA425"/></linearGradient><linearGradient id="j" x1="29.4514" x2="30.159" y1="18.2332" y2="18.2332" gradientUnits="userSpaceOnUse"><stop stop-color="#FFDA45"/><stop offset="1" stop-color="#FFA425"/></linearGradient><linearGradient id="k" x1="31.3732" x2="32.0808" y1="18.2332" y2="18.2332" gradientUnits="userSpaceOnUse"><stop stop-color="#FFDA45"/><stop offset="1" stop-color="#FFA425"/></linearGradient><linearGradient id="l" x1="33.3028" x2="34.0104" y1="18.5754" y2="18.5754" gradientUnits="userSpaceOnUse"><stop stop-color="#FFDA45"/><stop offset="1" stop-color="#FFA425"/></linearGradient><linearGradient id="m" x1="35.2327" x2="35.9402" y1="18.2332" y2="18.2332" gradientUnits="userSpaceOnUse"><stop stop-color="#FFDA45"/><stop offset="1" stop-color="#FFA425"/></linearGradient><linearGradient id="n" x1="37.1544" x2="37.862" y1="18.2332" y2="18.2332" gradientUnits="userSpaceOnUse"><stop stop-color="#FFDA45"/><stop offset="1" stop-color="#FFA425"/></linearGradient><linearGradient id="o" x1="39.0842" x2="39.7918" y1="18.5754" y2="18.5754" gradientUnits="userSpaceOnUse"><stop stop-color="#FFDA45"/><stop offset="1" stop-color="#FFA425"/></linearGradient><linearGradient id="p" x1="41.0061" x2="41.7137" y1="18.2332" y2="18.2332" gradientUnits="userSpaceOnUse"><stop stop-color="#FFDA45"/><stop offset="1" stop-color="#FFA425"/></linearGradient><linearGradient id="q" x1="42.9357" x2="43.6432" y1="18.2332" y2="18.2332" gradientUnits="userSpaceOnUse"><stop stop-color="#FFDA45"/><stop offset="1" stop-color="#FFA425"/></linearGradient><linearGradient id="r" x1="44.8655" x2="45.573" y1="18.5754" y2="18.5754" gradientUnits="userSpaceOnUse"><stop stop-color="#FFDA45"/><stop offset="1" stop-color="#FFA425"/></linearGradient><linearGradient id="s" x1="48.4269" x2="48.4269" y1="21.0139" y2="21.7215" gradientUnits="userSpaceOnUse"><stop stop-color="#FFDA45"/><stop offset="1" stop-color="#FFA425"/></linearGradient><linearGradient id="t" x1="48.7643" x2="48.7643" y1="22.9416" y2="23.6492" gradientUnits="userSpaceOnUse"><stop stop-color="#FFDA45"/><stop offset="1" stop-color="#FFA425"/></linearGradient><linearGradient id="u" x1="48.7643" x2="48.7643" y1="24.8674" y2="25.5749" gradientUnits="userSpaceOnUse"><stop stop-color="#FFDA45"/><stop offset="1" stop-color="#FFA425"/></linearGradient><linearGradient id="v" x1="48.4269" x2="48.4269" y1="26.7932" y2="27.5008" gradientUnits="userSpaceOnUse"><stop stop-color="#FFDA45"/><stop offset="1" stop-color="#FFA425"/></linearGradient><linearGradient id="w" x1="48.7643" x2="48.7643" y1="28.7208" y2="29.4284" gradientUnits="userSpaceOnUse"><stop stop-color="#FFDA45"/><stop offset="1" stop-color="#FFA425"/></linearGradient><linearGradient id="x" x1="48.7643" x2="48.7643" y1="30.6467" y2="31.3543" gradientUnits="userSpaceOnUse"><stop stop-color="#FFDA45"/><stop offset="1" stop-color="#FFA425"/></linearGradient><linearGradient id="y" x1="48.4269" x2="48.4269" y1="32.5744" y2="33.282" gradientUnits="userSpaceOnUse"><stop stop-color="#FFDA45"/><stop offset="1" stop-color="#FFA425"/></linearGradient><linearGradient id="z" x1="48.7643" x2="48.7643" y1="34.5001" y2="35.2077" gradientUnits="userSpaceOnUse"><stop stop-color="#FFDA45"/><stop offset="1" stop-color="#FFA425"/></linearGradient><linearGradient id="A" x1="48.7643" x2="48.7643" y1="36.428" y2="37.1355" gradientUnits="userSpaceOnUse"><stop stop-color="#FFDA45"/><stop offset="1" stop-color="#FFA425"/></linearGradient><linearGradient id="B" x1="48.4269" x2="48.4269" y1="38.3536" y2="39.0612" gradientUnits="userSpaceOnUse"><stop stop-color="#FFDA45"/><stop offset="1" stop-color="#FFA425"/></linearGradient><linearGradient id="C" x1="48.7643" x2="48.7643" y1="40.2814" y2="40.989" gradientUnits="userSpaceOnUse"><stop stop-color="#FFDA45"/><stop offset="1" stop-color="#FFA425"/></linearGradient><linearGradient id="D" x1="48.7643" x2="48.7643" y1="42.2072" y2="42.9148" gradientUnits="userSpaceOnUse"><stop stop-color="#FFDA45"/><stop offset="1" stop-color="#FFA425"/></linearGradient><linearGradient id="E" x1="48.4269" x2="48.4269" y1="44.1349" y2="44.8424" gradientUnits="userSpaceOnUse"><stop stop-color="#FFDA45"/><stop offset="1" stop-color="#FFA425"/></linearGradient><linearGradient id="F" x1="19.0441" x2="21.2047" y1="46.7081" y2="48.8687" gradientUnits="userSpaceOnUse"><stop stop-color="#92F37F"/><stop offset="1" stop-color="#4AB272"/></linearGradient><linearGradient id="G" x1="19.8658" x2="18.8366" y1="47.6154" y2="46.1562" gradientUnits="userSpaceOnUse"><stop stop-color="#92F37F" stop-opacity="0"/><stop offset="1" stop-color="#FFEE83"/></linearGradient><linearGradient id="H" x1="19.7299" x2="22.0229" y1="47.9715" y2="43.7068" gradientUnits="userSpaceOnUse"><stop stop-color="#4AB272" stop-opacity="0"/><stop offset="1" stop-color="#009245"/></linearGradient><linearGradient id="I" x1="19.0441" x2="21.2047" y1="22.7413" y2="24.9019" gradientUnits="userSpaceOnUse"><stop stop-color="#92F37F"/><stop offset="1" stop-color="#4AB272"/></linearGradient><linearGradient id="J" x1="19.8658" x2="18.8366" y1="23.6486" y2="22.1894" gradientUnits="userSpaceOnUse"><stop stop-color="#92F37F" stop-opacity="0"/><stop offset="1" stop-color="#FFEE83"/></linearGradient><linearGradient id="K" x1="19.7299" x2="22.0229" y1="24.0047" y2="19.74" gradientUnits="userSpaceOnUse"><stop stop-color="#4AB272" stop-opacity="0"/><stop offset="1" stop-color="#009245"/></linearGradient><linearGradient id="L" x1="43.0284" x2="45.189" y1="46.7081" y2="48.8687" gradientUnits="userSpaceOnUse"><stop stop-color="#92F37F"/><stop offset="1" stop-color="#4AB272"/></linearGradient><linearGradient id="M" x1="43.8502" x2="42.8209" y1="47.6154" y2="46.1562" gradientUnits="userSpaceOnUse"><stop stop-color="#92F37F" stop-opacity="0"/><stop offset="1" stop-color="#FFEE83"/></linearGradient><linearGradient id="N" x1="43.7143" x2="46.0073" y1="47.9715" y2="43.7068" gradientUnits="userSpaceOnUse"><stop stop-color="#4AB272" stop-opacity="0"/><stop offset="1" stop-color="#009245"/></linearGradient><clipPath id="a"><path fill="#fff" d="M18 17h32v32H18z"/></clipPath></defs></svg>