<svg xmlns="http://www.w3.org/2000/svg" width="67" height="67" fill="none" viewBox="0 0 67 67"><rect width="67" height="67" fill="#FFF6EB" rx="4"/><g clip-path="url(#a)"><path fill="url(#b)" d="M36.472 20.949c-.947.203-1.835 1.04-2.479 1.04s-1.532-.837-2.479-1.04c-2.008-.263-4.858 1.14-4.858 5.452s3.123 7.833 4.462 7.833c1.487 0 1.685-.694 2.875-.694s1.388.694 2.875.694c1.339 0 4.462-3.52 4.462-7.833 0-4.312-2.85-5.715-4.858-5.453"/><path fill="url(#c)" d="M37.496 20.957a3.8 3.8 0 0 0-1.022-.009c-.947.204-1.835 1.041-2.48 1.041l-.049-.002v1.05l.878.164 6.044 1.127z"/><path fill="url(#d)" d="M36.47 20.949c-.946.203-1.834 1.04-2.478 1.04a1 1 0 0 1-.101-.006c.142.34.289.58.341.662l-.004.016.024.014.024.015 6.596 6.593a9.6 9.6 0 0 0 .456-2.882c0-4.312-2.85-5.715-4.858-5.453"/><path fill="url(#e)" d="M34.254 22.674s-3.027-4.418 3.656-5.665a.53.53 0 0 1 .612.404c.304 1.33.673 4.956-4.268 5.261"/><path fill="url(#f)" d="M38.517 17.414a.53.53 0 0 0-.262-.348c-2.214 2.415-4.005 5.61-4.005 5.61 4.94-.307 4.572-3.933 4.267-5.262"/><path fill="url(#g)" d="M37.415 19.05q-.078.026-.157.048-.078.023-.157.043c-.052.014-.107.02-.16.026a.5.5 0 0 0-.153.044 1 1 0 0 0-.143.08l.118-.188.196-.306c.064-.102.135-.2.201-.3q.202-.301.436-.579l-.039-.041-.14.12-.07.061q-.034.031-.066.064c-.086.087-.177.172-.258.264-.169.179-.327.365-.487.551l-.09.11a.5.5 0 0 0-.011-.117c-.013-.053-.026-.106-.031-.16q-.01-.081-.014-.162-.007-.082-.01-.164c-.006-.11-.002-.221 0-.335l-.031-.008q-.074.156-.123.323-.024.084-.043.17-.017.085-.029.171l-.029.175a.5.5 0 0 0 .02.21.4.4 0 0 1-.069.356l-.001.002q-.204.264-.404.532a1 1 0 0 0-.015-.159.5.5 0 0 0-.051-.15q-.04-.072-.07-.147t-.054-.154q-.027-.077-.05-.156c-.034-.106-.058-.214-.085-.324h-.032a2 2 0 0 0-.038.343q-.002.087 0 .175l.016.174q.009.087.016.177a.46.46 0 0 0 .095.235.3.3 0 0 1-.014.354l-.205.266a5 5 0 0 0-.242.348 1 1 0 0 0-.014-.138.5.5 0 0 0-.05-.15q-.041-.072-.07-.147t-.055-.154q-.026-.076-.05-.156c-.033-.106-.057-.214-.085-.324h-.031a2 2 0 0 0-.038.343q-.003.087 0 .175.005.087.015.174c.007.058.01.117.017.177a.5.5 0 0 0 .053.167.7.7 0 0 0 .106.146.17.17 0 0 1 .029.19c-.085.164-.235.46-.304.624-.094.228-.18.46-.238.71l.048.03c.195-.166.365-.345.527-.53q.242-.277.458-.57l.007-.01a.17.17 0 0 1 .201-.054.7.7 0 0 0 .163.044.5.5 0 0 0 .176-.008l.171-.046q.085-.02.169-.046.083-.027.164-.06.16-.065.309-.154l-.011-.03c-.113.013-.223.028-.334.032q-.082.006-.164.008-.081.003-.162.002c-.054 0-.109-.008-.162-.014a.5.5 0 0 0-.16.004 1 1 0 0 0-.172.048q.103-.16.195-.328c.049-.09.115-.21.174-.314a.295.295 0 0 1 .316-.149c.06.013.124.017.18.026a.5.5 0 0 0 .176-.008l.171-.046q.085-.02.169-.046.083-.028.164-.06.16-.065.309-.155l-.01-.03c-.114.013-.224.028-.334.033q-.082.006-.165.007-.081.004-.162.003c-.054 0-.109-.008-.162-.015a.5.5 0 0 0-.159.005c-.1.02-.2.05-.312.113q.186-.311.377-.62l.005-.008a.4.4 0 0 1 .36-.197 1 1 0 0 0 .122-.003.5.5 0 0 0 .168-.052c.052-.028.103-.06.154-.087q.077-.041.152-.087.074-.047.144-.099.14-.104.26-.227l-.018-.026c-.106.04-.208.083-.314.115"/><path fill="url(#h)" d="M34.358 23.08a5 5 0 0 1-.68.009 9.5 9.5 0 0 0-.301-2.271 6.2 6.2 0 0 0-.56-1.412c-.423-.76-.85-1.075-.855-1.078a.34.34 0 0 1 .394-.555c.061.043 1.18.856 1.717 3.01.161.642.27 1.402.285 2.298"/><path fill="url(#i)" d="M36.626 22.272a2.3 2.3 0 0 1-.62.328c-.217.08-.44.138-.665.184-.45.09-.909.129-1.368.13a7 7 0 0 1-1.368-.13 4.4 4.4 0 0 1-.663-.185 3 3 0 0 1-.32-.139c-.05-.028-.104-.054-.152-.087-.053-.03-.099-.067-.15-.102a1.4 1.4 0 0 0 .26.318l4.365 4.366c.103.111.223.209.349.293.208.139.435.246.67.33.47.164.967.237 1.463.238a4.5 4.5 0 0 0 1.463-.24 3 3 0 0 0 .67-.328c.206-.139.397-.311.52-.523z"/><path fill="url(#j)" d="M36.626 22.272a1.66 1.66 0 0 1-.52.523 3 3 0 0 1-.67.328c-.47.165-.968.238-1.463.24a4.5 4.5 0 0 1-1.463-.24 3 3 0 0 1-.67-.328 1.65 1.65 0 0 1-.52-.524c.051.035.097.072.15.102.048.033.102.06.152.087.106.051.21.1.32.139q.325.119.663.185c.45.09.91.128 1.368.13.46 0 .919-.04 1.369-.13.224-.046.447-.104.663-.184a2.3 2.3 0 0 0 .62-.328"/><path fill="url(#k)" d="M31.324 30.374c2.189 0 3.964-2.008 3.964-4.487S33.513 21.4 31.324 21.4s-3.965 2.01-3.965 4.487c0 2.479 1.775 4.487 3.965 4.487"/><path fill="url(#l)" d="M46.473 44.866v3.346a.79.79 0 0 1-.788.788H23.977c-.68 0-1.295-.275-1.74-.72a2.461 2.461 0 0 1 1.74-4.201h21.708c.435 0 .788.352.788.787"/><path fill="url(#m)" d="M46.473 44.866v3.346a.79.79 0 0 1-.788.788H23.977c-.68 0-1.295-.275-1.74-.72a2.461 2.461 0 0 1 1.74-4.201h21.708c.435 0 .788.352.788.787"/><path fill="url(#n)" d="M44.698 48.404h-20.56a1.865 1.865 0 1 1 0-3.73h20.665c.4 0 .725.324.725.724v2.176a.83.83 0 0 1-.83.83"/><path fill="url(#o)" d="M22.492 47.41c.313.59.934.993 1.649.993H44.7a.83.83 0 0 0 .83-.83v-.163z"/><path fill="url(#p)" d="M24.138 48.404h20.56a.83.83 0 0 0 .83-.83V46.54H22.273c0 1.03.835 1.865 1.865 1.865"/><path fill="url(#q)" d="M22.48 45.686a1.865 1.865 0 0 0 1.658 2.719h20.56a.83.83 0 0 0 .83-.83v-1.89z"/><path fill="url(#r)" d="m29.499 45.686 3.27 3.27h-7.714v-3.27z"/><path fill="url(#s)" d="M24.867 45.686v3.198c0 .094.106.15.182.096l1.912-1.332a.38.38 0 0 1 .439 0l1.911 1.332a.116.116 0 0 0 .183-.096v-3.199z"/><path fill="url(#t)" d="M22.078 39.943v3.346c0 .435.353.788.788.788h21.16c.68 0 1.295-.276 1.741-.721a2.461 2.461 0 0 0-1.74-4.201h-21.16a.79.79 0 0 0-.789.788"/><path fill="url(#u)" d="M22.866 39.156h8.268a.79.79 0 0 0-.788.788v3.346c0 .436.353.788.788.788h-8.268a.79.79 0 0 1-.788-.788v-3.346c0-.435.353-.788.788-.788"/><path fill="url(#v)" d="M22.36 43.482h21.502a1.865 1.865 0 0 0 0-3.73H22.256c-.4 0-.725.324-.725.725v2.175c0 .458.372.83.83.83"/><path fill="url(#w)" d="M45.51 42.488c-.312.59-.933.993-1.648.993H22.361a.83.83 0 0 1-.83-.829v-.164z"/><path fill="url(#x)" d="M43.862 43.482H22.361a.83.83 0 0 1-.83-.83v-1.035h24.196c0 1.03-.835 1.865-1.865 1.865"/><path fill="url(#y)" d="M45.52 40.762a1.865 1.865 0 0 1-1.658 2.719H22.361a.83.83 0 0 1-.83-.83v-1.89z"/><path fill="url(#z)" d="M22.24 39.752h8.13a.8.8 0 0 0-.025.192v3.346q0 .099.024.192h-8.024a.83.83 0 0 1-.83-.83v-2.175c0-.4.325-.725.725-.725"/><path fill="url(#A)" d="M45.925 35.02v3.347a.79.79 0 0 1-.788.788h-21.16c-.68 0-1.295-.276-1.74-.721a2.461 2.461 0 0 1 1.74-4.201h21.16c.435 0 .788.352.788.788"/><path fill="url(#B)" d="M45.14 39.155a.79.79 0 0 0 .788-.788V35.02a.79.79 0 0 0-.788-.789H30.828l4.923 4.923z"/><path fill="url(#C)" d="M45.135 34.232h-8.268c.436 0 .788.353.788.789v3.346a.79.79 0 0 1-.788.788h8.268a.79.79 0 0 0 .788-.788V35.02a.79.79 0 0 0-.788-.789"/><path fill="url(#D)" d="M45.64 38.56H24.138a1.865 1.865 0 0 1 0-3.73h21.607c.4 0 .724.325.724.725v2.175a.83.83 0 0 1-.83.83"/><path fill="url(#E)" d="M22.492 37.566c.313.591.934.994 1.649.994h21.501a.83.83 0 0 0 .83-.83v-.163z"/><path fill="url(#F)" d="M24.138 38.558H45.64a.83.83 0 0 0 .83-.83v-1.035H22.272c0 1.03.835 1.865 1.865 1.865"/><path fill="url(#G)" d="M22.48 35.84a1.865 1.865 0 0 0 1.658 2.719H45.64a.83.83 0 0 0 .83-.83v-1.89z"/><path fill="url(#H)" d="m31.422 34.83 3.73 3.73h10.491a.8.8 0 0 0 .268-.045 1 1 0 0 0 .014-.147v-3.346a1 1 0 0 0-.02-.174.7.7 0 0 0-.157-.018z"/><path fill="url(#I)" d="M45.762 34.83h-8.13a.8.8 0 0 1 .025.192v3.346q0 .099-.024.192h8.024a.83.83 0 0 0 .83-.83v-2.175c0-.4-.325-.725-.725-.725"/></g><defs><linearGradient id="c" x1="37.2278" x2="36.3957" y1="23.0623" y2="20.1703" gradientUnits="userSpaceOnUse"><stop stop-color="#FF1D25" stop-opacity="0"/><stop offset="1" stop-color="#FF1D25"/></linearGradient><linearGradient id="d" x1="38.017" x2="35.1551" y1="23.967" y2="18.9509" gradientUnits="userSpaceOnUse"><stop stop-color="#F92814" stop-opacity="0"/><stop offset="1" stop-color="#C1272D"/></linearGradient><linearGradient id="e" x1="35.778" x2="39.1182" y1="19.4969" y2="22.0359" gradientUnits="userSpaceOnUse"><stop stop-color="#92F37F"/><stop offset="1" stop-color="#4AB272"/></linearGradient><linearGradient id="f" x1="37.733" x2="34.8343" y1="20.6907" y2="19.0772" gradientUnits="userSpaceOnUse"><stop stop-color="#4AB272" stop-opacity="0"/><stop offset="1" stop-color="#009245"/></linearGradient><linearGradient id="g" x1="35.2585" x2="36.0699" y1="19.7378" y2="20.4099" gradientUnits="userSpaceOnUse"><stop stop-color="#4AB272" stop-opacity="0"/><stop offset="1" stop-color="#009245"/></linearGradient><linearGradient id="h" x1="31.8203" x2="34.3579" y1="20.4042" y2="20.4042" gradientUnits="userSpaceOnUse"><stop stop-color="#7E8595"/><stop offset="1" stop-color="#555A66"/></linearGradient><linearGradient id="i" x1="36.7948" x2="33.9157" y1="25.7841" y2="19.56" gradientUnits="userSpaceOnUse"><stop stop-color="#F92814" stop-opacity="0"/><stop offset="1" stop-color="#C1272D"/></linearGradient><linearGradient id="j" x1="33.9733" x2="33.9733" y1="21.9424" y2="23.5386" gradientUnits="userSpaceOnUse"><stop stop-color="#7E8595"/><stop offset="1" stop-color="#555A66"/></linearGradient><linearGradient id="k" x1="32.0062" x2="24.2113" y1="26.3476" y2="21.0935" gradientUnits="userSpaceOnUse"><stop stop-color="#FF7044" stop-opacity="0"/><stop offset="0.2503" stop-color="#FF813A" stop-opacity="0.25"/><stop offset="0.7194" stop-color="#FF9A2B" stop-opacity="0.719"/><stop offset="1" stop-color="#FFA425"/></linearGradient><linearGradient id="l" x1="29.9195" x2="43.3939" y1="41.8553" y2="55.7015" gradientUnits="userSpaceOnUse"><stop stop-color="#18CFFC"/><stop offset="1" stop-color="#4A98F7"/></linearGradient><linearGradient id="m" x1="33.9183" x2="34.483" y1="44.8646" y2="51.3588" gradientUnits="userSpaceOnUse"><stop stop-color="#0469BC" stop-opacity="0"/><stop offset="1" stop-color="#0469BC"/></linearGradient><linearGradient id="n" x1="33.9005" x2="33.9005" y1="45.2352" y2="48.3445" gradientUnits="userSpaceOnUse"><stop stop-color="#F9F7FC"/><stop offset="1" stop-color="#F0DDFC"/></linearGradient><linearGradient id="o" x1="33.9746" x2="34.1419" y1="48.4402" y2="44.1316" gradientUnits="userSpaceOnUse"><stop stop-color="#F0DDFC" stop-opacity="0"/><stop offset="0.2889" stop-color="#C8B7E0" stop-opacity="0.289"/><stop offset="0.5915" stop-color="#A595C8" stop-opacity="0.592"/><stop offset="0.8395" stop-color="#8F81B8" stop-opacity="0.84"/><stop offset="1" stop-color="#8779B3"/></linearGradient><linearGradient id="p" x1="33.9005" x2="33.9005" y1="47.4525" y2="45.2774" gradientUnits="userSpaceOnUse"><stop stop-color="#F0DDFC" stop-opacity="0"/><stop offset="0.2889" stop-color="#C8B7E0" stop-opacity="0.289"/><stop offset="0.5915" stop-color="#A595C8" stop-opacity="0.592"/><stop offset="0.8395" stop-color="#8F81B8" stop-opacity="0.84"/><stop offset="1" stop-color="#8779B3"/></linearGradient><linearGradient id="q" x1="33.9207" x2="33.9625" y1="46.3617" y2="44.9394" gradientUnits="userSpaceOnUse"><stop stop-color="#F0DDFC" stop-opacity="0"/><stop offset="0.2889" stop-color="#C8B7E0" stop-opacity="0.289"/><stop offset="0.5915" stop-color="#A595C8" stop-opacity="0.592"/><stop offset="0.8395" stop-color="#8F81B8" stop-opacity="0.84"/><stop offset="1" stop-color="#8779B3"/></linearGradient><linearGradient id="r" x1="28.9395" x2="28.1709" y1="49.0643" y2="46.0369" gradientUnits="userSpaceOnUse"><stop stop-color="#F0DDFC" stop-opacity="0"/><stop offset="0.2889" stop-color="#C8B7E0" stop-opacity="0.289"/><stop offset="0.5915" stop-color="#A595C8" stop-opacity="0.592"/><stop offset="0.8395" stop-color="#8F81B8" stop-opacity="0.84"/><stop offset="1" stop-color="#8779B3"/></linearGradient><linearGradient id="s" x1="26.1295" x2="29.2603" y1="45.9377" y2="50.0102" gradientUnits="userSpaceOnUse"><stop stop-color="#FF7044"/><stop offset="1" stop-color="#F92814"/></linearGradient><linearGradient id="t" x1="35.75" x2="32.0476" y1="37.7848" y2="45.8067" gradientUnits="userSpaceOnUse"><stop stop-color="#92F37F"/><stop offset="1" stop-color="#4AB272"/></linearGradient><linearGradient id="u" x1="23.7277" x2="34.5645" y1="41.6174" y2="41.6174" gradientUnits="userSpaceOnUse"><stop stop-color="#4AB272" stop-opacity="0"/><stop offset="1" stop-color="#009245"/></linearGradient><linearGradient id="v" x1="33.6292" x2="33.6292" y1="40.3133" y2="43.4226" gradientUnits="userSpaceOnUse"><stop stop-color="#F9F7FC"/><stop offset="1" stop-color="#F0DDFC"/></linearGradient><linearGradient id="w" x1="33.558" x2="33.3874" y1="43.5296" y2="39.1347" gradientUnits="userSpaceOnUse"><stop stop-color="#F0DDFC" stop-opacity="0"/><stop offset="0.2889" stop-color="#C8B7E0" stop-opacity="0.289"/><stop offset="0.5915" stop-color="#A595C8" stop-opacity="0.592"/><stop offset="0.8395" stop-color="#8F81B8" stop-opacity="0.84"/><stop offset="1" stop-color="#8779B3"/></linearGradient><linearGradient id="x" x1="33.6292" x2="33.6292" y1="42.5306" y2="40.3555" gradientUnits="userSpaceOnUse"><stop stop-color="#F0DDFC" stop-opacity="0"/><stop offset="0.2889" stop-color="#C8B7E0" stop-opacity="0.289"/><stop offset="0.5915" stop-color="#A595C8" stop-opacity="0.592"/><stop offset="0.8395" stop-color="#8F81B8" stop-opacity="0.84"/><stop offset="1" stop-color="#8779B3"/></linearGradient><linearGradient id="y" x1="33.6089" x2="33.5666" y1="41.4324" y2="39.9984" gradientUnits="userSpaceOnUse"><stop stop-color="#F0DDFC" stop-opacity="0"/><stop offset="0.2889" stop-color="#C8B7E0" stop-opacity="0.289"/><stop offset="0.5915" stop-color="#A595C8" stop-opacity="0.592"/><stop offset="0.8395" stop-color="#8F81B8" stop-opacity="0.84"/><stop offset="1" stop-color="#8779B3"/></linearGradient><linearGradient id="z" x1="23.8221" x2="39.2511" y1="41.6168" y2="41.6168" gradientUnits="userSpaceOnUse"><stop stop-color="#F0DDFC" stop-opacity="0"/><stop offset="0.2889" stop-color="#C8B7E0" stop-opacity="0.289"/><stop offset="0.5915" stop-color="#A595C8" stop-opacity="0.592"/><stop offset="0.8395" stop-color="#8F81B8" stop-opacity="0.84"/><stop offset="1" stop-color="#8779B3"/></linearGradient><linearGradient id="A" x1="32.2536" x2="35.956" y1="32.8629" y2="40.8847" gradientUnits="userSpaceOnUse"><stop stop-color="#FFDA45"/><stop offset="1" stop-color="#FFA425"/></linearGradient><linearGradient id="B" x1="39.7694" x2="35.5654" y1="38.7047" y2="26.187" gradientUnits="userSpaceOnUse"><stop stop-color="#FFDA45" stop-opacity="0"/><stop offset="1" stop-color="#B53759"/></linearGradient><linearGradient id="C" x1="44.2738" x2="33.437" y1="36.6936" y2="36.6936" gradientUnits="userSpaceOnUse"><stop stop-color="#FFDA45" stop-opacity="0"/><stop offset="1" stop-color="#B53759"/></linearGradient><linearGradient id="D" x1="34.3714" x2="34.3714" y1="35.3915" y2="38.5007" gradientUnits="userSpaceOnUse"><stop stop-color="#F9F7FC"/><stop offset="1" stop-color="#F0DDFC"/></linearGradient><linearGradient id="E" x1="34.4451" x2="34.6157" y1="38.6077" y2="34.2129" gradientUnits="userSpaceOnUse"><stop stop-color="#F0DDFC" stop-opacity="0"/><stop offset="0.2889" stop-color="#C8B7E0" stop-opacity="0.289"/><stop offset="0.5915" stop-color="#A595C8" stop-opacity="0.592"/><stop offset="0.8395" stop-color="#8F81B8" stop-opacity="0.84"/><stop offset="1" stop-color="#8779B3"/></linearGradient><linearGradient id="F" x1="34.3714" x2="34.3714" y1="37.6069" y2="35.4317" gradientUnits="userSpaceOnUse"><stop stop-color="#F0DDFC" stop-opacity="0"/><stop offset="0.2889" stop-color="#C8B7E0" stop-opacity="0.289"/><stop offset="0.5915" stop-color="#A595C8" stop-opacity="0.592"/><stop offset="0.8395" stop-color="#8F81B8" stop-opacity="0.84"/><stop offset="1" stop-color="#8779B3"/></linearGradient><linearGradient id="G" x1="34.3918" x2="34.4339" y1="36.5106" y2="35.0765" gradientUnits="userSpaceOnUse"><stop stop-color="#F0DDFC" stop-opacity="0"/><stop offset="0.2889" stop-color="#C8B7E0" stop-opacity="0.289"/><stop offset="0.5915" stop-color="#A595C8" stop-opacity="0.592"/><stop offset="0.8395" stop-color="#8F81B8" stop-opacity="0.84"/><stop offset="1" stop-color="#8779B3"/></linearGradient><linearGradient id="H" x1="40.9473" x2="31.8807" y1="38.5686" y2="23.7608" gradientUnits="userSpaceOnUse"><stop stop-color="#F0DDFC" stop-opacity="0"/><stop offset="0.2889" stop-color="#C8B7E0" stop-opacity="0.289"/><stop offset="0.5915" stop-color="#A595C8" stop-opacity="0.592"/><stop offset="0.8395" stop-color="#8F81B8" stop-opacity="0.84"/><stop offset="1" stop-color="#8779B3"/></linearGradient><linearGradient id="I" x1="44.1799" x2="28.7509" y1="36.6949" y2="36.6949" gradientUnits="userSpaceOnUse"><stop stop-color="#F0DDFC" stop-opacity="0"/><stop offset="0.2889" stop-color="#C8B7E0" stop-opacity="0.289"/><stop offset="0.5915" stop-color="#A595C8" stop-opacity="0.592"/><stop offset="0.8395" stop-color="#8F81B8" stop-opacity="0.84"/><stop offset="1" stop-color="#8779B3"/></linearGradient><radialGradient id="b" cx="0" cy="0" r="1" gradientTransform="translate(30.575 24.35)scale(10.7717)" gradientUnits="userSpaceOnUse"><stop stop-color="#FF7044"/><stop offset="0.2389" stop-color="#FF6C41"/><stop offset="0.473" stop-color="#FE603A"/><stop offset="0.7053" stop-color="#FC4D2C"/><stop offset="0.9351" stop-color="#FA311A"/><stop offset="1" stop-color="#F92814"/></radialGradient><clipPath id="a"><path fill="#fff" d="M18 17h32v32H18z"/></clipPath></defs></svg>