<svg xmlns="http://www.w3.org/2000/svg" width="67" height="67" fill="none" viewBox="0 0 67 67"><rect width="67" height="67" fill="#E8FFEA" rx="4"/><g clip-path="url(#a)"><path fill="url(#b)" d="m33.239 32.414-7.405 12.97a.303.303 0 0 1-.418.107A15.26 15.26 0 0 1 18 32.414c0-8.36 6.879-15.238 15.239-15.238 8.256 0 15.068 6.71 15.235 14.929a.3.3 0 0 1-.302.31z"/><path fill="url(#c)" d="M33.24 32.415 26.17 44.8a14.23 14.23 0 0 1-7.186-12.384c0-7.82 6.435-14.255 14.255-14.255s14.256 6.435 14.256 14.255z"/><path fill="url(#d)" d="M33.239 29.279c5.107 0 9.246-2.407 9.246-5.375s-4.14-5.375-9.246-5.375-9.247 2.407-9.247 5.375 4.14 5.375 9.247 5.375"/><path fill="url(#e)" d="M40.068 18.813a15.2 15.2 0 0 1 1.593 6.786c0 2.45-.58 4.764-1.606 6.815h8.42q0-.178-.004-.356l-.002-.077c-.163-5.729-3.554-10.708-8.4-13.169"/><path fill="url(#f)" d="M46.74 42.74a15.17 15.17 0 0 0 3.257-9.199.217.217 0 0 0-.217-.219H35.543a.277.277 0 0 0-.174.493l11.064 8.958a.217.217 0 0 0 .307-.033"/><path fill="url(#g)" d="M49.992 33.902H37.676a.277.277 0 0 0-.174.493l9.645 7.81a15.16 15.16 0 0 0 2.845-8.303"/><path fill="url(#h)" d="M49.784 33.322h-1.121a15.3 15.3 0 0 1-2.097 2.903 15.2 15.2 0 0 1-4.222 3.234l4.093 3.314a.217.217 0 0 0 .307-.033 15.17 15.17 0 0 0 3.258-9.199.217.217 0 0 0-.218-.219"/><path fill="url(#i)" d="M45.277 33.322a12 12 0 0 1-2.499 6.493l-7.41-6a.277.277 0 0 1 .175-.493z"/><path fill="url(#j)" d="m33.472 33.868-7.256 12.71a.28.28 0 0 0 .11.382 15.2 15.2 0 0 0 7.307 1.864c4.68 0 8.866-2.11 11.662-5.43a.28.28 0 0 0-.037-.396L33.887 33.79a.277.277 0 0 0-.415.078"/><path fill="url(#k)" d="M33.627 48.824a15.2 15.2 0 0 0 11.424-5.155l-10.698-8.662a.277.277 0 0 0-.415.078l-6.97 12.209a15.2 15.2 0 0 0 6.659 1.53"/><path fill="url(#l)" d="m45.258 42.998-3.586-2.904c-2.85 4.04-7.553 6.678-12.873 6.678-.876 0-1.736-.073-2.573-.21l-.01.016a.28.28 0 0 0 .11.382 15.2 15.2 0 0 0 7.307 1.863c4.68 0 8.866-2.11 11.661-5.43a.28.28 0 0 0-.036-.395"/><path fill="url(#m)" d="M42.195 40.517a12.05 12.05 0 0 1-8.954 3.972c-1.85 0-3.603-.416-5.17-1.16l5.4-9.461a.277.277 0 0 1 .416-.077z"/><path fill="url(#n)" d="M33.237 40.55a8.135 8.135 0 1 0 0-16.27 8.135 8.135 0 0 0 0 16.27"/><path fill="url(#o)" d="M33.235 40.025a7.61 7.61 0 1 0 0-15.22 7.61 7.61 0 0 0 0 15.22"/><path fill="url(#p)" d="M33.24 30.74c2.727 0 4.937-1.284 4.937-2.869 0-1.584-2.21-2.869-4.936-2.869s-4.936 1.285-4.936 2.87c0 1.584 2.21 2.868 4.936 2.868"/><path fill="url(#q)" d="M36.877 25.137a8.135 8.135 0 0 1-10.916 10.916 8.135 8.135 0 1 0 10.916-10.916"/><path fill="url(#r)" d="M40.35 36.369a8.15 8.15 0 0 1-4.47 3.743l-4.847-4.846-2.682-2.682q-.578-.477-.578-1.506v-2.086q0-1.029.578-1.506.577-.478 1.56-.478.975 0 1.564.478l2.217 2.218z"/><path fill="url(#s)" d="M41.371 32.414a8.1 8.1 0 0 1-1.024 3.954 8.15 8.15 0 0 1-4.47 3.743 8.1 8.1 0 0 1-3.328.409l-2.36-2.339a.76.76 0 0 1-.236-.536q0-.132.072-.28l1.005-2.1 2.659-5.562 1.402-2.931q.173-.368.606-.368a.92.92 0 0 1 .784.443l4.86 4.86q.03.35.03.707"/><path fill="url(#t)" d="M38.116 32.216q-.588-.477-1.564-.478-.984 0-1.56.478-.578.477-.578 1.506v2.086q0 1.029.577 1.507c.007.005.936.934 2.208 2.205a8.16 8.16 0 0 0 3.74-4.479z"/><path fill="url(#u)" d="M32.064 31.078v-2.087q0-1.027-.588-1.506-.589-.477-1.565-.477-.983 0-1.56.477-.578.478-.578 1.506v2.087q0 1.029.578 1.506.577.478 1.56.478.975 0 1.565-.478.588-.477.588-1.506m-1.41 0q0 .705-.743.705-.727 0-.727-.705v-2.087q0-.705.727-.705.742 0 .742.705z"/><path fill="url(#v)" d="M36.565 27.183a.69.69 0 0 0-.272-.558.93.93 0 0 0-.596-.22q-.433 0-.606.367l-5.066 10.594a.6.6 0 0 0-.072.279q0 .294.236.536a.8.8 0 0 0 .588.243q.477 0 .65-.368l5.08-10.594a.6.6 0 0 0 .058-.279"/><path fill="url(#w)" d="M38.116 32.216q-.588-.477-1.564-.478-.984 0-1.56.478-.578.477-.578 1.506v2.086q0 1.029.577 1.507.577.477 1.561.477.976 0 1.564-.477t.589-1.507v-2.086q0-1.029-.589-1.506m-.822 3.592q0 .706-.742.706-.727 0-.727-.706v-2.086q0-.705.727-.705.742 0 .742.705z"/></g><defs><linearGradient id="c" x1="33.2107" x2="20.0323" y1="32.4128" y2="19.2344" gradientUnits="userSpaceOnUse"><stop stop-color="#FFDA45" stop-opacity="0"/><stop offset="1" stop-color="#FCEE21"/></linearGradient><linearGradient id="d" x1="34.2466" x2="31.4756" y1="28.1728" y2="16.4354" gradientUnits="userSpaceOnUse"><stop stop-color="#FFDA45" stop-opacity="0"/><stop offset="1" stop-color="#fff"/></linearGradient><linearGradient id="e" x1="42.4172" x2="50.6566" y1="29.0627" y2="13.7385" gradientUnits="userSpaceOnUse"><stop stop-color="#FFDA45" stop-opacity="0"/><stop offset="1" stop-color="#B53759"/></linearGradient><linearGradient id="f" x1="41.9564" x2="49.3682" y1="32.9357" y2="40.0321" gradientUnits="userSpaceOnUse"><stop stop-color="#FF7044"/><stop offset="1" stop-color="#F92814"/></linearGradient><linearGradient id="g" x1="44.6262" x2="42.5761" y1="39.3541" y2="27.6846" gradientUnits="userSpaceOnUse"><stop stop-color="#FF7044" stop-opacity="0"/><stop offset="1" stop-color="#FFA425"/></linearGradient><linearGradient id="h" x1="45.9677" x2="52.7975" y1="38.6943" y2="25.9918" gradientUnits="userSpaceOnUse"><stop stop-color="#F92814" stop-opacity="0"/><stop offset="1" stop-color="#C1272D"/></linearGradient><linearGradient id="k" x1="34.7558" x2="27.344" y1="43.5737" y2="32.2983" gradientUnits="userSpaceOnUse"><stop stop-color="#18CFFC" stop-opacity="0"/><stop offset="1" stop-color="#65E1DC"/></linearGradient><linearGradient id="l" x1="37.1994" x2="52.4172" y1="43.568" y2="28.2714" gradientUnits="userSpaceOnUse"><stop stop-color="#0469BC" stop-opacity="0"/><stop offset="1" stop-color="#0469BC"/></linearGradient><linearGradient id="n" x1="25.1016" x2="41.3715" y1="32.4143" y2="32.4143" gradientUnits="userSpaceOnUse"><stop stop-color="#F9F7FC"/><stop offset="1" stop-color="#F0DDFC"/></linearGradient><linearGradient id="o" x1="33.38" x2="26.2442" y1="32.4932" y2="28.6296" gradientUnits="userSpaceOnUse"><stop stop-color="#E9EDF5" stop-opacity="0"/><stop offset="1" stop-color="#fff"/></linearGradient><linearGradient id="p" x1="33.2409" x2="33.2409" y1="29.9699" y2="25.4277" gradientUnits="userSpaceOnUse"><stop stop-color="#E9EDF5" stop-opacity="0"/><stop offset="1" stop-color="#fff"/></linearGradient><linearGradient id="q" x1="34.1503" x2="53.2317" y1="33.7661" y2="24.3043" gradientUnits="userSpaceOnUse"><stop stop-color="#F0DDFC" stop-opacity="0"/><stop offset="0.2889" stop-color="#C8B7E0" stop-opacity="0.289"/><stop offset="0.5915" stop-color="#A595C8" stop-opacity="0.592"/><stop offset="0.8395" stop-color="#8F81B8" stop-opacity="0.84"/><stop offset="1" stop-color="#8779B3"/></linearGradient><linearGradient id="r" x1="33.7409" x2="24.6339" y1="33.8451" y2="27.0641" gradientUnits="userSpaceOnUse"><stop stop-color="#F0DDFC" stop-opacity="0"/><stop offset="0.2889" stop-color="#C8B7E0" stop-opacity="0.289"/><stop offset="0.5915" stop-color="#A595C8" stop-opacity="0.592"/><stop offset="0.8395" stop-color="#8F81B8" stop-opacity="0.84"/><stop offset="1" stop-color="#8779B3"/></linearGradient><linearGradient id="s" x1="36.1595" x2="30.6401" y1="34.4795" y2="31.5621" gradientUnits="userSpaceOnUse"><stop stop-color="#F0DDFC" stop-opacity="0"/><stop offset="0.2889" stop-color="#C8B7E0" stop-opacity="0.289"/><stop offset="0.5915" stop-color="#A595C8" stop-opacity="0.592"/><stop offset="0.8395" stop-color="#8F81B8" stop-opacity="0.84"/><stop offset="1" stop-color="#8779B3"/></linearGradient><linearGradient id="t" x1="39.7873" x2="33.0457" y1="36.8198" y2="33.7053" gradientUnits="userSpaceOnUse"><stop stop-color="#F0DDFC" stop-opacity="0"/><stop offset="0.2889" stop-color="#C8B7E0" stop-opacity="0.289"/><stop offset="0.5915" stop-color="#A595C8" stop-opacity="0.592"/><stop offset="0.8395" stop-color="#8F81B8" stop-opacity="0.84"/><stop offset="1" stop-color="#8779B3"/></linearGradient><linearGradient id="u" x1="29.9191" x2="31.9166" y1="30.0392" y2="39.3433" gradientUnits="userSpaceOnUse"><stop stop-color="#7E8595"/><stop offset="1" stop-color="#555A66"/></linearGradient><linearGradient id="v" x1="32.6248" x2="34.6224" y1="29.4565" y2="38.7607" gradientUnits="userSpaceOnUse"><stop stop-color="#7E8595"/><stop offset="1" stop-color="#555A66"/></linearGradient><linearGradient id="w" x1="35.2961" x2="37.2936" y1="28.8836" y2="38.1879" gradientUnits="userSpaceOnUse"><stop stop-color="#7E8595"/><stop offset="1" stop-color="#555A66"/></linearGradient><radialGradient id="b" cx="0" cy="0" r="1" gradientTransform="translate(28.147 24.551)scale(20.8358)" gradientUnits="userSpaceOnUse"><stop stop-color="#FFDA45"/><stop offset="0.3043" stop-color="#FFCE3E"/><stop offset="0.8558" stop-color="#FFAE2B"/><stop offset="1" stop-color="#FFA425"/></radialGradient><radialGradient id="i" cx="0" cy="0" r="1" gradientTransform="matrix(7.64023 0 0 7.64021 35.286 33.124)" gradientUnits="userSpaceOnUse"><stop stop-color="#C1272D"/><stop offset="0.5053" stop-color="#C3272C" stop-opacity="0.495"/><stop offset="0.6873" stop-color="#CA2729" stop-opacity="0.313"/><stop offset="0.817" stop-color="#D52724" stop-opacity="0.183"/><stop offset="0.9211" stop-color="#E6281C" stop-opacity="0.079"/><stop offset="1" stop-color="#F92814" stop-opacity="0"/></radialGradient><radialGradient id="j" cx="0" cy="0" r="1" gradientTransform="translate(33.241 33.675)scale(15.1613)" gradientUnits="userSpaceOnUse"><stop stop-color="#18CFFC"/><stop offset="1" stop-color="#4A98F7"/></radialGradient><radialGradient id="m" cx="0" cy="0" r="1" gradientTransform="matrix(7.73107 0 0 7.73106 34.147 34.575)" gradientUnits="userSpaceOnUse"><stop stop-color="#0469BC"/><stop offset="0.8532" stop-color="#0469BC" stop-opacity="0.147"/><stop offset="1" stop-color="#0469BC" stop-opacity="0"/></radialGradient><clipPath id="a"><path fill="#fff" d="M18 17h32v32H18z"/></clipPath></defs></svg>