<svg xmlns="http://www.w3.org/2000/svg" width="67" height="67" fill="none" viewBox="0 0 67 67"><rect width="67" height="67" fill="#EEE8FF" rx="4"/><g clip-path="url(#a)"><path fill="url(#b)" d="M49.112 43.833H18.888a.89.89 0 0 1-.888-.888V27.169c0-.49.398-.888.888-.888h30.224c.49 0 .888.398.888.888v15.776c0 .49-.398.888-.888.888"/><path fill="url(#c)" d="M48.458 43.225h-28.91a.837.837 0 0 1-.837-.837v-14.66c0-.463.375-.837.837-.837h28.91c.463 0 .838.375.838.837v14.66a.84.84 0 0 1-.838.837"/><path fill="url(#d)" d="M47.316 31.65a2.684 2.684 0 0 1-2.677-2.865.497.497 0 0 0-.496-.531H23.857a.497.497 0 0 0-.495.53q.006.09.006.182a2.684 2.684 0 0 1-2.684 2.684h-.005a.5.5 0 0 0-.507.497v5.822a.5.5 0 0 0 .507.497h.005a2.684 2.684 0 0 1 2.678 2.865c-.02.287.207.53.495.53h20.286a.497.497 0 0 0 .495-.53 2.684 2.684 0 0 1 2.678-2.865h.006a.5.5 0 0 0 .506-.497v-5.822a.5.5 0 0 0-.507-.497z"/><path fill="url(#e)" d="M33.997 41.171a6.114 6.114 0 1 0 0-12.228 6.114 6.114 0 0 0 0 12.228"/><path fill="url(#f)" d="M36.4 31.366q-.14-.217-.541-.363a4.2 4.2 0 0 0-.923-.212.4.4 0 0 0-.053-.03l-.483-.517a.4.4 0 0 0-.245-.084.37.37 0 0 0-.245.084q-.102.084-.102.191v.347q-.969.108-1.62.646t-.652 1.577q0 .37.083.674.084.305.275.531.192.227.365.388l.003.003 1.504 1.504.042.044v2a2.1 2.1 0 0 1-.934-.275 4 4 0 0 1-.634-.447q-.23-.21-.373-.209-.215 0-.38.227a.76.76 0 0 0-.167.453q0 .363.409.715l5.22 5.22h11.918z"/><path fill="url(#g)" d="M31.32 37.898q0-.226.167-.453.165-.227.38-.227.142 0 .373.209.23.21.634.447.404.24.934.275v-2.805a18 18 0 0 1-.55-.209 11 11 0 0 1-.509-.226 2 2 0 0 1-.49-.31 4 4 0 0 1-.365-.388 1.4 1.4 0 0 1-.275-.532 2.5 2.5 0 0 1-.083-.674q0-1.039.651-1.577.653-.538 1.62-.646v-.347q0-.107.102-.191a.37.37 0 0 1 .246-.084q.13 0 .245.084.113.084.114.191v.323q.729.024 1.345.245.615.222.616.616a.85.85 0 0 1-.145.449q-.144.233-.386.233-.095 0-.524-.203a2.5 2.5 0 0 0-.907-.24v2.424q.477.18.791.34.316.162.666.448.351.285.53.722.178.435.178 1.02 0 1.07-.583 1.699-.583.63-1.581.774v.4q0 .105-.114.188a.41.41 0 0 1-.49 0q-.102-.083-.102-.188v-.364q-1.041-.012-1.764-.476t-.724-.947m1.4-5.012q0 .465.29.71t.87.46V31.88q-1.16.143-1.16 1.005m1.722 5.24q1.052-.192 1.052-1.182 0-.525-.275-.824t-.777-.513z"/><path fill="#4AB272" d="M24.708 35.729h-3.212a.254.254 0 0 1-.254-.254v-.835c0-.14.114-.253.254-.253h3.212c.14 0 .254.113.254.253v.835c0 .14-.114.254-.254.254m1.826 0h-.554a.254.254 0 0 1-.253-.254v-.835c0-.14.113-.253.253-.253h.554c.14 0 .254.113.254.253v.835c0 .14-.114.254-.254.254m16.938 0h-2.008a.254.254 0 0 1-.253-.254v-.835c0-.14.113-.253.254-.253h2.007c.14 0 .254.113.254.253v.835c0 .14-.114.254-.254.254m3.032 0h-1.782a.254.254 0 0 1-.253-.254v-.835c0-.14.113-.253.253-.253h1.782c.14 0 .253.113.253.253v.835c0 .14-.113.254-.253.254"/><path fill="url(#h)" d="M28.862 26.281h-8.96l-.204.204c-.46.46-.27 1.188.253 1.427.086.184 1.073 1.179 1.254 1.269v4.498q0 .104.031.166c.049.1 7.05 6.99 10.099 9.988h15.078z"/><path fill="url(#i)" d="M49.998 27.17a.89.89 0 0 0-.888-.889h-8.67v1.004a.883.883 0 0 1-.883.883c-.787 0-1.18.95-.625 1.507l.207.207L50 40.741z"/><path fill="url(#j)" d="m40.44 27.284-.001-4.804c0-.352.285-.313.638-.313h5.076c.352.001.638-.039.638.313v4.805c0 .487.395.883.883.883.787 0 1.18.95.624 1.507l-4.058 4.058a.883.883 0 0 1-1.248 0l-4.06-4.059c-.556-.556-.162-1.507.624-1.507a.883.883 0 0 0 .883-.883"/><path fill="url(#k)" d="M46.073 22.887v4.399c0 .883.72 1.6 1.602 1.601q.11 0 .152.102a.15.15 0 0 1-.035.18l-4.059 4.058a.16.16 0 0 1-.116.048.16.16 0 0 1-.117-.048l-4.059-4.06a.15.15 0 0 1-.036-.179.15.15 0 0 1 .153-.102c.882 0 1.6-.718 1.6-1.6v-4.4z"/><path fill="url(#l)" d="M41.077 22.167c-.353 0-.638-.04-.638.313v4.804a.883.883 0 0 1-.883.883c-.786 0-1.18.95-.624 1.507l4.06 4.06a.88.88 0 0 0 .624.258l-.001-11.824z"/><path fill="url(#m)" d="M27.557 28.873v4.805c-.001.352-.287.312-.639.312h-5.076c-.352 0-.638.04-.637-.312v-4.804a.883.883 0 0 0-.883-.883c-.787 0-1.18-.95-.624-1.507l4.059-4.06a.883.883 0 0 1 1.249 0l4.058 4.059c.556.556.162 1.507-.625 1.507a.883.883 0 0 0-.883.883"/><path fill="url(#n)" d="M21.924 33.273v-4.399c0-.883-.718-1.6-1.6-1.6a.15.15 0 0 1-.153-.102.15.15 0 0 1 .036-.18l4.059-4.059a.16.16 0 0 1 .116-.048c.031 0 .077.008.117.048l4.058 4.058a.15.15 0 0 1 .036.18.15.15 0 0 1-.152.102c-.883 0-1.601.718-1.602 1.601v4.399z"/><path fill="url(#o)" d="M26.92 33.992c.353 0 .639.04.639-.313v-4.804c0-.487.395-.883.883-.883.787 0 1.18-.951.625-1.507l-4.059-4.058a.88.88 0 0 0-.624-.259l-.001 11.824z"/></g><defs><linearGradient id="b" x1="32.3186" x2="41.2904" y1="30.8032" y2="53.5012" gradientUnits="userSpaceOnUse"><stop stop-color="#4AB272"/><stop offset="1" stop-color="#077565"/></linearGradient><linearGradient id="c" x1="35.3529" x2="18.0994" y1="37.9609" y2="0.846638" gradientUnits="userSpaceOnUse"><stop stop-color="#92F37F" stop-opacity="0"/><stop offset="1" stop-color="#FFEE83"/></linearGradient><linearGradient id="d" x1="32.8921" x2="37.8894" y1="31.6967" y2="46.8551" gradientUnits="userSpaceOnUse"><stop stop-color="#92F37F"/><stop offset="1" stop-color="#4AB272"/></linearGradient><linearGradient id="e" x1="38.6867" x2="20.2877" y1="38.1057" y2="26.1464" gradientUnits="userSpaceOnUse"><stop stop-color="#92F37F"/><stop offset="1" stop-color="#4AB272"/></linearGradient><linearGradient id="f" x1="38.3114" x2="25.3776" y1="38.1998" y2="32.4742" gradientUnits="userSpaceOnUse"><stop stop-color="#4AB272" stop-opacity="0"/><stop offset="1" stop-color="#009245"/></linearGradient><linearGradient id="g" x1="33.4182" x2="38.4281" y1="34.5337" y2="37.9078" gradientUnits="userSpaceOnUse"><stop stop-color="#4AB272"/><stop offset="1" stop-color="#077565"/></linearGradient><linearGradient id="h" x1="32.4453" x2="23.2845" y1="36.4897" y2="20.8871" gradientUnits="userSpaceOnUse"><stop stop-color="#4AB272" stop-opacity="0"/><stop offset="1" stop-color="#009245"/></linearGradient><linearGradient id="i" x1="52.0453" x2="42.5029" y1="35.8182" y2="26.2759" gradientUnits="userSpaceOnUse"><stop stop-color="#4AB272" stop-opacity="0"/><stop offset="1" stop-color="#009245"/></linearGradient><linearGradient id="j" x1="46.1373" x2="38.9232" y1="28.9255" y2="23.7199" gradientUnits="userSpaceOnUse"><stop stop-color="#FF7044"/><stop offset="1" stop-color="#F92814"/></linearGradient><linearGradient id="k" x1="42.3711" x2="50.5763" y1="26.9264" y2="30.7852" gradientUnits="userSpaceOnUse"><stop stop-color="#FF7044" stop-opacity="0"/><stop offset="1" stop-color="#FFA425"/></linearGradient><linearGradient id="l" x1="41.446" x2="49.1009" y1="29.041" y2="17.6309" gradientUnits="userSpaceOnUse"><stop stop-color="#F92814" stop-opacity="0"/><stop offset="1" stop-color="#C1272D"/></linearGradient><linearGradient id="m" x1="21.8589" x2="29.0717" y1="27.2328" y2="32.4375" gradientUnits="userSpaceOnUse"><stop stop-color="#FFDA45"/><stop offset="1" stop-color="#FFA425"/></linearGradient><linearGradient id="n" x1="25.6264" x2="17.4227" y1="29.2333" y2="25.3752" gradientUnits="userSpaceOnUse"><stop stop-color="#FFDA45" stop-opacity="0"/><stop offset="1" stop-color="#FFEE83"/></linearGradient><linearGradient id="o" x1="26.5527" x2="18.8968" y1="27.1186" y2="38.5302" gradientUnits="userSpaceOnUse"><stop stop-color="#FFDA45" stop-opacity="0"/><stop offset="1" stop-color="#B53759"/></linearGradient><clipPath id="a"><path fill="#fff" d="M18 17h32v32H18z"/></clipPath></defs></svg>