<svg xmlns="http://www.w3.org/2000/svg" width="67" height="67" fill="none" viewBox="0 0 67 67"><rect width="67" height="67" fill="#E8F5FF" rx="4"/><g clip-path="url(#a)"><path fill="url(#b)" d="M49.002 39.542H18.998a1 1 0 0 1-.998-.998V18.138c0-.55.447-.997.998-.997h30.004c.551 0 .998.446.998.997v20.406a1 1 0 0 1-.998.998"/><path fill="url(#c)" d="M48.502 39.037H19.505a.96.96 0 0 1-.958-.959V18.605c0-.53.429-.959.958-.959h28.997c.529 0 .958.43.958.959v19.473c0 .53-.429.959-.958.959"/><path fill="url(#d)" d="M47.655 38.065H20.348a.8.8 0 0 1-.802-.802v-17.84c0-.443.359-.802.802-.802h27.306c.442 0 .802.36.802.802v17.84c0 .443-.36.802-.803.802"/><path fill="url(#e)" d="M22.143 18.621h-1.794a.8.8 0 0 0-.802.802v17.84c0 .443.359.802.802.802h1.794z"/><path fill="url(#f)" d="M47.655 18.621H20.348a.8.8 0 0 0-.802.802v1.453h28.91v-1.453a.8.8 0 0 0-.803-.802"/><path fill="url(#g)" d="M20.288 38.064h27.305c.443 0 .802-.36.802-.803V19.422a.8.8 0 0 0-.223-.555l-28.57 18.808a.8.8 0 0 0 .686.389"/><path fill="url(#h)" d="M39.875 25.174v14.37H49a1 1 0 0 0 .998-.998v-3.25z"/><path fill="url(#i)" d="M46.18 36.424H21.822a.69.69 0 0 1-.69-.69V20.95a.69.69 0 0 1 .69-.69h24.356a.69.69 0 0 1 .69.69v14.784a.69.69 0 0 1-.69.69"/><path fill="url(#j)" d="M39.875 25.174v11.251h6.301a.69.69 0 0 0 .69-.69v-3.57z"/><path fill="url(#k)" d="M34.001 41.67a9.274 9.274 0 1 0 0-18.549 9.274 9.274 0 0 0 0 18.549"/><path fill="url(#l)" d="M33.996 41.073a8.676 8.676 0 1 0 0-17.352 8.676 8.676 0 0 0 0 17.352"/><path fill="url(#m)" d="M38.148 24.1a9.274 9.274 0 0 1-12.445 12.445A9.274 9.274 0 1 0 38.148 24.1"/><path fill="url(#n)" d="M34.003 30.433c3.108 0 5.627-1.465 5.627-3.271 0-1.807-2.52-3.271-5.627-3.271-3.108 0-5.628 1.464-5.628 3.27s2.52 3.272 5.628 3.272"/><path fill="#555A66" d="M41.535 26.988a7.78 7.78 0 0 0-4.974-1.799h-.057c-1.103 0-2.188-.154-3.235-.457a11.3 11.3 0 0 1 2.67-1.406 9 9 0 0 0-1.395-.187q-1.063.519-2.011 1.24l-.097.076a11.6 11.6 0 0 1-1.64-.764 9 9 0 0 0-.821.349c.583.364 1.196.68 1.83.94a12 12 0 0 0-1.511 1.617l-.04.051a16 16 0 0 0-2.958-.659 9 9 0 0 0-.574.661c1.05.1 2.087.306 3.09.614a12 12 0 0 0-1.182 2.23 3.6 3.6 0 0 0-2.706.55 3.64 3.64 0 0 0-1.127 1.204 9.4 9.4 0 0 0 .15 3.16c.014-.279.046-.87.096-1.556a2.9 2.9 0 0 1 1.283-2.211 2.87 2.87 0 0 1 2.052-.46 12.11 12.11 0 0 0 1.369 10.459q.622.322 1.295.549a11.38 11.38 0 0 1-1.969-10.817 6.56 6.56 0 0 1 4.3 5.559c.074.788.17 1.355.284 1.684a9.94 9.94 0 0 0 2.42 3.823q.413-.095.81-.225a9.2 9.2 0 0 1-2.55-3.834c-.093-.266-.18-.805-.247-1.515a7.28 7.28 0 0 0-4.766-6.167 11.3 11.3 0 0 1 1.198-2.196c5.094 1.836 8.896 6.216 9.973 11.517q.313-.307.595-.642c-1.24-5.25-5.05-9.572-10.116-11.476a11.4 11.4 0 0 1 1.6-1.631c1.263.425 2.584.64 3.93.64h.057a7.02 7.02 0 0 1 5.663 2.856l.524.718.049-.035a9.3 9.3 0 0 0-1.262-2.46"/><path fill="url(#o)" d="M32.575 25.269c1.264.424 2.585.64 3.93.64h.058c1.793 0 3.505.683 4.788 1.873a8.7 8.7 0 0 0-1.66-1.936 7.8 7.8 0 0 0-3.128-.657h-.057a11.6 11.6 0 0 1-3.235-.457q.776-.552 1.63-.965a9 9 0 0 0-1.436-.03q-.48.3-.93.642l-.097.076q-.456-.17-.897-.38-.478.142-.93.334.583.318 1.196.572a12 12 0 0 0-1.511 1.616l-.04.051a16 16 0 0 0-2.221-.548 9 9 0 0 0-.605.634c.809.114 1.607.29 2.384.53a12 12 0 0 0-1.182 2.23 3.59 3.59 0 0 0-3.05.811 8.7 8.7 0 0 0-.23 1.435c.221-.438.554-.816.976-1.1a2.87 2.87 0 0 1 2.052-.46 12.1 12.1 0 0 0 .744 9.39q.592.406 1.25.709a11.39 11.39 0 0 1-1.3-9.907 6.56 6.56 0 0 1 4.301 5.559c.074.788.17 1.355.283 1.684a9.9 9.9 0 0 0 1.938 3.311q.408-.076.803-.189a9.2 9.2 0 0 1-2.06-3.358c-.093-.267-.18-.805-.247-1.515a7.28 7.28 0 0 0-4.766-6.167c.316-.773.718-1.51 1.198-2.197a15.59 15.59 0 0 1 9.814 10.823q.3-.32.566-.669A16.31 16.31 0 0 0 30.976 26.9a11.4 11.4 0 0 1 1.6-1.63"/><path fill="url(#p)" d="M36.56 25.19h-.057a11.6 11.6 0 0 1-3.235-.458q.646-.458 1.346-.822a10 10 0 0 0-1.443.016q-.325.216-.639.454l-.096.076a12 12 0 0 1-.7-.29 7.4 7.4 0 0 0-.98.323q.513.27 1.049.492a12 12 0 0 0-1.512 1.617l-.039.05a16 16 0 0 0-1.64-.435 2.1 2.1 0 0 0-.223.688q.72.15 1.42.363-.452.674-.81 1.4.239.268.556.505c.273-.581.595-1.14.965-1.668a15.6 15.6 0 0 1 4.857 2.833q.46-.067.886-.177a16.3 16.3 0 0 0-5.291-3.257 11.4 11.4 0 0 1 1.599-1.63 12.3 12.3 0 0 0 3.93.64h.058c1.041 0 2.055.23 2.974.657a2.6 2.6 0 0 0-.637-1.018 7.8 7.8 0 0 0-2.337-.36"/><path fill="url(#q)" d="M42.797 29.445a10 10 0 0 0-.113-.316l-.012-.031-.05-.128-.013-.034-.051-.124-.015-.035-.053-.123-.015-.033-.058-.127-.012-.027-.065-.135-.008-.017a9 9 0 0 0-.326-.605l-.001-.003a9 9 0 0 0-.173-.282l-.019-.03-.072-.11-.023-.034-.167-.242-.016-.022a7.8 7.8 0 0 0-2.824-1.495q.126.405.216.825a6.97 6.97 0 0 1 3.298 2.447l.524.719.048-.036z"/><path fill="url(#r)" d="M33.998 48.858c-.568 0-1.05-.438-1.094-1.014a10.93 10.93 0 0 0-5.491-8.654 1.098 1.098 0 0 1 1.09-1.906 13.13 13.13 0 0 1 6.59 10.391 1.1 1.1 0 0 1-1.095 1.183"/><path fill="url(#s)" d="M29.655 48.858a1.1 1.1 0 0 1-1.094-1.014 10.93 10.93 0 0 0-5.492-8.654 1.098 1.098 0 1 1 1.09-1.907 13.13 13.13 0 0 1 6.592 10.392 1.1 1.1 0 0 1-1.096 1.183"/><path fill="url(#t)" d="M38.35 48.858a1.1 1.1 0 0 1-1.094-1.014 10.94 10.94 0 0 0-5.492-8.654 1.098 1.098 0 1 1 1.09-1.906 13.13 13.13 0 0 1 6.591 10.391 1.1 1.1 0 0 1-1.096 1.183"/><path fill="url(#u)" d="M34.006 48.858q-.043 0-.086-.003a1.1 1.1 0 0 1-1.01-1.18 13.13 13.13 0 0 1 6.59-10.391 1.098 1.098 0 1 1 1.09 1.906 10.94 10.94 0 0 0-5.491 8.654 1.1 1.1 0 0 1-1.093 1.014"/><path fill="url(#v)" d="M38.35 48.858q-.044 0-.087-.003a1.1 1.1 0 0 1-1.01-1.18 13.13 13.13 0 0 1 6.593-10.392 1.098 1.098 0 0 1 1.09 1.907 10.93 10.93 0 0 0-5.493 8.654 1.1 1.1 0 0 1-1.094 1.014"/><path fill="url(#w)" d="M29.654 48.858q-.043 0-.086-.003a1.1 1.1 0 0 1-1.01-1.18 13.13 13.13 0 0 1 6.591-10.391 1.098 1.098 0 1 1 1.09 1.906 10.94 10.94 0 0 0-5.491 8.654 1.1 1.1 0 0 1-1.094 1.014"/><path fill="url(#x)" d="M44.34 39.543H23.666a1.267 1.267 0 1 1 0-2.535H44.34a1.267 1.267 0 1 1 0 2.534"/></g><defs><linearGradient id="b" x1="32.0474" x2="42.4663" y1="23.4013" y2="49.7603" gradientUnits="userSpaceOnUse"><stop stop-color="#F9F7FC"/><stop offset="1" stop-color="#F0DDFC"/></linearGradient><linearGradient id="c" x1="47.18" x2="9.47644" y1="41.518" y2="3.81452" gradientUnits="userSpaceOnUse"><stop stop-color="#F9F7FC"/><stop offset="1" stop-color="#F0DDFC"/></linearGradient><linearGradient id="d" x1="32.2792" x2="41.4706" y1="23.9849" y2="47.2384" gradientUnits="userSpaceOnUse"><stop stop-color="#FF7044"/><stop offset="1" stop-color="#F92814"/></linearGradient><linearGradient id="e" x1="21.3273" x2="18.8167" y1="28.3429" y2="28.3429" gradientUnits="userSpaceOnUse"><stop stop-color="#F92814" stop-opacity="0"/><stop offset="1" stop-color="#C1272D"/></linearGradient><linearGradient id="f" x1="34.0018" x2="34.0018" y1="20.4997" y2="17.8459" gradientUnits="userSpaceOnUse"><stop stop-color="#F92814" stop-opacity="0"/><stop offset="1" stop-color="#C1272D"/></linearGradient><linearGradient id="g" x1="35.9647" x2="42.9456" y1="29.7218" y2="2.03901" gradientUnits="userSpaceOnUse"><stop stop-color="#F92814" stop-opacity="0"/><stop offset="1" stop-color="#C1272D"/></linearGradient><linearGradient id="h" x1="47.4392" x2="39.9934" y1="38.8181" y2="32.46" gradientUnits="userSpaceOnUse"><stop stop-color="#F92814" stop-opacity="0"/><stop offset="1" stop-color="#C1272D"/></linearGradient><linearGradient id="i" x1="32.5318" x2="40.3723" y1="24.6244" y2="44.4601" gradientUnits="userSpaceOnUse"><stop stop-color="#F9F7FC"/><stop offset="1" stop-color="#F0DDFC"/></linearGradient><linearGradient id="j" x1="48.8912" x2="35.8402" y1="38.8333" y2="27.2045" gradientUnits="userSpaceOnUse"><stop stop-color="#F0DDFC" stop-opacity="0"/><stop offset="0.2889" stop-color="#C8B7E0" stop-opacity="0.289"/><stop offset="0.5915" stop-color="#A595C8" stop-opacity="0.592"/><stop offset="0.8395" stop-color="#8F81B8" stop-opacity="0.84"/><stop offset="1" stop-color="#8779B3"/></linearGradient><linearGradient id="k" x1="24.7266" x2="43.2754" y1="32.3955" y2="32.3955" gradientUnits="userSpaceOnUse"><stop stop-color="#FF7044"/><stop offset="1" stop-color="#F92814"/></linearGradient><linearGradient id="l" x1="35.0318" x2="25.6243" y1="33.4322" y2="24.0247" gradientUnits="userSpaceOnUse"><stop stop-color="#FF7044" stop-opacity="0"/><stop offset="1" stop-color="#FFA425"/></linearGradient><linearGradient id="m" x1="34.3215" x2="47.0696" y1="35.9503" y2="12.2406" gradientUnits="userSpaceOnUse"><stop stop-color="#F92814" stop-opacity="0"/><stop offset="1" stop-color="#C1272D"/></linearGradient><linearGradient id="n" x1="34.6159" x2="32.9295" y1="29.7598" y2="22.6163" gradientUnits="userSpaceOnUse"><stop stop-color="#F45227" stop-opacity="0"/><stop offset="1" stop-color="#FFDA45"/></linearGradient><linearGradient id="o" x1="29.7146" x2="22.8362" y1="27.8399" y2="20.7375" gradientUnits="userSpaceOnUse"><stop stop-color="#BEC3D2" stop-opacity="0"/><stop offset="0.5577" stop-color="#D4D9E4" stop-opacity="0.558"/><stop offset="1" stop-color="#E9EDF5"/></linearGradient><linearGradient id="p" x1="34.0746" x2="33.2748" y1="27.8129" y2="20.1027" gradientUnits="userSpaceOnUse"><stop stop-color="#BEC3D2" stop-opacity="0"/><stop offset="0.5577" stop-color="#D4D9E4" stop-opacity="0.558"/><stop offset="1" stop-color="#E9EDF5"/></linearGradient><linearGradient id="q" x1="40.4381" x2="41.2298" y1="29.0216" y2="25.1345" gradientUnits="userSpaceOnUse"><stop stop-color="#555A66" stop-opacity="0"/><stop offset="1" stop-color="#333"/></linearGradient><linearGradient id="r" x1="26.8594" x2="35.097" y1="42.9983" y2="42.9983" gradientUnits="userSpaceOnUse"><stop stop-color="#4A98F7"/><stop offset="1" stop-color="#0469BC"/></linearGradient><linearGradient id="s" x1="22.5157" x2="30.7544" y1="42.9983" y2="42.9983" gradientUnits="userSpaceOnUse"><stop stop-color="#4A98F7"/><stop offset="1" stop-color="#0469BC"/></linearGradient><linearGradient id="t" x1="31.211" x2="39.4486" y1="42.9982" y2="42.9982" gradientUnits="userSpaceOnUse"><stop stop-color="#4A98F7"/><stop offset="1" stop-color="#0469BC"/></linearGradient><linearGradient id="u" x1="41.1438" x2="32.9062" y1="42.9982" y2="42.9982" gradientUnits="userSpaceOnUse"><stop stop-color="#4A98F7"/><stop offset="1" stop-color="#0469BC"/></linearGradient><linearGradient id="v" x1="45.4887" x2="37.25" y1="42.9982" y2="42.9982" gradientUnits="userSpaceOnUse"><stop stop-color="#4A98F7"/><stop offset="1" stop-color="#0469BC"/></linearGradient><linearGradient id="w" x1="36.7923" x2="28.5547" y1="42.9982" y2="42.9982" gradientUnits="userSpaceOnUse"><stop stop-color="#4A98F7"/><stop offset="1" stop-color="#0469BC"/></linearGradient><linearGradient id="x" x1="34.0028" x2="34.0028" y1="37.196" y2="39.6718" gradientUnits="userSpaceOnUse"><stop stop-color="#FFDA45"/><stop offset="1" stop-color="#FFA425"/></linearGradient><clipPath id="a"><path fill="#fff" d="M18 17h32v32H18z"/></clipPath></defs></svg>