<svg xmlns="http://www.w3.org/2000/svg" width="34" height="43" fill="none" viewBox="0 0 34 43"><g fill="#30BEAD" opacity="0.3"><path d="M14.444 4.884c.008.008.008.016.016.024.008 0 0-.008 0-.016-.008-.008-.008-.008-.016-.008"/><path d="M13.77 14.706c2.123.338 4.239-.638 5.19-2.607.75-1.542.96-3.253 1.018-4.947.065-1.986-.407-4.044-1.84-5.504C16.683.155 14.462-.451 12.509.365c-1.798.75-2.823 2.526-3.067 4.382a2.95 2.95 0 0 0-.367 1.186c-.187 1.937-.17 3.81.643 5.617.7 1.566 2.344 2.89 4.052 3.156m.83-9.71c.032.05-.041.025-.139-.096-.008 0-.033-.008-.065-.016 0-.008.008-.016.008-.024.008.008.024.008.033.016 0 0-.009-.008-.009-.016.017.008.017.016.025.016q.002-.002.016.008a.2.2 0 0 1 .04.032c.033.032.066.057.09.08m-.285-.16c-.009.016 0 .016.032.008.008 0 .016.008.024.008h-.048c0-.008-.017-.017-.025-.025.008 0 .017 0 .017.008m.537 3.292c.04.049.056.065 0 0M8.804 26.278c.619-.871.863-2.01.903-3.058.017-.42-.032-.823-.089-1.243-.057-.396-.122-.775-.26-1.154-.4-1.05-1.017-2.034-2.035-2.607-1.18-.662-2.579-.654-3.775-.024-1.058.557-1.88 1.662-2.173 2.808-.17.67-.187 1.34-.122 2.01-.227.54-.333 1.138-.276 1.67.073.67.187 1.187.52 1.784.318.565.757.976 1.27 1.332.944.645 2.254.758 3.344.46 1.123-.315 2.026-1.033 2.693-1.978M23.1 19.733c-.212-.476-.546-.912-.904-1.291-.878-.936-2.083-1.372-3.336-1.493a4.5 4.5 0 0 0-1.546.145c-.7.186-1.293.541-1.838 1.001-.936.783-1.416 2.074-1.433 3.26-.008.5.09.96.245 1.413-.212.928-.05 1.904.382 2.792.513 1.057 1.522 1.8 2.62 2.179.692.242 1.416.186 2.124.073.504-.073 1.009-.29 1.448-.533a4.8 4.8 0 0 0 1.253-.993c.342-.379.684-.815.912-1.275.471-.976.764-2.066.642-3.155a6.5 6.5 0 0 0-.57-2.123m-5.726 15.439c-.48-1.388-1.286-2.607-2.547-3.414-1.147-.734-2.767-1.017-4.068-.557-1.416.5-2.572 1.646-2.913 3.132a4.6 4.6 0 0 0-.098 1.404 2.8 2.8 0 0 0-.049 1.307c.228 1.13.513 2.26 1.099 3.26.707 1.203 1.855 2.14 3.214 2.526a4.46 4.46 0 0 0 4.263-1.032c.993-.92 1.367-2.228 1.497-3.527.041-.396.025-.8-.024-1.195-.073-.637-.163-1.283-.374-1.904m-5.363-.194c.009 0 .017-.008.025-.008h.024q-.024-.002-.048.008M31.808 4.57c-1.302-.929-3.246-.897-4.548.023-1.261.888-2.043 2.187-2.27 3.705-.139.88-.252 1.791-.13 2.647-.139.42-.204.871-.163 1.267.073.847.341 1.574.87 2.251 1.026 1.316 2.88 1.84 4.468 1.267.748-.274 1.44-.653 2.001-1.234.61-.63.985-1.34 1.31-2.139.187-.46.31-.944.407-1.428.138-.71.268-1.445.244-2.171-.065-1.703-.781-3.188-2.189-4.189M5.232 12.204c.895-1.566.464-3.737-.675-5.068-.57-.67-1.44-1.106-2.335-.985C1.172 6.288.489 7.201.31 8.185a6 6 0 0 0-.033 1.937c-.513.968-.301 2.332.529 3.066 1.4 1.227 3.564.525 4.426-.984M2.84 8.863a.15.15 0 0 1-.065-.081c.016.024.033.032.049.056.008.017.008.017.016.025m-.39-.323h.04s.008 0 .008.008h-.016c-.008-.008-.024-.008-.032-.008m27.941 20.038c-1.293-.96-3.108-.782-4.109.493-.789 1.016-.944 2.405-.887 3.647.009.105.017.218.025.331-.204.912-.204 1.848.22 2.793.716 1.598 2.538 2.243 4.117 1.5 1.627-.766 2.131-2.582 2.254-4.22.113-1.695-.171-3.47-1.62-4.544m-1.245 3.293c.041-.032.025-.032 0 0"/></g></svg>