<svg xmlns="http://www.w3.org/2000/svg" width="169" height="13" fill="none" viewBox="0 0 169 13"><g fill="#30bead" clip-path="url(#a)"><path d="M168.872 12.188c.136-.147.198-.528-.061-.499l-.358.607zm-1.275-1.44c-.37.255-.863.744-.838 1.351.456-.558.456-.294.961-.97.259-.028.358.275.259.5.136-.147.333.206.58-.176-.173-.538-.567-.627-1.098-.294-.049-.147.087-.293.136-.411m-23.519-4.65.136.098c-.025-.05-.074-.079-.136-.098m-14.801-2.035c.111 0 .173-.069.185-.118-.111.02-.209.06-.185.118m-2.457-.95c.05.03.099.04.148.06-.049-.06-.111-.099-.148-.06m17.258 2.985-.357-.254c-.062.205.185.176.357.254m19.828 5.629a.8.8 0 0 0 .259-.127 1 1 0 0 1-.222.029.14.14 0 0 1-.037.098m-13.164-5.305.123.01c.05-.068.111-.147.161-.245zm5.031.676c-.111-.04-.284.49-.382.724.123-.215.222-.303.333-.333.024-.107.036-.225.049-.391m7.625 2.272.161-.05c-.037.01-.099.03-.161.05m-16.223-3.536a.5.5 0 0 0 0-.195.27.27 0 0 0 0 .195M6.795 12.276c-.012-.04-.024-.06-.024-.098-.025.068-.013.107.024.098M.294 10.788l.074-.049c-.037-.098-.062-.206-.087-.304zm121.94-8.801c.013.01.013.01.025.01.123-.049.049-.049-.025-.01M78.96.88c.493.49-.79.637-.038 1.176-.074-.206.654-.852.037-1.175m84.852 10.758c-.074-.01-.135-.01-.209-.03.086.03.148.04.209.03M78.922 2.066l.074.06zm32.437-.47c.013.098.05.176.087.244 0-.058-.013-.127-.087-.244m7.974 1.242-.185-.088a.4.4 0 0 0 .185.088m-12.225-.713c-.111-.05-.135-.128-.296-.06.013.03.025.05.037.07.074-.069.148-.098.259-.01m-4.358-.227.074.118c.049-.01.099-.02.136-.03zM19.48 9.907a2.2 2.2 0 0 1-.309-.46c.148.382-.431.617.308.46m144.511 1.517q-.093.191-.185.205c.049 0 .098 0 .148-.01.024-.068.049-.136.037-.195M106.6 6.451l-.678-.117c.185.059.431.098.678.117m-56.546.089-.148.077a.16.16 0 0 0 .148-.078m53.835-.245a1.03 1.03 0 0 0-.357-.401.4.4 0 0 0-.087.137z"/><path d="M15.066 11.395c.641-.079.123-.744.16-1.165.715-.314.481.47.839.793.431-.265.628-.97.998-.99.05.118.136.148.087.304.37-.636 1.492-.254 1.91-1.057a.6.6 0 0 1 .124.167 3.8 3.8 0 0 1-.32-.96c.283-.059.43-.528.653-.078-.185.01-.148.205-.197.362l.258-.245c.42.627-.357.294-.246.783.53-.303 1.097-.959 1.59-.841.235.636-.998.381-.27.87l-.753-.146c.764.95-.444-.01.296 1.018.95.049.95-.49 1.899-.42.123-.392-.185-.53-.062-.921 1.171-.822 1.381 1.517 2.158.519.16-.47.074-1.312.85-.96l-.098.774c.9-.04.283-1.136 1.32-.754-.112.313-.654.333-.494.411.727.51.345-.48.801-.538l.235.646c.924-.225 1.874-.842 2.91-1.087-.025.206-.161.431.123.607 1.27-.47 2.86-.225 4.204.03l.395-.627c.11-.01.258.235.148.362.53.167-.038-.362.172-.616.284-.069.432.283.284.48.801-.578 2.342-1.313 3.366-.803l-.16.185c.764.157.64-1.262 1.392-.783l-.11.108c1.615.118 3.291-.558 4.61.206.124-.842 1.604.235 1.567-.92.974.489.74.724 2.059.998.345.02.419-.764.826-.91l.086.597.493-.676.382.695.37-.186c-.16-.02-.357-.244-.357-.42.58-.324 1.553.322 1.59.626l1.406-.597c-.013.244-.247.342-.42.509.716-.656.21.626.864.02-.111-.128.012-.363.012-.48.395.342 1.196.293 1.788.107l-.074.421c1.085.04 2.256-.333 3.464-.401-.456-.167-.419-.89-.061-.979l.197.626c.197-.41-.395-.215.037-.724.456.049.37.705.123.93l.53-.254c.05.186-.074.293-.086.538.197-.411.999.587 1.27-.127l.05.186c1.208-.069 1.738-.323 2.724-.382-.024-.548.37-.44.641-.89.74.156 1.579.557 2.442.479.604-.294.147-.47.406-.803.074.5.95.421.518.803 1.048-.118 1.332-.147 2.651-.597-.148-.196-.32-.284-.246-.46.234-.089.554.195.53.43l-.062.059c1.467-.803 3.502 1.35 4.648.264l-.061.059c.407-.196.813-.372 1.22-.558.567.088-.333.382.099.685 1.307-.842 2.096.108 3.18-.45.864 1.478 3.01-.117 4.156.822l-.062-.352c.296-.343.358.196.58.274-.037-.274-.32-.313-.136-.5 2.503-.42 5.166.451 7.718.872.937.117.58-1.791 1.739-.93l-.358.636c1.924-.724 3.86.128 5.746-.49-.123.148-.136.343-.308.334.37.48 1.442.058 1.467-.323.283.049.05.352.222.548.382.284 1.023-.578 1.196-.098.037.078-.124.147-.198.186.272-.225 1.184.088.974-.46.679.284 1.344-.216 1.874.137.407-.587 1.172.362 1.344-.49-.111.881 1.172.784 1.64.392-.172.254.358.303.16.656.506.02.975-.118.925-.578.839 1.106 1.924-.744 2.33.637a27.4 27.4 0 0 1 4.303-.764c-.135.881-1.491 0-1.528.93 1.307-.294 2.12-1.008 3.353-.715.308.137-.222.372-.357.52 1.307-.285 2.441.195 3.625-.167-.013.078-.148.156-.272.215.222-.01.506.176.518-.225l-.234.088c-.284-.617 1.023-1.126 1.11-1.43-.518 1.107 1.084.392.295 1.783a.55.55 0 0 0 .358-.51c.21.098.259.265 0 .549.826-.147.592-.597 1.319-.52-.024.197-.185.255-.283.48.407-.342.826-.685 1.418-.47-.05.118 0 .275-.185.255 1.048.04 1.923-.842 3.02-.372-.456.813.346.313.309 1.048l.653-.157-.197-.372c.542.059 1.097-.42 1.529-.147l-.444.264 1.035-.048-.53-.324c.604-.323.087-.92.777-.655-.16.058.542.058.752.509.308-.206.617-.421.986-.206.062.245-.209.793-.172.96.357-.578 1.294-.05 1.738-.666-.135.137-.209.519-.185.607l.309-.47c.222.176.246.264.16.558.74.156-.086-.94.74-.46-.074.03-.062.107-.21.166.863.274 1.788-.147 2.565.215.111.764-.753.089-.58.735 1.208.02 2.602-.558 3.724-.245l-.198-.108c.358-1.008.752.617 1.431.206-.161.059-.296.548-.235.44.752.265 1.652-.049 2.91-.215l-.197.245c.419.293 1.196.293 1.664.48.198-.245.481-.167.382-.568 1.221 1.693 3.12-.421 4.205.998-.16-.02-.444.176-.308.196l1.22-.098c.012-.46-.086-.294-.259-.666.21-.244.58-.41.876-.372-.592.225-.161.715.012.989-.012-.137.111-.284.123-.42.419.87.309-.892 1.024-.236l-.099.225c.333-.068.69-.333 1.011-.205.012.538-.382.186-.506.607.469.049 1.159-.823 1.455-.235-.234.107-.517.068-.752.176.321.685.407.538.728.685l-.025-.02.727.402-.16-.196c.913-1.243 1.245-.049 2.256-.793-.974.705-.246.46-.456 1.028.161.196.419.43.296.578.493-.412.53.47 1.221-.128-.025.196.394.088.185.539.518-.069-.025-.343.074-.568.912-.509 1.541 1.067 2.848.372 1.023-.206 1.356-.803 2.305-.979.21.343-.419.636-.419.636.395.353.752.363 1.258.226-.136.146-.086.303 0 .528.37.01.431-.636.814-.284-.136.196-.333.51-.568.685.469-.097.974-.381 1.455-.48.025.344-.394.451-.616.637.53-.068 1.331-.088 1.64-.577l-.259-.235c.185.01-.037.46-.197.528-.531.333-.543-.274-.518-.47l.345-.068c0-1.145-1.282-.03-1.887-.196l.481-.754-.813.558c-.074-.225-.05-.685.295-.753-.332-.47-.468.215-.727-.284-.025-.079.012-.108.049-.137l-.505.166c.135-.157.086-.578.32-.411-.653-.587-1.417.382-1.553-.264l.025-.079c-1.159.088-.259.568-1.258 1.116l-.16-1.537-.259.568c-.111-.04-.321-.117-.21-.352-.518.332 0 .264-.333.607-.394-.627-1.541 0-1.43-.95-.308.411.432.43-.222.646.086-1.028-.703.059-1.085-.48.284-.489.678-.137.308-.685-.517.823-.912-.352-1.368-.254-.197.695-.974.137-1.726.254.098-.225-1.221-.607-1.813-.96l.05-.117c-.296.695-.937.47-1.455.558.111-.42.246-.577.554-.734l-.468-.059c-.16.216-.333.314-.653.353l.234-.51c-.629-.048-1.381.46-2.096.01-.148.49.32 1.46-.58 1.675.025-.275.099-.735.333-.813-.074.03-.308.186-.419.059l.432-.411c-.321-.245-.272.352-.543.274.086-.382-.148-.304-.049-.597.086-.03.222.186.357.058-.308-.107-.653-.381-.715-.695-.012.225-.111.51-.357.529-.617-.049-.111-.49-.432-.724-.21.244-.542-.079-.666.489-.185-.03-.16-.294-.197-.46-.37.205-1.504-.118-1.27.538l.074.05c-.012.01-.037.01-.062.019-1.159.43-2.096-.597-3.181-.49l.037-.195c-.653.137-1.393-.05-1.911.303-.185-.02-.37-.401-.246-.626-.493.088-.592.293-1.221-.108.53-.274-.111-.313.53-.186-.579-.245-.666-.568-1.418-.127.309-.46-.357-.676-.665-.568l.369.401c-.345.03-.616-.049-.9-.127l.272-.627c-1.135-.94-2.503 1.116-3.255-.293-.407.42.641.382.246.88-.567-.136-1.023-1.125-1.208-1.145-.74-.43-.9.872-1.689.558.074.245.074.862-.58 1.028-.567-.137-.567-1.037-.172-1.184.148-.01.197.068.185.147.197-.069.468-.147.271-.411l-.111.225c-.259-.265-1.06-.314-.814-.676-.468.176-.246.362.062.51-.703-.402-1.171-.118-1.899-.412.099.137.173.421.062.411-1.085-.391-.555.392-1.332.421-.382-.391.271-.822-.542-.597-.432-.284-.013-.626.197-.793-.764.382-1.27-.411-1.665-.528l.395-.157c-.234.088-.419.068-.604.049l.148.48c-.21-.098-.395-.118-.358-.314-.259.284.074.783-.431 1.155-.259-.264-.913.177-.937-.45.887.294-.025-.626.764-.656-.16.059-.345.04-.542-.059-.025-.068.049-.127.111-.156-.802-.627-.494.656-1.394.558.161-.333-.123-.676-.283-.617.357.04.098.597-.259.832-.543-.323-.654.147-.949.088l.332.157c-.16.343-.443.254-.85.343 0-.275.382-.157.259-.294-.518.577-.937-.685-1.616-.313-.258-.255.05-.656-.197-.823-.752.411-.715-.519-1.492-.186.161.48.21.363-.357.793l1.245-.254-.851.636c.37.03.802-.245 1.011-.157-.407.363-.357.245-.234.637-.419-.725-1.036.352-1.566-.157l.136-1.155c-.826-.568-1.603.5-2.713.147l.346.225c-.198.45-.703.02-1.085.186.074-.382-.148-.538-.284-.783-.012.284-.826-.079-.999.695l-.456-.539c-.9-.264-1.134 1.038-1.997.862.296-.401-.074-.705.53-.97-.296-.019-.555-.107-.58.157-.148-.254-.85.47-1.097.088-.135.167-.209.568-.53.51a.36.36 0 0 1 .012-.187c-.012.186-.53.226-.283.676-.814-1.243-2.516-.078-3.231-1.116-.653.117-1.43.215-2.009.235.049-.118.012-.196.123-.147-.777-.382-.555 1.096-1.443.676-.431-.637.506-.324.222-.568-.061-1.273-1.11.147-1.689-.617l.148-.068c-.456-.441-1.171.45-1.935.342 0 0 .036-.108.012-.196-.555.637-1.554.823-2.293.99.246-.49.345-.255.221-.764-.333.058.074.812-.591.94-.21-.275-.678-.53-.715-1.068l.628-.01c-.296-.704-.801 0-1.134-.127l.05-.303c-.962.078-.987.842-2.01.763l.098.235c-.58.744-.456-.44-1.023.108l-.16-.773c-.37.166-1.307.724-1.973.88.382-.567 1.159-.88 1.652-1.203-.37-.03-1.245.048-1.442.43.147-.078.332-.264.48-.147-.456.607-1.048.91-1.775.901.16-1.498-1.874-.362-2.404-1.527-1.295.558-2.565-.225-4.081-.127.554 1.165-.444.039-.333 1.233-.346.078-.481.059-.518-.02l-1.073-.714c-.259-.343.333-.264.296-.538-.777-.079-.333-.5-.85-.813.11.43-.26.617-.703.45l.628.548c-1.048.647-.949-.998-2.022-.362l.333-.381c-.554.215-2.059.029-2.564 1.008-.099-.137-.247-.46 0-.548-1.344-.098-2.91 1.116-3.97.558l.086-.294c-.247.088-.407.568-.728.284.013-.118.087-.294-.024-.313-.123.107-.629.538-.974.372l.259-.343c-1.32-.343-1.948.871-3.009 1.106-.049-.861-1.085-1.106-1.615-1.233l.012-.128c-1.516-.068-2.515.823-3.883 1.244-.937-.881-2.96-.216-4.402-.656.222.147.025.675-.21.773-.345-.137-.85.666-.875-.127l.123.01c-.32-.754-.974-.51-1.504-.5l.025 1.038c-1.529-1.43-3.526.764-4.426-.5-.296.285-.703.314-1 .598l-.048-.548c-.937-.069-1.394-.098-2.516.137l.185-.411c-.64.02-.592 1.654-1.17 1.742l-.285-.812c-1.11.107-2.342-.52-3.328.313 0-.118 0-.362.172-.411-.53.02-2.108-.382-1.75.734-.124-.734-1.16.049-1.702.44V3.24c-.395.744-.382.94-1.048 1.204-.173-.049-.222-.42.025-.303-.605-.225-.346.558-1.073.342l.197-.372c-.58.02-.505.196-.752.637-.32.254-1.11-.02-1.282-.5-.025.304-.272.735-.629.637-.074-.176.025-.304.074-.372-1.023-.265-1.307.783-2.06.323-.048-.176-.11-.264-.172-.313.765-.069 1.381-.108 1.332-.06-.086-.498-.727-.518-.358-1.262-.431.43-1.122 1.331-1.763 1.165-.037-.049-.074-.088-.11-.166l.049-.06c-.148-.038-.26.03-.358.128-.21-.059-.333-.098-.518-.088-.148-.401-.752-.127-1.06-.108.136.539-.284.51.172.91-.061-.029.05-.068.247-.117.037-.02.099-.039.123-.068l-.012.049c.197-.04.456-.088.752-.137-.185.303-.394.577-.789.313-.099.352-.197.734-.259.92-.567-.705-1.455-1.008-1.664-1.459-.876.431-2.158.49-2.528 1.586-.234.167-.37-.254-.505-.401.135-.118.32-.127.37-.284-.469.333-1.542.303-1.517 1.038-.74-.235.234-.705-.666-.47l.074-.235c-2.059-.881-2.49 2.251-4.833 1.086.16.069.234.098.296.216-2.429-.313-4.5 1.331-7.003.705-.666-.108-.604.362-.888.763l-.308-.548-.469.783c-.776.656-2.034-1.106-2.946.04l.27.352c-.443.01-1.27.49-1.33.03-.025.077-.013.43-.247.263l-.111-.303-.876.724C1.38 9.79 1.984 8.624.776 8.81c-.407.206-.962 1.146-.715 1.312a.65.65 0 0 1 .641.382l-.345.245c.246.89.308 1.85 1.43 2.26.148-.224.308-.45.469-.675l.357.382-.542.147c.456.333.53-.059.678-.352.123.215.271.352.431.41l.37-.978c.185.333-.074.744.432.842.172-.45-.543-.715-.124-1.077.444.333.457.675.728.264.123.216.086.382-.025.51.247-.334.85-.285.876-.784.493.43 1.097-.343 1.319.5.05-.226.394-.774.69-.862-.271 1.116 1.172-.157 1.332.95.16-.98 1.393-.666 1.997-1.293-.024.079-.061.235-.135.206.444 0 .64.254.949.382-.148-.764.456-1.038.69-1.567.703.637-.073.94.272 1.606-.185-.607.727-.764.419-1.234.505.382.394.157.764.744-.172-.95.32-.225.506-.851.69.381.37.861.925.48.37.224-.1.636-.1.636m14.61-3.7v.01c-.123.028-.234.048-.308.068.074-.02.16-.04.308-.079m1.27-.148c-.16 0-.357.01-.555.04-.073-.186-.061-.382.062-.382-.037.127.284.205.493.342M27.53 4.091c.185-.108.271-.01.32.098-.098.02-.197.058-.345.107 0 .02-.012.05-.012.069.012-.098.012-.196.037-.274"/><path d="M27.308 4.856c-.024.01-.037.039-.074.048.05.04.099.079.148.108l.037-.176a.4.4 0 0 0-.11.02m116.942 1.351-.024-.02c.012.02.037.05.037.089-.013-.03-.013-.05-.013-.069m-95.585.713-.013-.137-.098.127zm102.186 2.047c0 .049.012.098.061.147.013-.03-.024-.088-.061-.147m2.968.588.383.264a2 2 0 0 0-.383-.264m2.235.655c.049-.089.074-.157.098-.226zm-36.994-3.68c-.036 0-.061 0-.098.019-.21.078-.062.049.098-.02m11.224-.273c-.135.088-.259.176-.394.225.185.059.333.088.394-.225m-23.609.205-.074-.01z"/><path d="M129.375 6.421c.185.128.345.118.518.06-.16-.05-.345-.128-.518-.06m36.57 5.699.099.038c.012-.039.025-.058.037-.088zm.141-.04.136-.04c-.05-.01-.099-.019-.136.04m.436-.137-.295.088c.086.02.197.06.295-.088m-3.553-.578-.086.186c.037-.03.061-.098.086-.186m-.938-.097c.21.078.444.51.777.44l.074-.146c-.222.254-.555-.587-.851-.294m-3.226-3.065.739.284c-.086-.235-.184-.539.185-.53-.826-.782.074.5-.924.246m-2.342-.703c.444-.03.074-.304.124-.422-.321.147-.395.186-.124.421m-17.646-2.428.135-.489c-.333.03-.037.186-.135.49m-3.825 2.124.259.352.234-.43zm-1.389-3.721.148-.059-.579.127zM103.555 1.44l.061.616c.235-.088.321-.783-.061-.616m-13.023.292c-.135-.313-.493-.519-.727-.225.296.059.58.304.727.225m-39.009.03.247-.225-.48.206z"/></g><defs><clipPath id="a"><path fill="#fff" d="M0 0h169v13H0z"/></clipPath></defs></svg>