<svg xmlns="http://www.w3.org/2000/svg" width="59" height="5" fill="none" viewBox="0 0 59 5"><g fill="#FF7E84" clip-path="url(#a)"><path d="M58.959 4.688c.047-.057.069-.204-.022-.192l-.124.233zm-.447-.554c-.13.098-.301.286-.293.52.16-.215.16-.114.336-.373.09-.012.125.105.09.192.047-.057.116.079.202-.068-.06-.207-.197-.241-.383-.113-.017-.057.03-.113.048-.158m-8.215-1.788.046.037q-.014-.027-.046-.037m-5.163-.783c.039 0 .06-.027.065-.045-.039.007-.073.022-.065.045m-.861-.366c.017.012.034.016.05.023-.016-.023-.037-.038-.05-.023M50.3 2.346l-.125-.098c-.021.08.065.068.125.098m6.919 2.164a.3.3 0 0 0 .09-.048.3.3 0 0 1-.077.011.06.06 0 0 1-.013.038M52.625 2.47l.043.004c.017-.026.039-.056.056-.094zm1.758.26c-.038-.016-.099.188-.133.278.043-.083.078-.117.116-.128.009-.042.013-.087.017-.15m2.664.873.054-.019zm-5.665-1.359a.2.2 0 0 0 0-.075.1.1 0 0 0 0 .075M2.374 4.721c-.005-.015-.01-.022-.01-.037-.01.026-.004.041.01.037M.106 4.15l.025-.02C.118 4.093.11 4.051.1 4.014zM42.672.765c.004.004.004.004.008.004.042-.02.017-.02-.008-.004M27.566.339c.172.188-.275.245-.012.452-.026-.08.228-.328.012-.452M57.19 4.477c-.026-.004-.047-.004-.073-.011q.043.017.073.011M27.555.794l.026.023zm11.32-.181a.3.3 0 0 0 .03.094.2.2 0 0 0-.03-.094m2.783.479-.064-.034c.026.022.047.03.064.033M37.392.817c-.038-.019-.047-.049-.103-.022l.013.026c.026-.026.052-.038.09-.004M35.875.73l.026.046.047-.012zM6.799 3.81a1 1 0 0 1-.108-.177c.052.147-.15.237.108.177m50.453.584q-.032.073-.065.079.027.001.052-.004a.2.2 0 0 0 .013-.075M37.213 2.48l-.236-.044c.064.022.15.037.236.045m-19.741.034-.05.03q.03.002.05-.03m18.8-.094a.4.4 0 0 0-.125-.154.2.2 0 0 0-.03.052z"/><path d="M5.26 4.383c.224-.03.043-.287.056-.449.25-.12.168.181.292.305.151-.101.22-.372.349-.38.017.045.047.057.03.117.13-.245.521-.098.667-.407a.2.2 0 0 1 .043.064 1.6 1.6 0 0 1-.112-.369c.1-.022.151-.203.229-.03-.065.004-.052.08-.07.14l.091-.095c.146.241-.125.113-.086.302.185-.117.383-.37.555-.324.082.245-.348.147-.094.335l-.263-.057c.267.366-.155-.003.103.392.332.019.332-.188.663-.162.043-.15-.064-.203-.021-.354.409-.316.482.584.753.2.056-.181.026-.505.297-.37l-.035.298c.315-.015.1-.437.461-.29-.039.12-.228.128-.172.158.254.196.12-.184.28-.207l.081.249c.323-.087.655-.324 1.016-.418-.008.079-.056.166.043.233.444-.18.999-.086 1.468.012l.138-.241c.039-.004.09.09.051.139.186.064-.012-.14.06-.237.1-.027.151.109.1.184.28-.222.818-.504 1.175-.308l-.056.071c.267.06.224-.486.486-.301l-.038.041c.563.045 1.149-.214 1.61.08.042-.324.559.09.546-.355.34.189.258.279.719.384.12.008.146-.293.288-.35l.03.23.173-.26.133.267.13-.071c-.057-.008-.126-.094-.126-.162.203-.124.543.124.556.241l.49-.23c-.004.094-.086.132-.146.196.25-.252.073.241.301.008-.039-.05.005-.14.005-.185.137.132.417.113.624.042l-.026.161c.379.016.788-.128 1.21-.154-.16-.064-.147-.343-.022-.376l.069.24c.069-.158-.138-.082.013-.278.159.019.129.271.043.358l.185-.098c.017.071-.026.113-.03.207.069-.158.348.226.443-.05l.017.072c.422-.026.607-.124.951-.146-.008-.211.13-.17.224-.343.259.06.551.215.853.184.21-.113.051-.18.142-.308.025.192.331.162.18.308.366-.045.465-.056.926-.23-.052-.075-.112-.108-.086-.176.081-.034.193.075.185.165l-.022.023c.512-.309 1.223.52 1.623.102l-.021.022c.142-.075.284-.143.426-.214.198.034-.117.147.034.263.456-.324.732.042 1.11-.173.302.569 1.05-.045 1.451.316L28.99 2.2c.103-.132.125.075.202.105-.013-.105-.112-.12-.047-.192.873-.162 1.803.173 2.694.335.327.045.203-.689.607-.357l-.125.244c.672-.278 1.348.05 2.006-.188-.043.057-.047.132-.108.128.13.185.504.023.513-.124.099.019.017.135.077.21.134.11.358-.221.418-.037.013.03-.043.057-.07.072.096-.087.414.033.34-.177.238.109.47-.083.655.052.142-.226.41.14.47-.188-.04.339.408.301.572.15-.06.099.125.117.056.253.176.007.34-.045.323-.222.292.425.671-.286.813.245a9 9 0 0 1 1.502-.294c-.047.339-.52 0-.533.358.456-.113.74-.388 1.17-.275.108.052-.077.143-.124.2.456-.11.852.075 1.265-.065-.004.03-.052.06-.095.083.078-.004.177.068.181-.087l-.082.034c-.099-.237.358-.433.388-.55-.181.426.379.151.103.686a.21.21 0 0 0 .125-.196c.073.038.09.102 0 .21.288-.056.206-.229.46-.199-.008.076-.064.098-.099.185.142-.132.289-.264.495-.18-.017.044 0 .105-.064.097.366.015.671-.324 1.054-.143-.159.312.121.12.108.403l.228-.06-.069-.143c.19.022.383-.162.534-.057l-.155.102.362-.02-.185-.123c.21-.125.03-.354.27-.253-.055.023.19.023.263.196.108-.079.216-.162.345-.079.021.094-.073.305-.06.37.124-.223.451-.02.606-.257a.4.4 0 0 0-.064.233l.107-.18c.078.068.087.101.056.214.259.06-.03-.361.259-.177-.026.012-.022.042-.074.064.302.106.625-.056.896.083.038.294-.263.034-.203.283.422.007.909-.215 1.3-.094l-.069-.042c.125-.388.263.237.5.08-.056.022-.104.21-.082.169.263.101.577-.02 1.016-.083l-.069.094c.146.113.418.113.581.184.069-.094.168-.064.133-.218.427.651 1.09-.162 1.468.384-.056-.007-.155.068-.107.075l.426-.037c.004-.177-.03-.113-.09-.256.073-.094.202-.158.305-.143-.207.086-.056.274.004.38-.004-.053.04-.11.043-.162.147.335.108-.343.358-.09l-.035.086c.116-.026.241-.128.353-.079.005.207-.133.072-.176.234.163.018.404-.317.508-.09-.082.04-.181.026-.263.067.112.264.142.207.254.264l-.009-.008.254.154-.056-.075c.319-.478.435-.019.788-.305-.34.271-.086.177-.16.395.057.076.147.166.104.223.172-.159.185.18.426-.05-.008.076.138.035.065.208.18-.027-.009-.132.026-.219.318-.195.538.41.994.143.357-.079.473-.308.805-.376.073.132-.147.245-.147.245.138.135.263.139.44.086-.048.057-.03.117 0 .204.129.003.15-.245.284-.11-.048.076-.117.196-.198.264.163-.038.34-.147.508-.185.008.132-.138.174-.216.245.185-.026.465-.034.573-.222l-.09-.09c.064.003-.013.177-.07.203-.184.128-.189-.105-.18-.18l.12-.027c0-.44-.447-.011-.658-.075l.168-.29-.285.214c-.025-.086-.017-.263.104-.29-.116-.18-.164.083-.254-.109-.009-.03.004-.041.017-.053l-.176.064c.047-.06.03-.222.111-.158-.228-.226-.495.147-.542-.101l.009-.03c-.405.033-.09.218-.44.429l-.055-.591-.09.218c-.04-.015-.112-.045-.074-.136-.18.128 0 .102-.116.234-.138-.241-.538 0-.5-.365-.107.158.151.165-.077.248.03-.395-.245.023-.379-.184.1-.189.237-.053.108-.264-.18.316-.318-.135-.478-.098-.069.268-.34.053-.602.098.034-.086-.426-.233-.633-.369l.017-.045c-.103.267-.327.18-.508.215.039-.162.086-.223.194-.283l-.164-.022c-.056.082-.116.12-.228.135l.082-.196c-.22-.018-.482.177-.732.004-.051.188.112.561-.202.644.008-.105.034-.282.116-.313-.026.012-.108.072-.146.023l.15-.158c-.112-.094-.094.135-.189.105.03-.146-.052-.116-.017-.23.03-.01.077.072.125.023-.108-.041-.228-.147-.25-.267-.004.087-.039.196-.125.203-.215-.019-.038-.188-.15-.278-.074.094-.19-.03-.233.188-.064-.011-.056-.113-.069-.177-.129.079-.525-.045-.443.207l.026.019q-.008.004-.022.007c-.404.166-.732-.23-1.11-.188l.013-.075c-.229.053-.487-.019-.668.117-.064-.008-.129-.155-.086-.241-.172.033-.206.113-.426-.042.185-.105-.039-.12.185-.071-.202-.094-.232-.219-.495-.05.108-.176-.125-.26-.232-.218l.129.155c-.12.011-.215-.02-.314-.05l.094-.24c-.396-.362-.873.429-1.136-.113-.142.162.224.147.086.339-.198-.053-.357-.433-.422-.44-.258-.166-.314.334-.59.214.026.094.026.331-.202.395-.198-.053-.198-.399-.06-.455.052-.004.069.026.065.056.069-.026.163-.056.094-.158l-.038.086c-.09-.101-.37-.12-.285-.26-.163.068-.086.14.022.196-.245-.154-.409-.045-.663-.158.035.053.06.162.022.158-.38-.15-.194.151-.465.162-.134-.15.094-.316-.19-.23-.15-.108-.004-.24.07-.304-.268.147-.444-.158-.582-.204l.138-.06a.4.4 0 0 1-.211.019l.052.185c-.073-.038-.138-.046-.125-.121-.09.11.026.301-.15.444-.091-.101-.32.068-.328-.173.31.113-.009-.24.267-.252q-.084.033-.19-.023c-.008-.026.018-.049.04-.06-.28-.241-.173.252-.487.215.056-.128-.043-.26-.1-.238.126.015.035.23-.09.32-.189-.124-.228.057-.33.034l.115.06c-.056.132-.155.098-.297.132 0-.105.134-.06.09-.113-.18.223-.327-.263-.563-.12-.09-.098.017-.252-.07-.316-.262.158-.249-.2-.52-.072.056.185.073.14-.125.305l.435-.098-.297.245c.13.011.28-.094.353-.06-.142.139-.125.094-.082.244-.146-.278-.361.136-.547-.06l.048-.444c-.288-.218-.56.192-.947.056l.12.087c-.068.173-.245.007-.378.072.026-.147-.052-.208-.1-.302-.004.11-.288-.03-.348.268l-.16-.207c-.313-.102-.395.399-.697.33.104-.153-.025-.27.185-.372-.103-.007-.193-.041-.202.06-.051-.098-.297.181-.383.034-.047.064-.073.219-.185.196-.009-.03.004-.071.004-.071-.004.071-.185.086-.099.26-.284-.479-.878-.03-1.127-.43a5 5 0 0 1-.702.09c.017-.045.004-.075.043-.056-.271-.147-.194.422-.504.26-.15-.245.177-.125.078-.219-.022-.49-.388.057-.59-.237l.052-.026c-.16-.17-.41.173-.676.132 0 0 .013-.042.004-.076-.193.245-.542.317-.8.38.086-.188.12-.097.077-.293-.116.022.026.312-.206.361-.074-.105-.237-.203-.25-.41l.22-.004c-.104-.27-.28 0-.397-.049l.018-.116c-.336.03-.345.323-.702.293l.035.09c-.203.287-.16-.169-.358.042l-.056-.297c-.129.064-.456.278-.688.338.133-.218.404-.338.576-.463-.129-.011-.434.02-.503.166.051-.03.116-.102.168-.057q-.24.351-.62.347c.056-.576-.654-.14-.84-.587-.451.214-.895-.087-1.424-.05.193.449-.155.016-.116.475-.121.03-.168.023-.181-.008L27.173.52c-.09-.132.117-.102.104-.208C27.005.283 27.16.12 26.98 0c.038.166-.09.237-.246.173l.22.211c-.366.249-.332-.384-.706-.14l.116-.146c-.194.083-.719.011-.895.388-.035-.053-.086-.177 0-.211-.47-.038-1.016.43-1.386.214l.03-.112c-.086.033-.142.218-.254.109.004-.045.03-.113-.009-.12-.043.04-.22.206-.34.142l.09-.131c-.46-.132-.68.335-1.05.425-.017-.331-.378-.425-.564-.474l.005-.05c-.53-.026-.878.317-1.356.479-.327-.34-1.033-.083-1.537-.252.078.056.009.26-.073.297-.12-.053-.297.256-.305-.049l.043.004c-.112-.29-.34-.196-.526-.192l.009.399c-.534-.55-1.231.294-1.545-.192-.104.109-.246.12-.349.23L16.335.79c-.327-.027-.487-.038-.878.052l.064-.158c-.224.008-.206.637-.409.67l-.099-.312c-.387.041-.817-.2-1.162.12 0-.045 0-.139.06-.158-.185.008-.736-.147-.61.283-.044-.283-.405.018-.595.17v-.212c-.137.286-.133.362-.366.463-.06-.018-.077-.162.009-.116-.21-.087-.12.214-.374.131l.068-.143c-.202.008-.176.076-.262.245-.112.098-.388-.007-.448-.192-.008.117-.095.282-.22.245-.025-.068.01-.117.027-.143-.358-.102-.457.3-.72.124-.017-.068-.038-.102-.06-.12.267-.027.482-.042.465-.023-.03-.192-.254-.2-.125-.486-.15.166-.391.512-.615.448-.013-.019-.026-.034-.039-.064l.017-.022c-.051-.015-.09.01-.124.049-.074-.023-.117-.038-.181-.034-.052-.155-.263-.05-.37-.042.047.207-.1.196.06.35-.022-.01.017-.026.086-.045.013-.007.034-.015.043-.026l-.004.019a8 8 0 0 1 .262-.053c-.064.117-.138.222-.275.12-.035.136-.07.283-.09.354-.199-.27-.509-.387-.582-.56-.305.165-.753.188-.882.61-.082.063-.13-.099-.177-.155.048-.045.112-.049.13-.11-.164.129-.539.118-.53.4-.258-.09.082-.271-.232-.18l.025-.091c-.718-.34-.869.866-1.687.418.056.026.082.037.103.083-.847-.12-1.57.512-2.444.27-.233-.04-.211.14-.31.294l-.108-.21-.163.3c-.272.253-.71-.425-1.03.016l.095.135c-.154.004-.443.189-.464.012-.009.03-.005.165-.087.101l-.038-.116-.306.278c-.301-.015-.09-.463-.512-.391-.142.079-.336.44-.25.504.065-.011.181.034.224.147l-.12.094c.086.343.107.712.499.87q.079-.13.163-.26l.125.147-.19.056c.16.128.186-.022.238-.135q.065.124.15.158l.13-.377c.064.128-.026.287.15.324.06-.173-.19-.275-.043-.414.155.128.16.26.254.102.043.082.03.147-.009.195.086-.128.297-.109.306-.3.172.165.383-.133.46.191.018-.086.138-.297.242-.331-.095.43.409-.06.464.365.056-.376.487-.256.698-.497-.009.03-.022.09-.048.08.155 0 .224.097.332.146-.052-.294.16-.399.24-.602.246.244-.025.361.096.617-.065-.233.254-.294.146-.474.176.147.138.06.267.286-.06-.365.112-.087.176-.328.241.147.13.332.323.185.13.086-.034.245-.034.245m5.1-1.424v.004l-.107.026zm.444-.056c-.056 0-.125.004-.194.015-.026-.072-.021-.147.022-.147-.013.049.098.08.172.132M9.61 1.573c.065-.04.095-.003.112.038-.034.008-.069.023-.12.042 0 .007-.005.019-.005.026.005-.037.005-.075.013-.105"/><path d="M9.534 1.868c-.009.004-.013.015-.026.019q.026.024.051.041.008-.033.013-.068-.019.001-.038.008m40.827.519-.01-.007c.005.007.015.019.015.034q-.006-.017-.005-.027m-33.371.275-.004-.053-.033.05zm35.674.788c0 .018.004.037.022.056.004-.012-.009-.034-.022-.057m1.039.226.134.101a.7.7 0 0 0-.134-.101m.774.252q.023-.048.033-.086zM41.57 2.512q-.016-.002-.034.007c-.073.03-.021.02.035-.007m3.911-.106c-.048.034-.09.068-.138.087.064.022.116.034.137-.087m-8.236.079-.026-.004zm7.919-.015c.065.05.12.045.18.023-.055-.019-.12-.049-.18-.023M57.93 4.661l.033.015c.004-.015.008-.022.012-.033zm.054-.015.046-.015c-.017-.004-.033-.008-.046.015m.151-.052-.104.034c.03.007.07.022.104-.034m-1.239-.223-.029.072q.018-.02.03-.072m-.327-.037c.074.03.155.196.272.17l.025-.057c-.077.098-.193-.226-.297-.113m-1.132-1.179.258.109c-.03-.09-.065-.207.064-.203-.288-.302.026.192-.322.094m-.818-.271c.156-.012.026-.117.044-.162-.112.056-.138.071-.043.162m-6.158-.934.045-.188c-.112.011-.012.071-.046.188m-1.337.817.09.136.082-.166zm-.482-1.43.051-.023-.202.05zM36.148.554l.022.237c.082-.034.112-.301-.022-.237m-4.542.113c-.048-.121-.173-.2-.254-.087.103.023.202.117.253.087m-13.617.01.086-.086-.168.079z"/></g><defs><clipPath id="a"><path fill="#fff" d="M0 0h59v5H0z"/></clipPath></defs></svg>