<svg xmlns="http://www.w3.org/2000/svg" width="128" height="24" fill="none" viewBox="0 0 128 24"><path fill="#FFBC1F" d="M17.919 14.32a1.1 1.1 0 0 0-.32.97l.89 4.92a1.08 1.08 0 0 1-.45 1.08 1.1 1.1 0 0 1-1.17.08l-4.43-2.31a1.1 1.1 0 0 0-.5-.131h-.27a.8.8 0 0 0-.27.09l-4.43 2.321a1.17 1.17 0 0 1-.71.11 1.11 1.11 0 0 1-.89-1.271l.89-4.92a1.12 1.12 0 0 0-.32-.979l-3.61-3.5a1.08 1.08 0 0 1-.27-1.13c.135-.396.477-.685.89-.75l4.97-.721c.378-.039.71-.269.88-.609l2.19-4.49q.078-.152.2-.27l.09-.07a.7.7 0 0 1 .16-.13l.11-.04.17-.07h.42c.377.039.708.264.88.6l2.22 4.47c.16.327.47.554.83.609l4.97.721c.42.06.77.35.91.75.13.401.018.841-.29 1.13zm26 0a1.1 1.1 0 0 0-.32.97l.89 4.92a1.08 1.08 0 0 1-.45 1.08 1.1 1.1 0 0 1-1.17.08l-4.43-2.31a1.1 1.1 0 0 0-.5-.131h-.27a.8.8 0 0 0-.27.09l-4.43 2.321a1.17 1.17 0 0 1-.71.11 1.11 1.11 0 0 1-.89-1.271l.89-4.92a1.12 1.12 0 0 0-.32-.979l-3.61-3.5a1.08 1.08 0 0 1-.27-1.13c.135-.396.477-.685.89-.75l4.97-.721c.378-.039.71-.269.88-.609l2.19-4.49q.078-.152.2-.27l.09-.07a.7.7 0 0 1 .16-.13l.11-.04.17-.07h.42c.377.039.708.264.88.6l2.22 4.47c.16.327.47.554.83.609l4.97.721c.42.06.77.35.91.75.13.401.018.841-.29 1.13zm26 0a1.1 1.1 0 0 0-.32.97l.89 4.92a1.08 1.08 0 0 1-.45 1.08 1.1 1.1 0 0 1-1.17.08l-4.43-2.31a1.1 1.1 0 0 0-.5-.131h-.27a.8.8 0 0 0-.27.09l-4.43 2.321a1.17 1.17 0 0 1-.71.11 1.11 1.11 0 0 1-.89-1.271l.89-4.92a1.12 1.12 0 0 0-.32-.979l-3.61-3.5a1.08 1.08 0 0 1-.27-1.13c.135-.396.477-.685.89-.75l4.97-.721c.378-.039.71-.269.88-.609l2.19-4.49q.078-.152.2-.27l.09-.07a.7.7 0 0 1 .16-.13l.11-.04.17-.07h.42c.377.039.708.264.88.6l2.22 4.47c.16.327.47.554.83.609l4.97.721c.42.06.77.35.91.75.13.401.018.841-.29 1.13zm26 0a1.1 1.1 0 0 0-.32.97l.89 4.92a1.08 1.08 0 0 1-.45 1.08 1.1 1.1 0 0 1-1.17.08l-4.43-2.31a1.1 1.1 0 0 0-.5-.131h-.27a.8.8 0 0 0-.27.09l-4.43 2.321a1.17 1.17 0 0 1-.71.11 1.11 1.11 0 0 1-.89-1.271l.89-4.92a1.12 1.12 0 0 0-.32-.979l-3.61-3.5a1.08 1.08 0 0 1-.27-1.13c.135-.396.477-.685.89-.75l4.97-.721c.378-.039.71-.269.88-.609l2.19-4.49q.078-.152.2-.27l.09-.07a.7.7 0 0 1 .16-.13l.11-.04.17-.07h.42c.377.039.708.264.88.6l2.22 4.47c.16.327.47.554.83.609l4.97.721c.42.06.77.35.91.75.131.401.018.841-.29 1.13z"/><path fill="#CFCFCF" d="M121.919 14.32a1.1 1.1 0 0 0-.319.97l.889 4.92a1.08 1.08 0 0 1-.45 1.08 1.1 1.1 0 0 1-1.17.08l-4.429-2.31a1.1 1.1 0 0 0-.5-.131h-.271a.8.8 0 0 0-.27.09l-4.43 2.321c-.219.11-.467.149-.71.11a1.11 1.11 0 0 1-.89-1.271l.89-4.92a1.12 1.12 0 0 0-.319-.979l-3.611-3.5a1.08 1.08 0 0 1-.269-1.13c.134-.396.476-.685.889-.75l4.97-.721c.378-.039.71-.269.88-.609l2.19-4.49q.078-.152.2-.27l.09-.07a.7.7 0 0 1 .161-.13l.109-.04.17-.07h.421c.376.039.707.264.88.6l2.219 4.47c.16.327.471.554.83.609l4.97.721c.42.06.771.35.91.75.131.401.018.841-.29 1.13z"/></svg>