<svg xmlns="http://www.w3.org/2000/svg" width="373" height="7" fill="none" viewBox="0 0 373 7"><g fill="#30BEAD" clip-path="url(#a)"><path d="M372.049 4.57c.2-.17.08-.56-.45-.49l-.38.66zm-3.627-1.23c-.63.32-1.37.88-.96 1.49.63-.64.78-.37 1.46-1.13.54-.08.94.21.85.46.19-.17.84.15 1.13-.27-.7-.51-1.59-.53-2.52-.11-.2-.14 0-.32.04-.44m-52.75-1.03.34.08a.9.9 0 0 0-.34-.08m-32.695-.37c.25-.02.35-.08.37-.14-.23.05-.42.09-.37.14m-5.579-.72c.12.02.22.03.33.04-.13-.06-.25-.09-.33-.04m38.275 1.09-.87-.21c-.07.22.44.16.87.21m45.475 2.63c.18-.03.34-.09.47-.17-.15.03-.3.05-.45.07 0 .03-.01.06-.02.1m-31.07-3.17h.27c.08-.08.15-.17.22-.27zm11.055-.1c-.25-.02-.34.54-.43.78a.82.82 0 0 1 .55-.39c0-.1-.03-.23-.12-.39m17.539.99.31-.08c-.08.03-.22.05-.31.08m-36.509-1.01a.5.5 0 0 0-.101-.2c0 .07.041.14.101.2M12.869 5.87c.01-.04 0-.07 0-.1-.07.06-.08.1 0 .1M.047 3.09l.18-.03c.02-.11.04-.21.04-.32zM267.188.49c.019.01.029.01.049.01.26-.06.11-.05-.049-.01m-93.761.42c1.06.5-1.73.64-.13 1.2-.15-.22 1.45-.87.13-1.2m187.429 3.95c-.15.01-.3.01-.45.01.2.02.34.02.45-.01M173.297 2.11q0 .015 0 0l.17.06c-.07-.02-.11-.04-.17-.06M243.648.83c.05.1.14.17.24.25 0-.06-.06-.13-.24-.25m17.54.8-.43-.08c.16.06.3.08.43.08m-26.642 0c-.24-.04-.32-.12-.64-.05.03.03.06.05.1.07.12-.08.27-.11.54-.02m-9.468 0c.05.04.12.08.17.11l.3-.03zM41.659 5.6c-.21-.16-.34-.33-.44-.51.15.41-1.24.55.44.51m319.48-.98c-.06.14-.14.21-.28.24l.32-.03c.02-.08.03-.16-.04-.21M234.166 6.06l-1.51-.08c.42.05.97.08 1.51.08m-124.535-.54-.35.07c.14.01.26 0 .35-.07m118.561.54c-.27-.2-.55-.31-.85-.39-.06.04-.13.08-.17.15zM41.219 5.09q.015.015 0 0 .015.015 0 0"/><path d="M31.31 6.43c1.43.02.67-.72.98-1.15 1.71-.21.79.54 1.37.92 1.07-.2 1.89-.87 2.69-.85.06.12.21.17.03.32 1.13-.59 3.35-.03 4.67-.77.1.07.15.13.17.18-.21-.37-.25-.75-.2-1.01.64-.01 1.19-.47 1.44.02-.39-.01-.43.18-.61.33l.67-.21c.61.69-.92.24-.92.75 1.31-.23 2.84-.8 3.85-.6.21.68-2.35.23-1.01.83l-1.56-.26c1.19 1.07-.95-.07.15 1.07 2.05.2 2.29-.35 4.34-.15.46-.38-.15-.56.31-.94 2.91-.68 2.29 1.71 4.42.8.55-.45.77-1.31 2.29-.86l-.52.77c1.98.08 1.13-1.1 3.21-.59-.37.3-1.56.25-1.26.35 1.35.61.95-.44 1.99-.44l.21.68c2.11-.11 4.44-.6 6.78-.72-.13.2-.53.41.02.62 2.95-.34 6.3.08 9.15.49l1.09-.59c.25.01.47.27.2.38 1.11.22.06-.37.59-.6.63-.04.83.34.43.51 1.96-.5 5.58-1.07 7.64-.44l-.4.17c1.61.24 1.81-1.2 3.3-.66l-.29.1c3.49.25 7.34-.28 10 .6.51-.85 3.45.38 3.669-.8 1.99.58 1.42.8 4.22 1.19.75.05 1.12-.74 2.04-.86l.02.62 1.26-.65.67.74.87-.16c-.35-.04-.74-.28-.68-.45 1.36-.28 3.31.43 3.34.74l3.21-.52c-.07.25-.61.33-1.03.49 1.71-.63.31.65 1.88.07-.21-.14.11-.37.15-.49.78.37 2.56.38 3.88.22l-.25.42c2.38.11 5.02-.2 7.69-.2-.96-.2-.74-.93.05-1.01l.31.65c.51-.4-.82-.25.22-.74 1 .08.67.74.1.95l1.21-.23c.07.19-.21.3-.29.54.5-.4 2.09.65 2.81-.05l.07.19c2.67.01 3.88-.22 6.06-.25.04-.56.89-.44 1.54-.89 1.6.18 3.37.62 5.3.57 1.35-.28.4-.48 1-.81.1.51 2.02.46 1.03.83 2.31-.08 2.95-.1 5.88-.52-.32-.21-.67-.3-.49-.48.53-.08 1.21.21 1.13.46l-.14.05c3.28-.77 7.57 1.49 10.19.43l-.15.05 2.7-.48c1.25.09-.75.38.17.7 2.92-.86 4.62.12 7.03-.45 1.86 1.51 6.61-.11 9.13.86l-.15-.36c.65-.35.79.2 1.27.29-.07-.28-.71-.32-.3-.51 5.51-.43 11.37.52 17.01.84 2.06.1 1.17-1.84 3.77-.99l-.74.66c4.17-.79 8.52.03 12.6-.65-.24.15-.25.35-.65.35.86.48 3.19.02 3.2-.37.64.04.15.35.54.55.86.28 2.17-.61 2.63-.14.08.08-.24.16-.4.19.56-.23 2.62.06 2.08-.49 1.53.26 2.93-.25 4.15.08.8-.62 2.62.3 2.87-.58-.11.9 2.68.73 3.65.3-.32.27.84.28.46.66 1.1-.01 2.12-.18 1.92-.65 2.04 1.08 4.09-.87 5.24.52 3.28-.49 6.32-.82 9.27-1.03-.11.9-3.26.09-3.14 1.04 2.8-.37 4.42-1.15 7.19-.93.72.12-.41.39-.65.55 2.8-.37 5.41.08 7.9-.41-.01.08-.28.18-.53.24.49-.03 1.14.13 1.09-.28l-.48.11c-.78-.6 1.95-1.24 2.04-1.56-.83 1.18 2.46.3 1.14 1.78.32-.08.73-.27.65-.55.48.08.63.24.15.55 1.76-.22 1.13-.66 2.73-.65-.01.2-.33.28-.49.51.81-.39 1.62-.77 2.96-.61-.08.12.08.28-.33.27 2.31-.06 3.94-1.03 6.47-.66-.75.86.86.28 1 1.03l1.36-.22-.55-.36c1.19.01 2.25-.53 3.28-.29l-.89.31 2.24-.14-1.27-.28c1.21-.38-.13-.94 1.46-.74-.32.08 1.19.01 1.82.45.59-.24 1.2-.49 2.08-.3.23.24-.18.83-.04.98.58-.62 2.8-.17 3.53-.84-.25.16-.26.55-.18.63l.49-.51c.55.16.63.24.54.55 1.66.09-.53-.95 1.45-.54-.15.04-.08.12-.4.19 1.98.21 3.83-.32 5.65-.07.54.75-1.59.18-.98.82 2.63-.14 5.44-.9 7.98-.72l-.47-.08c.35-1.06 1.89.52 3.18.02-.31.08-.41.59-.33.47 1.74.17 3.56-.26 6.2-.59l-.33.27c1.03.24 2.7.14 3.81.26.33-.27.96-.23.58-.62 3.42 1.55 6.52-.83 9.55.46-.36 0-.86.24-.58.24l2.58-.25c-.2-.46-.34-.28-.88-.64.33-.27 1.06-.49 1.7-.49-1.16.31.01.74.51 1-.08-.14.09-.3.05-.44 1.35.82.23-.93 2.07-.38l-.1.24c.69-.12 1.32-.44 2.07-.38.31.53-.73.25-.78.69 1.04-.03 2.06-1.01 3.01-.48-.44.15-1.08.15-1.53.3 1.03.63 1.15.47 1.91.57l-.08-.01 1.77.28-.45-.17c1.31-1.39 2.66-.25 4.42-1.17-1.71.86-.28.5-.41 1.11.45.17 1.13.36.94.53.83-.49 1.39.39 2.56-.33.05.2.89.02.7.51 1.08-.15-.26-.34-.16-.58 1.67-.67 3.92.81 6.32-.11 2.07-.38 2.45-1.03 4.37-1.36.65.31-.53.71-.53.71 1.05.29 1.83.23 2.82.01-.2.17.01.31.31.53.79-.05.53-.71 1.57-.42-.18.22-.41.57-.79.78.93-.18 1.85-.54 2.82-.72.26.34-.58.52-.92.74 1.08-.15 2.81-.31 3.14-.85l-.7-.19c.39-.03.2.46-.09.56-.93.42-1.34-.19-1.39-.38l.69-.13c-.71-1.14-2.76.18-4.14.12l.58-.83-1.42.69c-.3-.22-.51-.68.17-.81-.99-.41-.88.3-1.73-.16-.09-.07-.05-.11.04-.14l-.97.25c.19-.17-.16-.59.43-.47-1.74-.48-2.8.62-3.46-.01l.15-.05c-2.41.28-.23.61-2.04 1.33l-1.22-1.51-.24.61c-.25-.02-.74-.07-.65-.31-.93.42.16.27-.38.66-1.2-.56-3.3.26-3.57-.71-.43.46 1.15.36-.13.68-.36-1.05-1.48.18-2.57-.3.34-.54 1.37-.25.28-.74-.66.91-2.13-.2-3.05-.03-.04.73-2.01.3-3.55.55.1-.24-2.91-.4-4.35-.66l.04-.12c-.28.73-1.76.6-2.85.75.04-.44.24-.61.82-.81h-1.02c-.24.24-.56.36-1.22.44l.26-.55c-1.35.03-2.73.65-4.47.28-.1.51 1.39 1.43-.46 1.77-.07-.28-.14-.75.35-.86-.16.04-.56.23-.88.11l.74-.47c-.79-.2-.41.39-1.05.35.01-.39-.47-.28-.38-.6.16-.04.55.16.8.01-.71-.07-1.58-.3-1.86-.6.06.22 0 .53-.52.58-1.35.03-.46-.48-1.25-.68-.33.27-1.19-.01-1.21.58-.4 0-.47-.28-.62-.44-.7.26-3.27.07-2.48.7l.18.04c-.03.01-.07.01-.11.03h.01-.01c-2.3.59-4.77-.33-7.05-.08v-.2c-1.36.23-3.03.13-4 .56-.4 0-.95-.36-.78-.6-1.04.15-1.16.37-2.66.04 1.05-.34-.36-.31 1.07-.25-1.35-.17-1.66-.49-3.11.05.49-.51-1.02-.64-1.66-.49l.95.36c-.72.07-1.35.03-1.99-.01l.35-.67c-2.76-.81-4.98 1.38-7.09.02-.73.47 1.5.33.85.87-1.27-.09-2.6-1.04-2.99-1.05-1.74-.37-1.62.97-3.45.72.23.24.45.87-.91 1.09-1.27-.09-1.56-1-.76-1.19.31-.02.45.06.44.14.41-.09.95-.19.45-.45l-.17.24c-.63-.24-2.38-.22-1.97-.61-.96.23-.41.39.3.51-1.63-.34-2.55-.01-4.23-.24.27.13.51.41.25.41-2.46-.29-1.08.45-2.75.55-.95-.36.34-.86-1.34-.56-1.03-.24-.22-.63.19-.82-1.53.46-2.86-.3-3.74-.38l.81-.19c-.48.11-.88.11-1.28.11l.46.47c-.47-.08-.87-.08-.87-.28-.49.31.37.79-.59 1.21-.63-.24-1.92.26-2.14-.37 1.99.21-.22-.63 1.46-.73-.32.08-.72.07-1.19-.01-.07-.07.07-.13.2-.17-1.9-.56-.87.71-2.84.7.25-.36-.46-.67-.78-.6.79.01.38.59-.35.86-1.26-.28-1.37.21-2.03.17l.75.13c-.26.36-.89.31-1.77.42-.08-.28.8-.19.49-.31-.98.62-2.21-.65-3.57-.23-.63-.24-.06-.67-.62-.83-1.53.46-1.65-.49-3.26-.11.46.48.54.36-.59.83l2.64-.34-1.69.69c.8.01 1.68-.3 2.16-.22-.81.39-.72.27-.34.67-1.09-.72-2.16.42-3.42-.07l.04-1.18c-1.89-.53-3.36.61-5.82.31l.79.21c-.33.47-1.52.07-2.31.26.07-.39-.42-.54-.76-.78.04.29-1.8-.03-2.02.76l-1.1-.52c-1.99-.21-2.27 1.13-4.17.99.57-.43-.29-.71.99-1.02-.64 0-1.21-.08-1.22.2-.37-.25-1.77.53-2.35.16-.27.17-.36.59-1.07.55-.08-.08 0-.19 0-.19 0 .19-1.12.27-.49.7-1.96-1.23-5.49.09-7.2-.97-1.39.13-3.07.26-4.33.29.08-.12 0-.2.24-.16-1.74-.37-1.07 1.13-3.05.72-1.01-.64 1.05-.35.42-.59-.27-1.3-2.39.18-3.73-.58l.32-.08c-1.02-.44-2.49.49-4.15.4 0 0 .08-.11.01-.2-1.14.66-3.3.88-4.9 1.07.5-.51.73-.27.42-.79-.72.07.21.83-1.22.97-.47-.28-1.5-.52-1.64-1.07l1.35-.03c-.69-.71-1.75.02-2.46-.1l.09-.31c-2.07.1-2.1.89-4.33.83l.23.24c-1.22.78-1.02-.44-2.23.14l-.37-.79c-.8.19-2.81.76-4.25.91.82-.59 2.5-.88 3.54-1.23-.8-.01-2.71.06-3.12.45.32-.08.73-.27 1.04-.15-.98.62-2.26.93-3.85.91.28-1.53-4.14-.39-5.29-1.57-2.81.57-5.57-.24-8.84-.15 1.16 1.19-.95.03-.75 1.26-.76.08-1.05.06-1.12-.02l-2.31-.73c-.55-.36.72-.27.65-.54-1.67-.09-.7-.52-1.8-.84.23.44-.58.63-1.53.46l1.34.56c-2.33.65-2.01-1.03-4.36-.38l.74-.38c-1.21.23-4.45-.01-5.63.97-.21-.14-.49-.48.04-.56-2.88-.15-6.41 1.05-8.65.44l.22-.3c-.54.09-.94.56-1.61.26.03-.12.22-.3-.03-.32-.28.1-1.43.52-2.14.35l.61-.34c-2.81-.39-4.31.82-6.67 1.02.01-.88-2.2-1.17-3.31-1.31l.04-.12c-3.27-.11-5.56.73-8.59 1.08-1.88-.96-6.37-.4-9.39-.94.46.16-.08.69-.61.77-.71-.18-1.96.61-1.85-.2l.25.02c-.53-.79-1.99-.58-3.13-.6l-.19 1.06c-2.98-1.54-7.8.56-9.43-.81-.72.26-1.61.26-2.32.52l.04-.57c-1.99-.14-2.98-.22-5.45-.08l.5-.4C97.36.07 97 1.74 95.72 1.78l-.39-.85c-2.42.01-4.87-.73-7.26.04.04-.12.11-.37.5-.4-1.14-.02-4.41-.57-3.99.59-.03-.76-2.5-.07-3.81.26l.2-.56c-1.1.71-1.14.91-2.68 1.1-.37-.07-.32-.45.17-.3-1.22-.29-.95.53-2.42.23l.55-.36c-1.25-.04-1.15.15-1.84.56-.79.22-2.38-.14-2.56-.64-.19.4-.87.81-1.61.67-.1-.19.17-.31.3-.37-2.09-.38-3.11.65-4.55.1-.03-.18-.12-.28-.24-.33 1.66.01 3 .04 2.88.08 0-.51-1.34-.6-.27-1.31-1.08.39-2.92 1.23-4.23.99-.06-.05-.13-.1-.17-.18l.14-.06c-.3-.05-.57 0-.83.08-.42-.08-.68-.15-1.08-.15-.15-.42-1.54-.23-2.21-.25.06.56-.82.47 0 .94-.11-.04.13-.07.57-.09.1-.02.22-.02.29-.06-.01.02-.03.03-.05.05.44-.02 1.01-.03 1.67-.04-.53.29-1.08.53-1.82.21-.34.36-.72.73-.94.91-.92-.78-2.68-1.21-2.93-1.69-2.05.32-4.82.21-6.11 1.26-.58.14-.67-.3-.89-.47.34-.11.74-.09.92-.24-1.16.27-3.45.11-3.72.84-1.47-.33.82-.68-1.19-.56l.27-.23c-3.96-1.18-6.44 1.88-10.84.37.3.09.46.14.52.26-5.01-.67-10.32.63-15.26-.43-1.4-.21-1.56.26-2.41.62l-.3-.6-1.47.7c-2.08.51-3.6-1.48-6.23-.52l.34.41c-.97-.08-3.02.24-2.87-.23-.09.07-.31.42-.67.21l-.03-.32-2.33.55c-1.8-.23.29-1.26-2.34-1.32-.98.12-2.78.92-2.41 1.13.39.02 1 .2 1.03.52l-.89.16c-.16.93-.85 1.88 1.34 2.54l1.53-.57.49.45-1.28.03c.73.42 1.19.04 1.71-.21.12.24.34.41.64.5l1.5-.89c.18.36-.67.72.33.92.7-.41-.67-.82.49-1.09.73.42.52.77 1.37.41.12.24-.06.39-.4.5.76-.29 2.02-.12 2.41-.62.76.52 2.58-.14 2.5.75.24-.21 1.34-.69 2.05-.73-1.28 1.06 2.62.06 2.29 1.19.95-.95 3.42-.42 5.1-.95-.09.08-.28.23-.43.18.95.08 1.22.36 1.83.54.12-.78 1.59-.96 2.39-1.45 1.16.76-.7.92-.34 1.65-.06-.64 2.01-.63 1.62-1.16.89.47.76.23 1.22.88.16-.98.83-.17 1.56-.77 1.28.48.33.92 1.74.62.67.3-.58.65-.58.65m33.5-1.7v.01c-.29.01-.53.02-.69.03.14 0 .34-.01.69-.04m2.81 0c-.34-.03-.77-.03-1.22-.03-.1-.19.01-.39.29-.38-.15.13.51.24.93.41M61.67.83c.45-.08.59.03.66.15-.22 0-.46.02-.79.06-.01.02-.04.05-.05.07.04-.11.09-.21.18-.28"/><path d="M60.868 1.57c-.06.01-.1.04-.18.04.09.05.18.09.27.13.05-.06.11-.12.16-.18-.09 0-.18 0-.25.01m255.2.83-.06-.01c.05.02.09.04.12.08-.04-.03-.04-.05-.06-.07M106.5 5.8l-.01-.14-.24.12zm225.07-1.47c.03.05.09.1.2.14 0-.03-.09-.08-.2-.14m6.703.13.95.2c-.41-.12-.71-.17-.95-.2m5.149.27c.07-.1.08-.17.1-.24h-.01zm-81.881.66c-.07 0-.14.01-.2.03-.46.11-.15.07.2-.03m24.372-1.31c-.26.1-.51.2-.78.27.43.04.76.05.78-.27m-51.587 1.99c-.06-.01-.11-.01-.17-.01zm49.666-1.73c.43.11.8.09 1.13.01-.35-.04-.77-.1-1.13-.01m81.75.65.25.02q0-.06.03-.09zm.281-.07.28-.07c-.14.01-.24.01-.28.07"/><path d="m366.869 4.71-.58.14c.2.01.45.02.58-.14m-7.945.02-.08.2c.05-.04.07-.11.08-.2m-2.072.06c.49.05 1.24.43 1.93.31l.06-.16c-.32.3-1.52-.5-1.99-.15m-8.649-2.52 1.74.16c-.3-.22-.7-.51.09-.56-2.19-.65.45.49-1.83.4m-5.385-.32c.93-.1-.01-.32.04-.44-.59.2-.74.25-.04.44m-38.901 0 .089-.51c-.71.07.001.2-.089.51m-7.425 2.65.7.31.33-.47zM292.091.95l.32-.07-1.2.18zm-65.333.18.22.63c.49-.11.59-.82-.22-.63m-28.199.64c-.31-.32-1.1-.52-1.59-.21.63.05 1.27.3 1.59.21M113.977.75l.56-.21-1.06.17z"/></g><defs><clipPath id="a"><path fill="#fff" d="M0 0h372.14v6.47H0z"/></clipPath></defs></svg>