<svg xmlns="http://www.w3.org/2000/svg" width="32" height="32" fill="none" viewBox="0 0 32 32"><g clip-path="url(#a)"><path fill="url(#b)" d="M30.818 0H1.998c-.853 0-1.28 1.03-.677 1.633L30.368 30.68c.603.603 1.633.176 1.633-.677V1.183C32.001.53 31.471 0 30.818 0m-5.163 18.154a.377.377 0 0 1-.643.266L13.58 6.99a.377.377 0 0 1 .266-.644H25.19c.257 0 .466.209.466.466z"/><path fill="url(#c)" d="M30.813 4.026H6.059a.402.402 0 0 0-.284.687L31.73 30.668a.93.93 0 0 0 .266-.665V5.209c0-.653-.53-1.183-1.183-1.183M25.65 18.154a.377.377 0 0 1-.643.266L13.576 6.99a.377.377 0 0 1 .266-.644h11.342c.257 0 .466.209.466.466z"/><path fill="url(#d)" d="M31.655.346A1.18 1.18 0 0 0 30.818 0H1.999c-.853 0-1.28 1.03-.677 1.633L2.84 3.15h26.01z"/><path fill="url(#e)" d="m28.844 29.162 1.518 1.518c.603.603 1.633.176 1.633-.677V1.183c0-.327-.132-.622-.346-.836l-2.805 2.805z"/><path fill="url(#f)" d="M4.164.876v1.4a.344.344 0 0 1-.687 0v-1.4a.344.344 0 0 1 .687 0"/><path fill="url(#g)" d="M6.094.876v.716a.344.344 0 0 1-.688 0V.876a.344.344 0 0 1 .688 0"/><path fill="url(#h)" d="M8.016.876v.716a.344.344 0 0 1-.688 0V.876a.344.344 0 0 1 .688 0"/><path fill="url(#i)" d="M9.946.876v1.4a.344.344 0 1 1-.688 0v-1.4a.344.344 0 0 1 .688 0"/><path fill="url(#j)" d="M11.875.876v.716a.344.344 0 0 1-.687 0V.876a.344.344 0 0 1 .687 0"/><path fill="url(#k)" d="M13.797.876v.716a.344.344 0 0 1-.688 0V.876a.344.344 0 0 1 .688 0"/><path fill="url(#l)" d="M15.727.876v1.4a.344.344 0 0 1-.688 0v-1.4a.344.344 0 1 1 .688 0"/><path fill="url(#m)" d="M17.657.876v.716a.344.344 0 0 1-.688 0V.876a.344.344 0 1 1 .688 0"/><path fill="url(#n)" d="M19.578.876v.716a.344.344 0 0 1-.687 0V.876a.344.344 0 0 1 .687 0"/><path fill="url(#o)" d="M21.508.876v1.4a.344.344 0 0 1-.688 0v-1.4a.344.344 0 0 1 .688 0"/><path fill="url(#p)" d="M23.438.876v.716a.344.344 0 0 1-.688 0V.876a.344.344 0 0 1 .688 0"/><path fill="url(#q)" d="M25.36.876v.716a.344.344 0 0 1-.688 0V.876a.344.344 0 1 1 .688 0"/><path fill="url(#r)" d="M27.282.876v1.4a.344.344 0 0 1-.688 0v-1.4a.344.344 0 1 1 .688 0"/><path fill="url(#s)" d="M31.12 4.438h-1.401a.344.344 0 0 1 0-.688h1.4a.344.344 0 0 1 0 .688"/><path fill="url(#t)" d="M31.122 6.365h-.716a.344.344 0 0 1 0-.688h.716a.344.344 0 0 1 0 .688"/><path fill="url(#u)" d="M31.122 8.291h-.716a.344.344 0 0 1 0-.687h.716a.344.344 0 0 1 0 .687"/><path fill="url(#v)" d="M31.12 10.218h-1.401a.344.344 0 0 1 0-.688h1.4a.344.344 0 0 1 0 .688"/><path fill="url(#w)" d="M31.122 12.145h-.716a.344.344 0 0 1 0-.688h.716a.344.344 0 0 1 0 .688"/><path fill="url(#x)" d="M31.122 14.072h-.716a.344.344 0 0 1 0-.688h.716a.344.344 0 0 1 0 .688"/><path fill="url(#y)" d="M31.12 15.998h-1.401a.344.344 0 0 1 0-.687h1.4a.344.344 0 0 1 0 .687"/><path fill="url(#z)" d="M31.122 17.925h-.716a.344.344 0 1 1 0-.688h.716a.344.344 0 0 1 0 .688"/><path fill="url(#A)" d="M31.122 19.852h-.716a.344.344 0 0 1 0-.688h.716a.344.344 0 1 1 0 .688"/><path fill="url(#B)" d="M31.12 21.779h-1.401a.344.344 0 0 1 0-.688h1.4a.344.344 0 0 1 0 .688"/><path fill="url(#C)" d="M31.122 23.705h-.716a.344.344 0 0 1 0-.687h.716a.344.344 0 0 1 0 .687"/><path fill="url(#D)" d="M31.122 25.632h-.716a.344.344 0 0 1 0-.688h.716a.344.344 0 0 1 0 .688"/><path fill="url(#E)" d="M31.12 27.559h-1.401a.344.344 0 1 1 0-.688h1.4a.344.344 0 0 1 0 .688"/><path fill="#7B7B8A" d="M26.41 31.455h-.94a.784.784 0 0 1 0-1.57h.94a.784.784 0 0 1 0 1.57m-4.078 0h-.94a.784.784 0 0 1 0-1.57h.94a.784.784 0 0 1 0 1.57m-4.078 0h-.941a.784.784 0 0 1 0-1.57h.94a.784.784 0 0 1 0 1.57m-4.079 0h-.94a.784.784 0 0 1 0-1.57h.94a.784.784 0 1 1 0 1.57m-4.078 0h-.941a.784.784 0 0 1 0-1.57h.941a.784.784 0 0 1 0 1.57m-4.078 0h-.942a.784.784 0 0 1 0-1.57h.942a.784.784 0 1 1 0 1.57m-4.079 0H1.33a.784.784 0 0 1-.784-.785v-.332a.784.784 0 0 1 1.426-.451.784.784 0 0 1-.033 1.567m-.609-3.47a.784.784 0 0 1-.784-.784v-.942a.784.784 0 0 1 1.569 0v.942a.784.784 0 0 1-.785.784m0-4.078a.784.784 0 0 1-.784-.785v-.94a.784.784 0 1 1 1.569 0v.94a.784.784 0 0 1-.785.785m0-4.079a.784.784 0 0 1-.784-.784v-.941a.784.784 0 0 1 1.569 0v.94a.784.784 0 0 1-.785.785m0-4.078a.784.784 0 0 1-.784-.785v-.94a.784.784 0 0 1 1.569 0v.94a.784.784 0 0 1-.785.785m0-4.079a.784.784 0 0 1-.784-.784v-.941a.784.784 0 0 1 1.569 0v.94a.784.784 0 0 1-.785.785m0-4.078a.784.784 0 0 1-.784-.784v-.942a.784.784 0 0 1 1.569 0v.942a.784.784 0 0 1-.785.784"/><path fill="url(#F)" d="M1.668 32a1.668 1.668 0 1 0 0-3.336 1.668 1.668 0 0 0 0 3.337"/><path fill="url(#G)" d="M1.674 31.724a1.392 1.392 0 1 0 0-2.785 1.392 1.392 0 0 0 0 2.785"/><path fill="url(#H)" d="M2.41 28.84a1.668 1.668 0 0 1-2.238 2.238A1.668 1.668 0 1 0 2.41 28.84"/><path fill="url(#I)" d="M1.668 8.033a1.668 1.668 0 1 0 0-3.337 1.668 1.668 0 0 0 0 3.337"/><path fill="url(#J)" d="M1.674 7.757a1.392 1.392 0 1 0 0-2.784 1.392 1.392 0 0 0 0 2.784"/><path fill="url(#K)" d="M2.41 4.872A1.668 1.668 0 0 1 .172 7.11 1.668 1.668 0 1 0 2.41 4.873"/><path fill="url(#L)" d="M25.653 32a1.668 1.668 0 1 0 0-3.336 1.668 1.668 0 0 0 0 3.337"/><path fill="url(#M)" d="M25.658 31.724a1.392 1.392 0 1 0 0-2.784 1.392 1.392 0 0 0 0 2.784"/><path fill="url(#N)" d="M26.395 28.84a1.668 1.668 0 0 1-2.239 2.238 1.668 1.668 0 1 0 2.239-2.238"/></g><defs><linearGradient id="b" x1="14.856" x2="28.3994" y1="-6.86978" y2="57.6667" gradientUnits="userSpaceOnUse"><stop stop-color="#FF7044"/><stop offset="1" stop-color="#F92814"/></linearGradient><linearGradient id="c" x1="20.9659" x2="14.8095" y1="10.9354" y2="-6.84974" gradientUnits="userSpaceOnUse"><stop stop-color="#FF7044" stop-opacity="0"/><stop offset="1" stop-color="#FFA425"/></linearGradient><linearGradient id="d" x1="16.3471" x2="16.3471" y1="-0.101082" y2="9.71884" gradientUnits="userSpaceOnUse"><stop stop-color="#FF7044"/><stop offset="1" stop-color="#F92814"/></linearGradient><linearGradient id="e" x1="32.119" x2="26.5098" y1="15.6547" y2="15.6547" gradientUnits="userSpaceOnUse"><stop stop-color="#FF7044"/><stop offset="1" stop-color="#F92814"/></linearGradient><linearGradient id="f" x1="3.7404" x2="4.44798" y1="1.57637" y2="1.57637" gradientUnits="userSpaceOnUse"><stop stop-color="#FFDA45"/><stop offset="1" stop-color="#FFA425"/></linearGradient><linearGradient id="g" x1="5.67009" x2="6.37773" y1="1.23416" y2="1.23416" gradientUnits="userSpaceOnUse"><stop stop-color="#FFDA45"/><stop offset="1" stop-color="#FFA425"/></linearGradient><linearGradient id="h" x1="7.59203" x2="8.2996" y1="1.23416" y2="1.23416" gradientUnits="userSpaceOnUse"><stop stop-color="#FFDA45"/><stop offset="1" stop-color="#FFA425"/></linearGradient><linearGradient id="i" x1="9.52159" x2="10.2292" y1="1.57637" y2="1.57637" gradientUnits="userSpaceOnUse"><stop stop-color="#FFDA45"/><stop offset="1" stop-color="#FFA425"/></linearGradient><linearGradient id="j" x1="11.4514" x2="12.159" y1="1.23416" y2="1.23416" gradientUnits="userSpaceOnUse"><stop stop-color="#FFDA45"/><stop offset="1" stop-color="#FFA425"/></linearGradient><linearGradient id="k" x1="13.3732" x2="14.0808" y1="1.23416" y2="1.23416" gradientUnits="userSpaceOnUse"><stop stop-color="#FFDA45"/><stop offset="1" stop-color="#FFA425"/></linearGradient><linearGradient id="l" x1="15.3028" x2="16.0104" y1="1.57637" y2="1.57637" gradientUnits="userSpaceOnUse"><stop stop-color="#FFDA45"/><stop offset="1" stop-color="#FFA425"/></linearGradient><linearGradient id="m" x1="17.2327" x2="17.9402" y1="1.23416" y2="1.23416" gradientUnits="userSpaceOnUse"><stop stop-color="#FFDA45"/><stop offset="1" stop-color="#FFA425"/></linearGradient><linearGradient id="n" x1="19.1544" x2="19.862" y1="1.23416" y2="1.23416" gradientUnits="userSpaceOnUse"><stop stop-color="#FFDA45"/><stop offset="1" stop-color="#FFA425"/></linearGradient><linearGradient id="o" x1="21.0842" x2="21.7918" y1="1.57637" y2="1.57637" gradientUnits="userSpaceOnUse"><stop stop-color="#FFDA45"/><stop offset="1" stop-color="#FFA425"/></linearGradient><linearGradient id="p" x1="23.0139" x2="23.7215" y1="1.23416" y2="1.23416" gradientUnits="userSpaceOnUse"><stop stop-color="#FFDA45"/><stop offset="1" stop-color="#FFA425"/></linearGradient><linearGradient id="q" x1="24.9357" x2="25.6432" y1="1.23416" y2="1.23416" gradientUnits="userSpaceOnUse"><stop stop-color="#FFDA45"/><stop offset="1" stop-color="#FFA425"/></linearGradient><linearGradient id="r" x1="26.8577" x2="27.5652" y1="1.57637" y2="1.57637" gradientUnits="userSpaceOnUse"><stop stop-color="#FFDA45"/><stop offset="1" stop-color="#FFA425"/></linearGradient><linearGradient id="s" x1="30.4191" x2="30.4191" y1="4.0139" y2="4.72148" gradientUnits="userSpaceOnUse"><stop stop-color="#FFDA45"/><stop offset="1" stop-color="#FFA425"/></linearGradient><linearGradient id="t" x1="30.7643" x2="30.7643" y1="5.9406" y2="6.64824" gradientUnits="userSpaceOnUse"><stop stop-color="#FFDA45"/><stop offset="1" stop-color="#FFA425"/></linearGradient><linearGradient id="u" x1="30.7643" x2="30.7643" y1="7.86736" y2="8.57493" gradientUnits="userSpaceOnUse"><stop stop-color="#FFDA45"/><stop offset="1" stop-color="#FFA425"/></linearGradient><linearGradient id="v" x1="30.4191" x2="30.4191" y1="9.79418" y2="10.5018" gradientUnits="userSpaceOnUse"><stop stop-color="#FFDA45"/><stop offset="1" stop-color="#FFA425"/></linearGradient><linearGradient id="w" x1="30.7643" x2="30.7643" y1="11.7208" y2="12.4284" gradientUnits="userSpaceOnUse"><stop stop-color="#FFDA45"/><stop offset="1" stop-color="#FFA425"/></linearGradient><linearGradient id="x" x1="30.7643" x2="30.7643" y1="13.6477" y2="14.3553" gradientUnits="userSpaceOnUse"><stop stop-color="#FFDA45"/><stop offset="1" stop-color="#FFA425"/></linearGradient><linearGradient id="y" x1="30.4191" x2="30.4191" y1="15.5744" y2="16.282" gradientUnits="userSpaceOnUse"><stop stop-color="#FFDA45"/><stop offset="1" stop-color="#FFA425"/></linearGradient><linearGradient id="z" x1="30.7643" x2="30.7643" y1="17.5011" y2="18.2087" gradientUnits="userSpaceOnUse"><stop stop-color="#FFDA45"/><stop offset="1" stop-color="#FFA425"/></linearGradient><linearGradient id="A" x1="30.7643" x2="30.7643" y1="19.428" y2="20.1355" gradientUnits="userSpaceOnUse"><stop stop-color="#FFDA45"/><stop offset="1" stop-color="#FFA425"/></linearGradient><linearGradient id="B" x1="30.4191" x2="30.4191" y1="21.3546" y2="22.0622" gradientUnits="userSpaceOnUse"><stop stop-color="#FFDA45"/><stop offset="1" stop-color="#FFA425"/></linearGradient><linearGradient id="C" x1="30.7643" x2="30.7643" y1="23.2814" y2="23.989" gradientUnits="userSpaceOnUse"><stop stop-color="#FFDA45"/><stop offset="1" stop-color="#FFA425"/></linearGradient><linearGradient id="D" x1="30.7643" x2="30.7643" y1="25.2082" y2="25.9157" gradientUnits="userSpaceOnUse"><stop stop-color="#FFDA45"/><stop offset="1" stop-color="#FFA425"/></linearGradient><linearGradient id="E" x1="30.4191" x2="30.4191" y1="27.1349" y2="27.8424" gradientUnits="userSpaceOnUse"><stop stop-color="#FFDA45"/><stop offset="1" stop-color="#FFA425"/></linearGradient><linearGradient id="F" x1="1.04408" x2="3.20471" y1="29.7081" y2="31.8687" gradientUnits="userSpaceOnUse"><stop stop-color="#92F37F"/><stop offset="1" stop-color="#4AB272"/></linearGradient><linearGradient id="G" x1="1.87366" x2="0.844391" y1="30.6154" y2="29.1562" gradientUnits="userSpaceOnUse"><stop stop-color="#92F37F" stop-opacity="0"/><stop offset="1" stop-color="#FFEE83"/></linearGradient><linearGradient id="H" x1="1.72206" x2="4.01507" y1="30.9715" y2="26.7068" gradientUnits="userSpaceOnUse"><stop stop-color="#4AB272" stop-opacity="0"/><stop offset="1" stop-color="#009245"/></linearGradient><linearGradient id="I" x1="1.04408" x2="3.20471" y1="5.74031" y2="7.90093" gradientUnits="userSpaceOnUse"><stop stop-color="#92F37F"/><stop offset="1" stop-color="#4AB272"/></linearGradient><linearGradient id="J" x1="1.87366" x2="0.844388" y1="6.64864" y2="5.18938" gradientUnits="userSpaceOnUse"><stop stop-color="#92F37F" stop-opacity="0"/><stop offset="1" stop-color="#FFEE83"/></linearGradient><linearGradient id="K" x1="1.72206" x2="4.01508" y1="7.00371" y2="2.73899" gradientUnits="userSpaceOnUse"><stop stop-color="#4AB272" stop-opacity="0"/><stop offset="1" stop-color="#009245"/></linearGradient><linearGradient id="L" x1="25.0284" x2="27.189" y1="29.7081" y2="31.8687" gradientUnits="userSpaceOnUse"><stop stop-color="#92F37F"/><stop offset="1" stop-color="#4AB272"/></linearGradient><linearGradient id="M" x1="25.858" x2="24.8288" y1="30.6154" y2="29.1562" gradientUnits="userSpaceOnUse"><stop stop-color="#92F37F" stop-opacity="0"/><stop offset="1" stop-color="#FFEE83"/></linearGradient><linearGradient id="N" x1="25.7065" x2="27.9995" y1="30.9715" y2="26.7068" gradientUnits="userSpaceOnUse"><stop stop-color="#4AB272" stop-opacity="0"/><stop offset="1" stop-color="#009245"/></linearGradient><clipPath id="a"><path fill="#fff" d="M0 0h32v32H0z"/></clipPath></defs></svg>