<svg xmlns="http://www.w3.org/2000/svg" width="32" height="32" fill="none" viewBox="0 0 32 32"><g clip-path="url(#a)"><path fill="url(#b)" d="M4.525 13.45a4.353 4.353 0 1 0 0-8.706 4.353 4.353 0 0 0 0 8.706"/><path fill="url(#c)" d="M4.516 12.73a3.633 3.633 0 1 0 0-7.265 3.633 3.633 0 0 0 0 7.265"/><path fill="url(#d)" d="M6.466 5.203a4.353 4.353 0 0 1-5.841 5.841 4.353 4.353 0 1 0 5.841-5.84"/><path fill="url(#e)" d="m8.123 11.535-1.654-.546 1.155 1.155a4.4 4.4 0 0 0 .499-.609"/><path fill="url(#f)" d="M6.041 9.527c.252-.633.97-.941 1.603-.689l3.518 1.402a1.234 1.234 0 0 1-.913 2.292L6.73 11.13a1.234 1.234 0 0 1-.689-1.603"/><path fill="url(#g)" d="M17.803 22.246a8.217 8.217 0 1 0 0-16.434 8.217 8.217 0 0 0 0 16.434"/><path fill="url(#h)" d="M17.804 20.887a6.858 6.858 0 1 0 0-13.716 6.858 6.858 0 0 0 0 13.716"/><path fill="url(#i)" d="M21.48 6.679a8.217 8.217 0 0 1-11.027 11.027A8.217 8.217 0 1 0 21.48 6.678"/><path fill="url(#j)" d="M26.019 14.276q.004-.123.004-.247a8.2 8.2 0 0 0-2.375-5.777l-1.859 1.794z"/><path fill="url(#k)" d="m20.773 19.371.564 2.079q.505-.24.969-.546z"/><path fill="url(#l)" d="M19.404 18.953a1.234 1.234 0 0 1 1.562.778l1.204 3.59a1.234 1.234 0 0 1-2.34.785l-1.203-3.591a1.234 1.234 0 0 1 .777-1.562"/><path fill="url(#m)" d="M21.783 10.046a1.234 1.234 0 0 1 0-1.745l3.897-3.897a1.234 1.234 0 0 1 1.745 1.745l-3.897 3.897a1.234 1.234 0 0 1-1.745 0"/><path fill="url(#n)" d="M27.478 8.706a4.353 4.353 0 1 0 0-8.706 4.353 4.353 0 0 0 0 8.706"/><path fill="url(#o)" d="M27.484 7.985a3.633 3.633 0 1 0 0-7.265 3.633 3.633 0 0 0 0 7.265"/><path fill="url(#p)" d="M29.427.459A4.353 4.353 0 0 1 23.586 6.3a4.353 4.353 0 1 0 5.84-5.841"/><path fill="url(#q)" d="M22.587 31.999a4.353 4.353 0 1 0 0-8.706 4.353 4.353 0 0 0 0 8.706"/><path fill="url(#r)" d="M22.586 31.28a3.633 3.633 0 1 0 0-7.266 3.633 3.633 0 0 0 0 7.265"/><path fill="url(#s)" d="M25.545 24.445a4.353 4.353 0 0 1-7.233 3.99 4.353 4.353 0 1 0 7.233-3.99"/></g><defs><linearGradient id="b" x1="2.89608" x2="8.53379" y1="7.46834" y2="13.106" gradientUnits="userSpaceOnUse"><stop stop-color="#FF7044"/><stop offset="1" stop-color="#F92814"/></linearGradient><linearGradient id="c" x1="5.03786" x2="2.35211" y1="9.83805" y2="6.03043" gradientUnits="userSpaceOnUse"><stop stop-color="#FF7044" stop-opacity="0"/><stop offset="1" stop-color="#FFA425"/></linearGradient><linearGradient id="d" x1="4.66999" x2="10.6532" y1="10.7652" y2="-0.362804" gradientUnits="userSpaceOnUse"><stop stop-color="#F92814" stop-opacity="0"/><stop offset="1" stop-color="#C1272D"/></linearGradient><linearGradient id="e" x1="8.1709" x2="7.41137" y1="12.7377" y2="11.4569" gradientUnits="userSpaceOnUse"><stop stop-color="#F92814" stop-opacity="0"/><stop offset="1" stop-color="#C1272D"/></linearGradient><linearGradient id="f" x1="8.94055" x2="8.44907" y1="10.6985" y2="11.8154" gradientUnits="userSpaceOnUse"><stop stop-color="#7E8595"/><stop offset="1" stop-color="#555A66"/></linearGradient><linearGradient id="g" x1="14.7288" x2="25.3717" y1="10.9544" y2="21.5973" gradientUnits="userSpaceOnUse"><stop stop-color="#92F37F"/><stop offset="1" stop-color="#4AB272"/></linearGradient><linearGradient id="h" x1="18.7894" x2="13.7192" y1="15.4268" y2="8.23876" gradientUnits="userSpaceOnUse"><stop stop-color="#92F37F" stop-opacity="0"/><stop offset="1" stop-color="#FFEE83"/></linearGradient><linearGradient id="i" x1="18.0893" x2="29.3845" y1="17.1789" y2="-3.82871" gradientUnits="userSpaceOnUse"><stop stop-color="#4AB272" stop-opacity="0"/><stop offset="1" stop-color="#009245"/></linearGradient><linearGradient id="j" x1="26.7857" x2="21.8373" y1="13.2158" y2="8.26744" gradientUnits="userSpaceOnUse"><stop stop-color="#4AB272" stop-opacity="0"/><stop offset="1" stop-color="#009245"/></linearGradient><linearGradient id="k" x1="22.908" x2="20.7038" y1="21.9879" y2="20.1114" gradientUnits="userSpaceOnUse"><stop stop-color="#4AB272" stop-opacity="0"/><stop offset="1" stop-color="#009245"/></linearGradient><linearGradient id="l" x1="21.604" x2="19.265" y1="21.5084" y2="22.2931" gradientUnits="userSpaceOnUse"><stop stop-color="#7E8595"/><stop offset="1" stop-color="#555A66"/></linearGradient><linearGradient id="m" x1="23.7198" x2="25.4642" y1="6.34565" y2="8.09006" gradientUnits="userSpaceOnUse"><stop stop-color="#7E8595"/><stop offset="1" stop-color="#555A66"/></linearGradient><linearGradient id="n" x1="25.8493" x2="31.4869" y1="2.7242" y2="8.36193" gradientUnits="userSpaceOnUse"><stop stop-color="#18CFFC"/><stop offset="1" stop-color="#4A98F7"/></linearGradient><linearGradient id="o" x1="28.0067" x2="25.321" y1="5.093" y2="1.28538" gradientUnits="userSpaceOnUse"><stop stop-color="#18CFFC" stop-opacity="0"/><stop offset="1" stop-color="#65E1DC"/></linearGradient><linearGradient id="p" x1="27.631" x2="33.6142" y1="6.02102" y2="-5.10694" gradientUnits="userSpaceOnUse"><stop stop-color="#0469BC" stop-opacity="0"/><stop offset="1" stop-color="#0469BC"/></linearGradient><linearGradient id="q" x1="21.4873" x2="25.3378" y1="25.6656" y2="32.6507" gradientUnits="userSpaceOnUse"><stop stop-color="#FFDA45"/><stop offset="1" stop-color="#FFA425"/></linearGradient><linearGradient id="r" x1="22.8944" x2="21.3719" y1="28.5409" y2="24.1351" gradientUnits="userSpaceOnUse"><stop stop-color="#FFDA45" stop-opacity="0"/><stop offset="1" stop-color="#FCEE21"/></linearGradient><linearGradient id="s" x1="22.2877" x2="31.1312" y1="29.3285" y2="20.2979" gradientUnits="userSpaceOnUse"><stop stop-color="#FFDA45" stop-opacity="0"/><stop offset="1" stop-color="#B53759"/></linearGradient><clipPath id="a"><path fill="#fff" d="M0 0h32v32H0z"/></clipPath></defs></svg>