<svg xmlns="http://www.w3.org/2000/svg" width="32" height="32" fill="none" viewBox="0 0 32 32"><g clip-path="url(#a)"><path fill="url(#b)" d="M16.508 5.93a6.06 6.06 0 0 1-4.285-1.774A6.46 6.46 0 0 0 7.65 2.262H5.563l.007.008a.43.43 0 0 0-.351.423v12.255h3.158V5.35l.187.206q.077.085.157.165a6.04 6.04 0 0 0 4.326 1.815 6.04 6.04 0 0 0 3.602-1.188c.18-.133.082-.419-.14-.419"/><path fill="url(#c)" d="M8.255 14.304c.551 1.478-.823 3.356-3.069 4.193s-4.513.318-5.064-1.16c-.552-1.48.822-3.356 3.068-4.194 2.246-.837 4.514-.317 5.065 1.161"/><path fill="url(#d)" d="M16.646 6.35a6.02 6.02 0 0 1-3.603 1.187 6.05 6.05 0 0 1-4.483-1.98l-.187-.206v9.597h-1.92V2.693a.43.43 0 0 1 .351-.423l-.006-.008h.848q.544 0 1.071.09a6.46 6.46 0 0 1 3.502 1.804 6.05 6.05 0 0 0 4.285 1.775c.224 0 .32.285.142.418"/><path fill="url(#e)" d="M6.89 14.453c.4 1.167-.598 2.649-2.23 3.31s-3.28.25-3.681-.916c-.4-1.167.598-2.65 2.23-3.31 1.632-.662 3.28-.251 3.681.916"/><path fill="url(#f)" d="M28.202 2.886c-.043-.387-.371-.672-.737-.618l-14.68 2.167c-.325.047-.566.348-.566.703v16.27h3.277V7.593l9.434-1.392v13.061h3.277V2.887z"/><path fill="url(#g)" d="M28.198 3.246v16.018H24.92V6.202l-9.435 1.392v13.814h-2.33V6.086c0-.355.242-.656.566-.704z"/><path fill="url(#h)" d="M15.322 20.249c.77 2.242-1.148 5.09-4.284 6.36-3.136 1.269-6.302.48-7.071-1.761-.77-2.242 1.148-5.09 4.284-6.36s6.302-.481 7.071 1.761"/><path fill="url(#i)" d="M28.033 18.105c.77 2.242-1.148 5.089-4.284 6.359s-6.302.481-7.071-1.76c-.77-2.243 1.148-5.09 4.284-6.36s6.302-.482 7.071 1.76"/><path fill="url(#j)" d="M13.706 20.425c.61 1.779-.911 4.037-3.399 5.045-2.488 1.007-5 .382-5.61-1.397s.912-4.037 3.4-5.045c2.487-1.007 4.999-.382 5.609 1.397"/><path fill="url(#k)" d="M26.628 18.522c.61 1.778-.911 4.037-3.399 5.044-2.488 1.008-5 .383-5.61-1.396s.911-4.038 3.399-5.045c2.488-1.008 5-.382 5.61 1.396"/><path fill="url(#l)" d="M23.43 15.757v8.828q.16-.057.32-.122c2.148-.87 3.725-2.48 4.257-4.13z"/><path fill="url(#m)" d="M21.762 16.065a8.7 8.7 0 0 0-1.546.624l-2.208 7.659c1.395.888 3.575.993 5.741.116l.107-.046z"/><path fill="url(#n)" d="m15.27 22.55-3.653-3.652 1.99 6.094c.793-.734 1.37-1.581 1.663-2.442"/><path fill="url(#o)" d="m12.786 25.658-1.977-5.899-1.274-.023L7.89 24.11a1.655 1.655 0 0 1-1.55 1.072H4.11c.958 1.983 3.957 2.63 6.931 1.426a8.7 8.7 0 0 0 1.745-.95"/><path fill="url(#p)" d="M25.758 23.562a.406.406 0 0 1-.397-.315l-1.556-6.63a2.51 2.51 0 0 0-2.395-1.957 2.51 2.51 0 0 0-2.507 1.81l-3.24 10.848a.385.385 0 0 1-.386.29.385.385 0 0 1-.393-.281l-2.33-7.146a2.51 2.51 0 0 0-2.346-1.75 2.51 2.51 0 0 0-2.434 1.623L6.52 23.301a.41.41 0 0 1-.381.26H1.065a1.065 1.065 0 0 0 0 2.13H6.14a2.55 2.55 0 0 0 2.367-1.624l1.253-3.246a.39.39 0 0 1 .392-.26c.107.002.3.042.377.28l2.33 7.147a2.5 2.5 0 0 0 2.41 1.75h.034a2.495 2.495 0 0 0 2.4-1.811l3.24-10.848c.075-.248.263-.295.403-.29.143.004.326.061.386.314l1.556 6.63a2.53 2.53 0 0 0 2.47 1.958h5.177a1.065 1.065 0 0 0 0-2.13z"/></g><defs><linearGradient id="b" x1="7.18976" x2="18.7186" y1="8.69253" y2="11.0996" gradientUnits="userSpaceOnUse"><stop stop-color="#18CFFC"/><stop offset="1" stop-color="#4A98F7"/></linearGradient><linearGradient id="c" x1="4.22895" x2="5.6581" y1="15.9103" y2="19.0793" gradientUnits="userSpaceOnUse"><stop stop-color="#18CFFC"/><stop offset="1" stop-color="#4A98F7"/></linearGradient><linearGradient id="d" x1="9.67314" x2="4.6541" y1="9.3361" y2="7.56167" gradientUnits="userSpaceOnUse"><stop stop-color="#18CFFC" stop-opacity="0"/><stop offset="1" stop-color="#65E1DC"/></linearGradient><linearGradient id="e" x1="4.10455" x2="2.78641" y1="16.0551" y2="12.9118" gradientUnits="userSpaceOnUse"><stop stop-color="#18CFFC" stop-opacity="0"/><stop offset="0.0527" stop-color="#1FD1F9" stop-opacity="0.053"/><stop offset="0.3027" stop-color="#3ED8EC" stop-opacity="0.303"/><stop offset="0.5478" stop-color="#53DDE3" stop-opacity="0.548"/><stop offset="0.7837" stop-color="#61E0DE" stop-opacity="0.784"/><stop offset="1" stop-color="#65E1DC"/></linearGradient><linearGradient id="f" x1="17.998" x2="23.452" y1="5.42946" y2="21.9245" gradientUnits="userSpaceOnUse"><stop stop-color="#92F37F"/><stop offset="1" stop-color="#4AB272"/></linearGradient><linearGradient id="g" x1="23.9357" x2="10.0199" y1="15.7459" y2="1.1457" gradientUnits="userSpaceOnUse"><stop stop-color="#92F37F" stop-opacity="0"/><stop offset="1" stop-color="#FFEE83"/></linearGradient><linearGradient id="h" x1="7.50689" x2="13.185" y1="19.5517" y2="27.5113" gradientUnits="userSpaceOnUse"><stop stop-color="#92F37F"/><stop offset="1" stop-color="#4AB272"/></linearGradient><linearGradient id="i" x1="21.0326" x2="24.9871" y1="17.6393" y2="25.9031" gradientUnits="userSpaceOnUse"><stop stop-color="#92F37F"/><stop offset="1" stop-color="#4AB272"/></linearGradient><linearGradient id="j" x1="9.8807" x2="6.17975" y1="23.3373" y2="17.4056" gradientUnits="userSpaceOnUse"><stop stop-color="#92F37F" stop-opacity="0"/><stop offset="1" stop-color="#FFEE83"/></linearGradient><linearGradient id="k" x1="22.8025" x2="19.1016" y1="21.4339" y2="15.5023" gradientUnits="userSpaceOnUse"><stop stop-color="#92F37F" stop-opacity="0"/><stop offset="1" stop-color="#FFEE83"/></linearGradient><linearGradient id="l" x1="25.488" x2="20.8111" y1="22.1987" y2="16.9135" gradientUnits="userSpaceOnUse"><stop stop-color="#4AB272" stop-opacity="0"/><stop offset="1" stop-color="#009245"/></linearGradient><linearGradient id="m" x1="21.8161" x2="19.3826" y1="21.0517" y2="20.025" gradientUnits="userSpaceOnUse"><stop stop-color="#4AB272" stop-opacity="0"/><stop offset="1" stop-color="#009245"/></linearGradient><linearGradient id="n" x1="15.3967" x2="9.19893" y1="24.097" y2="19.3061" gradientUnits="userSpaceOnUse"><stop stop-color="#4AB272" stop-opacity="0"/><stop offset="1" stop-color="#009245"/></linearGradient><linearGradient id="o" x1="10.049" x2="7.08318" y1="25.1799" y2="22.2141" gradientUnits="userSpaceOnUse"><stop stop-color="#4AB272" stop-opacity="0"/><stop offset="1" stop-color="#009245"/></linearGradient><linearGradient id="p" x1="15.4021" x2="17.5693" y1="22.3605" y2="30.5731" gradientUnits="userSpaceOnUse"><stop stop-color="#FFDA45"/><stop offset="1" stop-color="#FFA425"/></linearGradient><clipPath id="a"><path fill="#fff" d="M0 0h32v32H0z"/></clipPath></defs></svg>