<svg xmlns="http://www.w3.org/2000/svg" width="32" height="32" fill="none" viewBox="0 0 32 32"><g clip-path="url(#a)"><path fill="url(#b)" d="M2.898 6.872h1.66v18.092h-1.66z"/><path fill="url(#c)" d="M4.561 25.759H3.027a.495.495 0 0 1-.496-.496v-.68c0-.274.222-.496.496-.496H4.56z"/><path fill="url(#d)" d="M9.58 14.59H4.113L2.918 7.304c-.064-.4.03-.808.259-1.142a14.3 14.3 0 0 1 2.45-2.73 1.382 1.382 0 0 1 2.266.827z"/><path fill="url(#e)" d="M9.579 14.59 7.892 4.26a1.37 1.37 0 0 0-.328-.697 1.36 1.36 0 0 0-1.11.32c-.928.8-1.753 1.718-2.449 2.73a1.57 1.57 0 0 0-.258 1.142l1.12 6.834z"/><path fill="url(#f)" d="M27.438 6.872h1.658v18.092h-1.658z"/><path fill="url(#g)" d="M27.438 9.586v15.378h1.658v-13.72z"/><path fill="url(#h)" d="M27.438 25.759h1.534a.495.495 0 0 0 .496-.496v-.68a.495.495 0 0 0-.496-.496h-1.535z"/><path fill="url(#i)" d="M22.422 14.59h5.467l1.194-7.285c.065-.4-.029-.808-.258-1.142a14.3 14.3 0 0 0-2.45-2.73 1.382 1.382 0 0 0-2.266.827z"/><path fill="url(#j)" d="m27.888 14.59 1.194-7.284c.065-.4-.029-.809-.258-1.143q-.422-.61-.903-1.174-.463-.48-.97-.918a1.382 1.382 0 0 0-2.267.827l-1.582 9.692z"/><path fill="url(#k)" d="M24.703 14.59h3.184l.643-3.918-3.827-3.826z"/><path fill="url(#l)" d="M19.734 7.469h-7.468V3.734A3.74 3.74 0 0 1 16 0a3.74 3.74 0 0 1 3.734 3.734zM14.14 5.594h3.72v-1.86c0-1.025-.835-1.86-1.86-1.86s-1.86.835-1.86 1.86z"/><path fill="url(#m)" d="M25.276 31.08a47.2 47.2 0 0 1-18.55 0 3.36 3.36 0 0 1-2.703-3.298V15.074c0-6.615 5.363-11.977 11.978-11.977s11.978 5.362 11.978 11.977v12.708a3.36 3.36 0 0 1-2.703 3.298"/><path fill="url(#n)" d="M17.493 4.59c-6.615 0-11.977 5.362-11.977 11.977v12.708c0 .54.128 1.055.359 1.512q.397.2.85.293a47.2 47.2 0 0 0 18.55 0 3.36 3.36 0 0 0 2.702-3.298V15.074c0-2.927-1.05-5.609-2.794-7.69a11.93 11.93 0 0 0-7.69-2.794"/><path fill="url(#o)" d="M21.988 4.7a12.7 12.7 0 0 1 1.999 6.855v13.53a3.58 3.58 0 0 1-2.877 3.51 50.3 50.3 0 0 1-16.82.497 3.36 3.36 0 0 0 2.436 1.989 47.2 47.2 0 0 0 18.55 0 3.36 3.36 0 0 0 2.703-3.298V15.075c0-4.434-2.41-8.305-5.99-10.376"/><path fill="url(#p)" d="M25.279 31.08a3.36 3.36 0 0 0 2.702-3.298v-6.601l-2.22-2.22a2.92 2.92 0 0 0-1.9-.923 95.4 95.4 0 0 0-15.716 0 2.91 2.91 0 0 0-2.61 2.296 16 16 0 0 0 0 6.62 2.9 2.9 0 0 0 .863 1.525l3.065 3.065a47.2 47.2 0 0 0 15.816-.464"/><path fill="url(#q)" d="M4.023 27.012v.77a3.36 3.36 0 0 0 2.703 3.298 47.2 47.2 0 0 0 18.55 0 3.36 3.36 0 0 0 2.702-3.297v-.771z"/><path fill="url(#r)" d="M6.133 22.783a.318.318 0 0 0-.6.145v.034a1.125 1.125 0 0 0-.806 1.078v1.846c0 .345.156.654.4.86l4.87 4.87q1.969.252 3.948.338v-.945c0-.31-.126-.592-.33-.795z"/><path fill="url(#s)" d="M23.862 29.25a95.4 95.4 0 0 1-15.717 0 2.91 2.91 0 0 1-2.61-2.297 16 16 0 0 1 0-6.619 2.91 2.91 0 0 1 2.61-2.296 95.4 95.4 0 0 1 15.717 0 2.91 2.91 0 0 1 2.61 2.296 16 16 0 0 1 0 6.62 2.91 2.91 0 0 1-2.61 2.296"/><path fill="url(#t)" d="M26.473 20.335a2.91 2.91 0 0 0-2.61-2.296q-.457-.038-.915-.071a15.95 15.95 0 0 1-.036 6.436 2.91 2.91 0 0 1-2.61 2.297q-7.401.61-14.802.07l.036.183a2.91 2.91 0 0 0 2.61 2.296q7.858.648 15.717 0a2.91 2.91 0 0 0 2.61-2.296 16 16 0 0 0 0-6.619"/><path fill="url(#u)" d="M23.856 29.25a2.91 2.91 0 0 0 2.61-2.297 16 16 0 0 0 0-6.619 3 3 0 0 0-.209-.629 2.9 2.9 0 0 0-1.24-.393 95.4 95.4 0 0 0-15.716 0 2.91 2.91 0 0 0-2.61 2.297 16 16 0 0 0 0 6.618q.07.332.21.63c.37.217.79.355 1.238.392q7.859.65 15.717 0"/><path fill="url(#v)" d="M5.238 22.371q-.045.565-.05 1.13A208 208 0 0 1 16 23.233c3.81 0 7.543.092 10.814.266q-.005-.564-.05-1.129A210 210 0 0 0 16 22.108a210 210 0 0 0-10.763.262"/><path fill="url(#w)" d="M26.445 23.272h-.016q-.552-.03-1.121-.057a.3.3 0 1 1 .028-.599q.57.027 1.125.057a.3.3 0 0 1-.016.6m-19.489-.07a.3.3 0 0 1-.013-.599q.555-.025 1.126-.047a.3.3 0 1 1 .022.6zm16.868-.05h-.012q-.555-.021-1.122-.039a.3.3 0 0 1 .019-.6l1.126.04a.3.3 0 0 1-.012.6m-14.245-.047a.3.3 0 0 1-.01-.6q.56-.017 1.127-.03a.3.3 0 0 1 .015.6zm11.622-.033h-.008q-.556-.014-1.122-.024a.3.3 0 1 1 .011-.6q.567.01 1.126.024a.3.3 0 0 1-.007.6m-8.998-.03a.3.3 0 0 1-.005-.6l1.127-.016h.003a.3.3 0 0 1 .004.6l-1.124.016zm6.375-.017h-.004q-.56-.006-1.123-.01a.3.3 0 0 1 .004-.6q.565.003 1.126.01a.3.3 0 0 1-.003.6m-3.75-.012a.3.3 0 0 1-.001-.6q.562-.003 1.126-.003a.3.3 0 1 1 0 .6q-.563 0-1.123.003z"/><path fill="url(#x)" d="M6.137 22.783a.318.318 0 0 0-.601.145v.034a1.1 1.1 0 0 0-.34.168c-.042 1.27.07 2.54.337 3.823q.029.135.069.264l1.908 1.908q.305.097.634.125 2.391.196 4.782.274z"/><path fill="url(#y)" d="M6.646 23.246a1.125 1.125 0 0 0-1.92.795v1.846a1.125 1.125 0 0 0 2.25 0V24.04c0-.31-.126-.592-.33-.795m-.795 1.441a.6.6 0 1 1 0-1.2.6.6 0 0 1 0 1.2"/><path fill="url(#z)" d="M5.854 23.037a1.05 1.05 0 1 0 0 2.099 1.05 1.05 0 0 0 0-2.099m0 1.65a.6.6 0 1 1 0-1.2.6.6 0 0 1 0 1.2"/><path fill="url(#A)" d="M5.85 23.846a.32.32 0 0 1-.319-.32v-.598a.319.319 0 1 1 .638 0v.599a.32.32 0 0 1-.319.319"/><path fill="url(#B)" d="M21.866 15.9H10.128A1.13 1.13 0 0 1 9 14.77v-3.217c0-.623.505-1.128 1.128-1.128h11.738c.623 0 1.128.505 1.128 1.128v3.217c0 .623-.505 1.128-1.128 1.128"/><path fill="url(#C)" d="M21.604 15.424H10.387a.996.996 0 0 1-.996-.997v-2.53c0-.55.446-.997.996-.997h11.217c.55 0 .996.446.996.997v2.53c0 .55-.446.997-.997.997"/><path fill="url(#D)" d="M15.995 12.544c2.255 0 4.483.032 6.605.095v-.742a1 1 0 0 0-.078-.386 230 230 0 0 0-13.054 0 1 1 0 0 0-.077.386v.742c2.122-.063 4.35-.095 6.604-.095"/><path fill="url(#E)" d="M14.084 11.672h-.004q-.566.002-1.126.007a.3.3 0 0 0 0 .6h.005q.559-.005 1.124-.007a.3.3 0 0 0 .001-.6"/><path fill="url(#F)" d="M11.45 11.698q-.566.01-1.125.022a.3.3 0 0 0 .004.6h.009q.556-.013 1.123-.022a.3.3 0 1 0-.01-.6"/><path fill="url(#G)" d="m16.709 11.678-1.127-.006a.3.3 0 0 0-.003.6h.001q.56 0 1.124.006a.3.3 0 1 0 .005-.6"/><path fill="url(#H)" d="M19.336 11.714q-.56-.011-1.125-.02a.3.3 0 1 0-.009.6q.563.008 1.123.02h.003a.3.3 0 0 0 .008-.6"/><path fill="url(#I)" d="m21.965 11.782-1.126-.033a.3.3 0 1 0-.016.6q.565.015 1.122.033h.008a.3.3 0 0 0 .012-.6"/><path fill="url(#J)" d="M10.235 11.86a.317.317 0 0 0-.601.146v.034a1.125 1.125 0 0 0-.806 1.078v1.846c0 .346.156.654.401.86l4.87 4.87a47 47 0 0 0 3.947.338v-.945c0-.31-.126-.591-.33-.795z"/><path fill="url(#K)" d="M10.748 12.323a1.125 1.125 0 0 0-1.92.795v1.846a1.125 1.125 0 0 0 2.25 0v-1.846c0-.31-.127-.592-.33-.795m-.795 1.441a.6.6 0 1 1 0-1.2.6.6 0 0 1 0 1.2"/><path fill="url(#L)" d="M9.956 12.114a1.05 1.05 0 1 0 0 2.1 1.05 1.05 0 0 0 0-2.1m0 1.65a.6.6 0 1 1 0-1.2.6.6 0 0 1 0 1.2"/><path fill="url(#M)" d="M9.952 12.923a.32.32 0 0 1-.32-.32v-.598a.319.319 0 0 1 .638 0v.599a.32.32 0 0 1-.318.319"/></g><defs><linearGradient id="b" x1="2.51569" x2="5.32743" y1="16.0957" y2="15.6834" gradientUnits="userSpaceOnUse"><stop stop-color="#FFDA45"/><stop offset="1" stop-color="#FFA425"/></linearGradient><linearGradient id="c" x1="3.27465" x2="3.987" y1="24.3345" y2="25.4218" gradientUnits="userSpaceOnUse"><stop stop-color="#FF7044"/><stop offset="1" stop-color="#F92814"/></linearGradient><linearGradient id="d" x1="3.71869" x2="6.2305" y1="6.63912" y2="9.52583" gradientUnits="userSpaceOnUse"><stop stop-color="#FF7044"/><stop offset="1" stop-color="#F92814"/></linearGradient><linearGradient id="e" x1="5.82916" x2="1.8552" y1="8.94152" y2="7.55441" gradientUnits="userSpaceOnUse"><stop stop-color="#FF7044" stop-opacity="0"/><stop offset="0.2503" stop-color="#FF813A" stop-opacity="0.25"/><stop offset="0.7194" stop-color="#FF9A2B" stop-opacity="0.719"/><stop offset="1" stop-color="#FFA425"/></linearGradient><linearGradient id="f" x1="29.4788" x2="26.6671" y1="16.0957" y2="15.6834" gradientUnits="userSpaceOnUse"><stop stop-color="#FFDA45"/><stop offset="1" stop-color="#FFA425"/></linearGradient><linearGradient id="g" x1="28.3678" x2="23.6816" y1="17.915" y2="14.6908" gradientUnits="userSpaceOnUse"><stop stop-color="#FFDA45" stop-opacity="0"/><stop offset="0.5194" stop-color="#D9874F" stop-opacity="0.519"/><stop offset="1" stop-color="#B53759"/></linearGradient><linearGradient id="h" x1="28.7243" x2="28.0119" y1="24.3345" y2="25.4218" gradientUnits="userSpaceOnUse"><stop stop-color="#FF7044"/><stop offset="1" stop-color="#F92814"/></linearGradient><linearGradient id="i" x1="28.2831" x2="25.7713" y1="6.63912" y2="9.52583" gradientUnits="userSpaceOnUse"><stop stop-color="#FF7044"/><stop offset="1" stop-color="#F92814"/></linearGradient><linearGradient id="j" x1="24.9139" x2="19.8152" y1="9.229" y2="4.69271" gradientUnits="userSpaceOnUse"><stop stop-color="#FF7044" stop-opacity="0"/><stop offset="0.2503" stop-color="#FF813A" stop-opacity="0.25"/><stop offset="0.7194" stop-color="#FF9A2B" stop-opacity="0.719"/><stop offset="1" stop-color="#FFA425"/></linearGradient><linearGradient id="k" x1="29.4487" x2="22.7005" y1="14.0397" y2="9.31597" gradientUnits="userSpaceOnUse"><stop stop-color="#F92814" stop-opacity="0"/><stop offset="0.0664" stop-color="#F32817" stop-opacity="0.066"/><stop offset="0.4333" stop-color="#D82723" stop-opacity="0.433"/><stop offset="0.7567" stop-color="#C7272A" stop-opacity="0.757"/><stop offset="1" stop-color="#C1272D"/></linearGradient><linearGradient id="m" x1="6.77701" x2="28.2213" y1="10.0284" y2="32.5226" gradientUnits="userSpaceOnUse"><stop stop-color="#18CFFC"/><stop offset="1" stop-color="#4A98F7"/></linearGradient><linearGradient id="n" x1="20.9729" x2="1.7779" y1="23.6154" y2="7.64459" gradientUnits="userSpaceOnUse"><stop stop-color="#18CFFC" stop-opacity="0"/><stop offset="1" stop-color="#65E1DC"/></linearGradient><linearGradient id="o" x1="15.8692" x2="39.1494" y1="19.8042" y2="14.0685" gradientUnits="userSpaceOnUse"><stop stop-color="#0469BC" stop-opacity="0"/><stop offset="1" stop-color="#0469BC"/></linearGradient><linearGradient id="p" x1="20.6304" x2="15.1819" y1="32.8522" y2="20.6054" gradientUnits="userSpaceOnUse"><stop stop-color="#0469BC" stop-opacity="0"/><stop offset="1" stop-color="#0469BC"/></linearGradient><linearGradient id="q" x1="16.001" x2="16.001" y1="29.6208" y2="32.1746" gradientUnits="userSpaceOnUse"><stop stop-color="#0469BC" stop-opacity="0"/><stop offset="1" stop-color="#0469BC"/></linearGradient><linearGradient id="r" x1="9.21742" x2="6.5931" y1="28.2978" y2="24.9737" gradientUnits="userSpaceOnUse"><stop stop-color="#0469BC" stop-opacity="0"/><stop offset="1" stop-color="#0469BC"/></linearGradient><linearGradient id="s" x1="12.9817" x2="20.3297" y1="18.7722" y2="30.6191" gradientUnits="userSpaceOnUse"><stop stop-color="#FFDA45"/><stop offset="1" stop-color="#FFA425"/></linearGradient><linearGradient id="t" x1="12.2637" x2="40.0814" y1="23.4642" y2="24.8888" gradientUnits="userSpaceOnUse"><stop stop-color="#FFDA45" stop-opacity="0"/><stop offset="0.5194" stop-color="#D9874F" stop-opacity="0.519"/><stop offset="1" stop-color="#B53759"/></linearGradient><linearGradient id="u" x1="17.0696" x2="10.6213" y1="24.9738" y2="15.8762" gradientUnits="userSpaceOnUse"><stop stop-color="#FFDA45" stop-opacity="0"/><stop offset="0.6245" stop-color="#FDE82B" stop-opacity="0.625"/><stop offset="1" stop-color="#FCEE21"/></linearGradient><linearGradient id="v" x1="15.9886" x2="16.0654" y1="23.7819" y2="21.6059" gradientUnits="userSpaceOnUse"><stop stop-color="#FFDA45"/><stop offset="1" stop-color="#FFA425"/></linearGradient><linearGradient id="w" x1="16.7006" x2="16.7006" y1="22.5475" y2="23.0224" gradientUnits="userSpaceOnUse"><stop stop-color="#FF7044"/><stop offset="1" stop-color="#F92814"/></linearGradient><linearGradient id="x" x1="9.82937" x2="1.90647" y1="28.258" y2="22.1346" gradientUnits="userSpaceOnUse"><stop stop-color="#FFDA45" stop-opacity="0"/><stop offset="0.5194" stop-color="#D9874F" stop-opacity="0.519"/><stop offset="1" stop-color="#B53759"/></linearGradient><linearGradient id="y" x1="5.19477" x2="7.99407" y1="24.5418" y2="26.3413" gradientUnits="userSpaceOnUse"><stop stop-color="#FF7044"/><stop offset="1" stop-color="#F92814"/></linearGradient><linearGradient id="A" x1="5.53125" x2="6.16881" y1="23.2275" y2="23.2275" gradientUnits="userSpaceOnUse"><stop stop-color="#FF7044"/><stop offset="1" stop-color="#F92814"/></linearGradient><linearGradient id="B" x1="17.1251" x2="12.4763" y1="16.1286" y2="3.90676" gradientUnits="userSpaceOnUse"><stop stop-color="#18CFFC"/><stop offset="1" stop-color="#4A98F7"/></linearGradient><linearGradient id="C" x1="15.8763" x2="16.1763" y1="11.6764" y2="15.4254" gradientUnits="userSpaceOnUse"><stop stop-color="#18CFFC"/><stop offset="1" stop-color="#4A98F7"/></linearGradient><linearGradient id="D" x1="15.9952" x2="15.9952" y1="12.3747" y2="10.9501" gradientUnits="userSpaceOnUse"><stop stop-color="#18CFFC"/><stop offset="1" stop-color="#4A98F7"/></linearGradient><linearGradient id="E" x1="13.5229" x2="13.5202" y1="11.7627" y2="12.1023" gradientUnits="userSpaceOnUse"><stop stop-color="#FFDA45"/><stop offset="1" stop-color="#FFA425"/></linearGradient><linearGradient id="F" x1="10.8976" x2="10.8948" y1="11.7919" y2="12.1394" gradientUnits="userSpaceOnUse"><stop stop-color="#FFDA45"/><stop offset="1" stop-color="#FFA425"/></linearGradient><linearGradient id="G" x1="16.1477" x2="16.1451" y1="11.7662" y2="12.0985" gradientUnits="userSpaceOnUse"><stop stop-color="#FFDA45"/><stop offset="1" stop-color="#FFA425"/></linearGradient><linearGradient id="H" x1="18.7723" x2="18.7696" y1="11.7924" y2="12.1286" gradientUnits="userSpaceOnUse"><stop stop-color="#FFDA45"/><stop offset="1" stop-color="#FFA425"/></linearGradient><linearGradient id="I" x1="21.3972" x2="21.3944" y1="11.8488" y2="12.1925" gradientUnits="userSpaceOnUse"><stop stop-color="#FFDA45"/><stop offset="1" stop-color="#FFA425"/></linearGradient><linearGradient id="J" x1="13.7871" x2="6.71394" y1="17.471" y2="12.1723" gradientUnits="userSpaceOnUse"><stop stop-color="#0469BC" stop-opacity="0"/><stop offset="1" stop-color="#0469BC"/></linearGradient><linearGradient id="K" x1="9.29633" x2="12.0956" y1="13.619" y2="15.4185" gradientUnits="userSpaceOnUse"><stop stop-color="#FF7044"/><stop offset="1" stop-color="#F92814"/></linearGradient><linearGradient id="M" x1="9.63281" x2="10.2704" y1="12.3046" y2="12.3046" gradientUnits="userSpaceOnUse"><stop stop-color="#FF7044"/><stop offset="1" stop-color="#F92814"/></linearGradient><radialGradient id="l" cx="0" cy="0" r="1" gradientTransform="translate(16 3.734)scale(3.2992)" gradientUnits="userSpaceOnUse"><stop stop-color="#FFA425"/><stop offset="0.2925" stop-color="#FFA727"/><stop offset="0.5496" stop-color="#FFB22D"/><stop offset="0.7925" stop-color="#FFC438"/><stop offset="1" stop-color="#FFDA45"/></radialGradient><radialGradient id="z" cx="0" cy="0" r="1" gradientTransform="translate(5.854 24.087)scale(.96232)" gradientUnits="userSpaceOnUse"><stop stop-color="#C1272D"/><stop offset="0.2642" stop-color="#C5272B" stop-opacity="0.736"/><stop offset="0.5348" stop-color="#D12726" stop-opacity="0.465"/><stop offset="0.8073" stop-color="#E6281D" stop-opacity="0.193"/><stop offset="1" stop-color="#F92814" stop-opacity="0"/></radialGradient><radialGradient id="L" cx="0" cy="0" r="1" gradientTransform="matrix(.96232 0 0 .96233 9.956 13.164)" gradientUnits="userSpaceOnUse"><stop stop-color="#C1272D"/><stop offset="0.2642" stop-color="#C5272B" stop-opacity="0.736"/><stop offset="0.5348" stop-color="#D12726" stop-opacity="0.465"/><stop offset="0.8073" stop-color="#E6281D" stop-opacity="0.193"/><stop offset="1" stop-color="#F92814" stop-opacity="0"/></radialGradient><clipPath id="a"><path fill="#fff" d="M0 0h32v32H0z"/></clipPath></defs></svg>