<svg xmlns="http://www.w3.org/2000/svg" width="32" height="32" fill="none" viewBox="0 0 32 32"><g clip-path="url(#a)"><path fill="url(#b)" d="m15.239 15.414-7.405 12.97a.303.303 0 0 1-.419.107A15.26 15.26 0 0 1 0 15.414C0 7.054 6.879.176 15.239.176c8.256 0 15.068 6.71 15.235 14.929a.3.3 0 0 1-.302.31z"/><path fill="url(#c)" d="M15.24 15.414 8.17 27.798A14.23 14.23 0 0 1 .984 15.414C.984 7.594 7.42 1.16 15.24 1.16s14.255 6.435 14.255 14.255z"/><path fill="url(#d)" d="M15.239 12.279c5.107 0 9.246-2.407 9.246-5.375s-4.14-5.375-9.246-5.375-9.247 2.407-9.247 5.375 4.14 5.374 9.247 5.374"/><path fill="url(#e)" d="M22.068 1.813a15.2 15.2 0 0 1 1.593 6.786c0 2.45-.58 4.764-1.606 6.815h8.42q0-.178-.004-.356l-.002-.077c-.163-5.729-3.554-10.708-8.4-13.168"/><path fill="url(#f)" d="M28.74 25.741a15.17 15.17 0 0 0 3.257-9.198.217.217 0 0 0-.217-.22H17.543a.277.277 0 0 0-.174.493l11.064 8.958a.217.217 0 0 0 .307-.033"/><path fill="url(#g)" d="M31.992 16.902H19.676a.277.277 0 0 0-.174.493l9.645 7.81a15.16 15.16 0 0 0 2.845-8.303"/><path fill="url(#h)" d="M31.784 16.323h-1.121a15.3 15.3 0 0 1-2.097 2.904 15.2 15.2 0 0 1-4.222 3.233l4.093 3.314a.217.217 0 0 0 .307-.033 15.17 15.17 0 0 0 3.258-9.198.217.217 0 0 0-.218-.22"/><path fill="url(#i)" d="M27.277 16.322a12 12 0 0 1-2.499 6.493l-7.41-6a.277.277 0 0 1 .175-.493z"/><path fill="url(#j)" d="m15.464 16.868-7.256 12.71a.28.28 0 0 0 .11.382 15.2 15.2 0 0 0 7.308 1.864 15.2 15.2 0 0 0 11.66-5.43.28.28 0 0 0-.035-.396L15.879 16.79a.277.277 0 0 0-.415.078"/><path fill="url(#k)" d="M15.627 31.824a15.2 15.2 0 0 0 11.424-5.155l-10.697-8.662a.277.277 0 0 0-.416.078l-6.97 12.209a15.2 15.2 0 0 0 6.659 1.53"/><path fill="url(#l)" d="m27.25 25.999-3.586-2.904c-2.85 4.04-7.553 6.678-12.872 6.678-.877 0-1.737-.073-2.574-.21l-.01.016a.28.28 0 0 0 .11.382 15.2 15.2 0 0 0 7.308 1.863 15.2 15.2 0 0 0 11.66-5.43.28.28 0 0 0-.035-.395"/><path fill="url(#m)" d="M24.187 23.517a12.05 12.05 0 0 1-8.954 3.972c-1.85 0-3.603-.416-5.17-1.16l5.4-9.461a.277.277 0 0 1 .416-.077z"/><path fill="url(#n)" d="M15.237 23.55a8.135 8.135 0 1 0 0-16.27 8.135 8.135 0 0 0 0 16.27"/><path fill="url(#o)" d="M15.235 23.025a7.61 7.61 0 1 0 0-15.22 7.61 7.61 0 0 0 0 15.22"/><path fill="url(#p)" d="M15.233 13.74c2.726 0 4.936-1.284 4.936-2.869 0-1.584-2.21-2.869-4.936-2.869s-4.936 1.285-4.936 2.87c0 1.584 2.21 2.868 4.936 2.868"/><path fill="url(#q)" d="M18.877 8.138A8.135 8.135 0 0 1 7.961 19.054 8.135 8.135 0 1 0 18.877 8.138"/><path fill="url(#r)" d="M22.35 19.368a8.15 8.15 0 0 1-4.47 3.743l-4.847-4.846-2.682-2.682q-.578-.477-.578-1.506v-2.086q0-1.028.578-1.506.577-.478 1.56-.478.976 0 1.564.478l2.217 2.218z"/><path fill="url(#s)" d="M23.371 15.414a8.1 8.1 0 0 1-1.024 3.954 8.15 8.15 0 0 1-4.47 3.743 8.1 8.1 0 0 1-3.328.409l-2.36-2.339a.76.76 0 0 1-.236-.536q0-.132.072-.28l1.005-2.1 2.659-5.562 1.402-2.931q.172-.368.606-.368a.92.92 0 0 1 .784.443l4.86 4.86q.03.35.03.707"/><path fill="url(#t)" d="M20.116 15.216q-.588-.478-1.564-.478-.984 0-1.56.478-.578.477-.578 1.506v2.086q0 1.029.577 1.506l2.207 2.206a8.16 8.16 0 0 0 3.741-4.479z"/><path fill="url(#u)" d="M14.064 14.077v-2.086q0-1.029-.588-1.507-.589-.477-1.565-.477-.983 0-1.56.477-.578.478-.578 1.507v2.086q0 1.029.578 1.506.577.478 1.56.478.975 0 1.565-.478.588-.477.588-1.506m-1.41 0q0 .705-.743.705-.726 0-.727-.705v-2.086q0-.706.727-.706.742 0 .742.706z"/><path fill="url(#v)" d="M18.565 10.183a.69.69 0 0 0-.272-.558.93.93 0 0 0-.596-.22q-.433 0-.606.367l-5.066 10.594a.6.6 0 0 0-.072.279q0 .294.236.536a.8.8 0 0 0 .588.243q.476 0 .65-.368l5.08-10.594a.6.6 0 0 0 .058-.279"/><path fill="url(#w)" d="M20.116 15.216q-.588-.478-1.564-.478-.984 0-1.56.478-.578.477-.578 1.506v2.086q0 1.029.577 1.506t1.561.478q.975 0 1.564-.478.588-.477.589-1.506v-2.086q0-1.029-.589-1.506m-.822 3.592q0 .706-.742.706-.727 0-.727-.706v-2.086q0-.705.727-.705.742 0 .742.705z"/></g><defs><linearGradient id="c" x1="15.2107" x2="2.03235" y1="15.4118" y2="2.23343" gradientUnits="userSpaceOnUse"><stop stop-color="#FFDA45" stop-opacity="0"/><stop offset="1" stop-color="#FCEE21"/></linearGradient><linearGradient id="d" x1="16.2466" x2="13.4756" y1="11.1728" y2="-0.56457" gradientUnits="userSpaceOnUse"><stop stop-color="#FFDA45" stop-opacity="0"/><stop offset="1" stop-color="#fff"/></linearGradient><linearGradient id="e" x1="24.4172" x2="32.6566" y1="12.0627" y2="-3.26152" gradientUnits="userSpaceOnUse"><stop stop-color="#FFDA45" stop-opacity="0"/><stop offset="1" stop-color="#B53759"/></linearGradient><linearGradient id="f" x1="23.9564" x2="31.3682" y1="15.9367" y2="23.0331" gradientUnits="userSpaceOnUse"><stop stop-color="#FF7044"/><stop offset="1" stop-color="#F92814"/></linearGradient><linearGradient id="g" x1="26.6262" x2="24.5761" y1="22.3541" y2="10.6846" gradientUnits="userSpaceOnUse"><stop stop-color="#FF7044" stop-opacity="0"/><stop offset="1" stop-color="#FFA425"/></linearGradient><linearGradient id="h" x1="27.9677" x2="34.7975" y1="21.6953" y2="8.9928" gradientUnits="userSpaceOnUse"><stop stop-color="#F92814" stop-opacity="0"/><stop offset="1" stop-color="#C1272D"/></linearGradient><linearGradient id="k" x1="16.7558" x2="9.34403" y1="26.5737" y2="15.2983" gradientUnits="userSpaceOnUse"><stop stop-color="#18CFFC" stop-opacity="0"/><stop offset="1" stop-color="#65E1DC"/></linearGradient><linearGradient id="l" x1="19.1916" x2="34.4093" y1="26.569" y2="11.2724" gradientUnits="userSpaceOnUse"><stop stop-color="#0469BC" stop-opacity="0"/><stop offset="1" stop-color="#0469BC"/></linearGradient><linearGradient id="n" x1="7.10156" x2="23.3715" y1="15.4143" y2="15.4143" gradientUnits="userSpaceOnUse"><stop stop-color="#F9F7FC"/><stop offset="1" stop-color="#F0DDFC"/></linearGradient><linearGradient id="o" x1="15.38" x2="8.24417" y1="15.4932" y2="11.6296" gradientUnits="userSpaceOnUse"><stop stop-color="#E9EDF5" stop-opacity="0"/><stop offset="1" stop-color="#fff"/></linearGradient><linearGradient id="p" x1="15.2331" x2="15.2331" y1="12.9699" y2="8.42768" gradientUnits="userSpaceOnUse"><stop stop-color="#E9EDF5" stop-opacity="0"/><stop offset="1" stop-color="#fff"/></linearGradient><linearGradient id="q" x1="16.1503" x2="35.2317" y1="16.7671" y2="7.30525" gradientUnits="userSpaceOnUse"><stop stop-color="#F0DDFC" stop-opacity="0"/><stop offset="0.2889" stop-color="#C8B7E0" stop-opacity="0.289"/><stop offset="0.5915" stop-color="#A595C8" stop-opacity="0.592"/><stop offset="0.8395" stop-color="#8F81B8" stop-opacity="0.84"/><stop offset="1" stop-color="#8779B3"/></linearGradient><linearGradient id="r" x1="15.7409" x2="6.63392" y1="16.8441" y2="10.0631" gradientUnits="userSpaceOnUse"><stop stop-color="#F0DDFC" stop-opacity="0"/><stop offset="0.2889" stop-color="#C8B7E0" stop-opacity="0.289"/><stop offset="0.5915" stop-color="#A595C8" stop-opacity="0.592"/><stop offset="0.8395" stop-color="#8F81B8" stop-opacity="0.84"/><stop offset="1" stop-color="#8779B3"/></linearGradient><linearGradient id="s" x1="18.1595" x2="12.6401" y1="17.4795" y2="14.5621" gradientUnits="userSpaceOnUse"><stop stop-color="#F0DDFC" stop-opacity="0"/><stop offset="0.2889" stop-color="#C8B7E0" stop-opacity="0.289"/><stop offset="0.5915" stop-color="#A595C8" stop-opacity="0.592"/><stop offset="0.8395" stop-color="#8F81B8" stop-opacity="0.84"/><stop offset="1" stop-color="#8779B3"/></linearGradient><linearGradient id="t" x1="21.7873" x2="15.0457" y1="19.8198" y2="16.7053" gradientUnits="userSpaceOnUse"><stop stop-color="#F0DDFC" stop-opacity="0"/><stop offset="0.2889" stop-color="#C8B7E0" stop-opacity="0.289"/><stop offset="0.5915" stop-color="#A595C8" stop-opacity="0.592"/><stop offset="0.8395" stop-color="#8F81B8" stop-opacity="0.84"/><stop offset="1" stop-color="#8779B3"/></linearGradient><linearGradient id="u" x1="11.9191" x2="13.9166" y1="13.0382" y2="22.3423" gradientUnits="userSpaceOnUse"><stop stop-color="#7E8595"/><stop offset="1" stop-color="#555A66"/></linearGradient><linearGradient id="v" x1="14.6248" x2="16.6224" y1="12.4565" y2="21.7607" gradientUnits="userSpaceOnUse"><stop stop-color="#7E8595"/><stop offset="1" stop-color="#555A66"/></linearGradient><linearGradient id="w" x1="17.2961" x2="19.2936" y1="11.8836" y2="21.1879" gradientUnits="userSpaceOnUse"><stop stop-color="#7E8595"/><stop offset="1" stop-color="#555A66"/></linearGradient><radialGradient id="b" cx="0" cy="0" r="1" gradientTransform="translate(10.147 7.551)scale(20.8358)" gradientUnits="userSpaceOnUse"><stop stop-color="#FFDA45"/><stop offset="0.3043" stop-color="#FFCE3E"/><stop offset="0.8558" stop-color="#FFAE2B"/><stop offset="1" stop-color="#FFA425"/></radialGradient><radialGradient id="i" cx="0" cy="0" r="1" gradientTransform="matrix(7.64023 0 0 7.64021 17.286 16.124)" gradientUnits="userSpaceOnUse"><stop stop-color="#C1272D"/><stop offset="0.5053" stop-color="#C3272C" stop-opacity="0.495"/><stop offset="0.6873" stop-color="#CA2729" stop-opacity="0.313"/><stop offset="0.817" stop-color="#D52724" stop-opacity="0.183"/><stop offset="0.9211" stop-color="#E6281C" stop-opacity="0.079"/><stop offset="1" stop-color="#F92814" stop-opacity="0"/></radialGradient><radialGradient id="j" cx="0" cy="0" r="1" gradientTransform="translate(15.233 16.675)scale(15.1613)" gradientUnits="userSpaceOnUse"><stop stop-color="#18CFFC"/><stop offset="1" stop-color="#4A98F7"/></radialGradient><radialGradient id="m" cx="0" cy="0" r="1" gradientTransform="matrix(7.73107 0 0 7.73106 16.139 17.575)" gradientUnits="userSpaceOnUse"><stop stop-color="#0469BC"/><stop offset="0.8532" stop-color="#0469BC" stop-opacity="0.147"/><stop offset="1" stop-color="#0469BC" stop-opacity="0"/></radialGradient><clipPath id="a"><path fill="#fff" d="M0 0h32v32H0z"/></clipPath></defs></svg>