<svg xmlns="http://www.w3.org/2000/svg" width="32" height="32" fill="none" viewBox="0 0 32 32"><path fill="url(#a)" d="M14.492 28.009c0-.585.451-1.067 1.034-1.116 6.328-.526 11.316-5.845 11.316-12.307 0-6.461-4.988-11.78-11.316-12.307a1.12 1.12 0 0 1-1.034-1.115V0c3.765 0 7.313 1.417 10.033 3.998a14.64 14.64 0 0 1 4.54 11.243 14.48 14.48 0 0 1-4.259 9.66 14.48 14.48 0 0 1-9.113 4.224 1.116 1.116 0 0 1-1.2-1.116"/><path fill="url(#b)" d="M15.693 29.125a14.48 14.48 0 0 0 9.114-4.224c2.6-2.6 4.098-6.01 4.258-9.66l.006-.214a14.64 14.64 0 0 0-4.545-10.173 14.47 14.47 0 0 0-8.824-3.95 1.12 1.12 0 0 0-1.124.688c.157.378.516.652.948.688 6.328.527 11.317 5.845 11.317 12.307q0 .214-.009.427.008.213.009.428c0 6.461-4.989 11.78-11.317 12.307-.432.036-.79.31-.948.688.179.432.618.728 1.115.688"/><path fill="url(#c)" d="M15.422 2.266q.05.009.1.013 1.165.1 2.26.403l-2.36-2.36z"/><path fill="url(#d)" d="M16.002 3.91h-3.025V1.513a1.513 1.513 0 1 1 3.025 0z"/><path fill="url(#e)" d="M12.977 25.218h3.025v3.91h-3.025z"/><path fill="url(#f)" d="M16.002 25.218h-3.025v.837l3.025 3.025z"/><path fill="url(#g)" d="M14.489 26.153c6.388 0 11.566-5.179 11.566-11.567S20.877 3.02 14.49 3.02 2.922 8.198 2.922 14.586 8.1 26.153 14.489 26.153"/><path fill="url(#h)" d="M22.636 8.503a11.5 11.5 0 0 0-1.258-.802q-.364-.662-.802-1.259c-1.62-2.204-3.78-3.418-6.084-3.418s-4.465 1.214-6.084 3.418q-.437.596-.802 1.26-.662.364-1.258.8c-2.205 1.62-3.418 3.78-3.418 6.085 0 2.304 1.213 4.465 3.418 6.084q.595.437 1.258.801.364.662.802 1.26c1.62 2.203 3.78 3.417 6.084 3.417s4.465-1.214 6.084-3.418q.437-.596.802-1.259.661-.364 1.258-.802c2.204-1.619 3.418-3.78 3.418-6.083s-1.213-4.465-3.418-6.084m-8.144 17.102c-.635 0-1.308-.946-1.84-2.56a15.7 15.7 0 0 0 3.68 0c-.532 1.614-1.205 2.56-1.84 2.56m0-2.997q-1.033 0-2.015-.135c-.362-1.282-.626-2.82-.776-4.501a40 40 0 0 0 5.582 0c-.15 1.68-.414 3.22-.776 4.501q-.982.134-2.015.135m0-19.04c.635 0 1.308.947 1.84 2.56a15.8 15.8 0 0 0-3.68 0c.532-1.613 1.205-2.56 1.84-2.56m0 2.997q1.033.002 2.015.135c.362 1.282.625 2.821.776 4.502a39 39 0 0 0-2.791-.098c-.953 0-1.89.033-2.791.098.15-1.68.414-3.22.776-4.502a15 15 0 0 1 2.015-.135m-2.938 8.022c0-.97.035-1.922.102-2.836a39 39 0 0 1 2.836-.103c.97 0 1.921.035 2.836.103.067.914.102 1.865.102 2.836s-.035 1.921-.102 2.836a39 39 0 0 1-2.836.102c-.97 0-1.922-.035-2.836-.102a39 39 0 0 1-.102-2.836m-.447 2.79c-1.68-.15-3.22-.413-4.502-.776a15 15 0 0 1 0-4.029c1.282-.362 2.822-.626 4.502-.776a39 39 0 0 0-.098 2.79c0 .954.034 1.89.098 2.792m6.77-5.581c1.68.15 3.22.414 4.502.776a15 15 0 0 1 0 4.03c-1.283.362-2.822.625-4.502.776a39.5 39.5 0 0 0 0-5.582m-.044-.55c-.143-1.648-.393-3.167-.737-4.454a13.2 13.2 0 0 1 3.878 1.313 13.2 13.2 0 0 1 1.313 3.877c-1.288-.343-2.806-.593-4.454-.737m-6.682 0c-1.647.143-3.166.393-4.454.736A13.2 13.2 0 0 1 8.01 8.105a13.2 13.2 0 0 1 3.878-1.313c-.344 1.288-.594 2.806-.737 4.453m-5.117 5.181c-1.614-.532-2.56-1.205-2.56-1.84s.946-1.308 2.56-1.84a15.8 15.8 0 0 0 0 3.68m5.117 1.501c.143 1.647.393 3.166.737 4.453a13.2 13.2 0 0 1-3.878-1.31 13.2 13.2 0 0 1-1.313-3.878c1.288.344 2.807.594 4.454.737m6.682 0c1.648-.143 3.166-.393 4.454-.737a13.2 13.2 0 0 1-1.313 3.878 13.2 13.2 0 0 1-3.878 1.312c.344-1.287.594-2.806.737-4.453m5.117-5.181c1.614.532 2.56 1.205 2.56 1.84s-.946 1.308-2.56 1.84a15.8 15.8 0 0 0 0-3.68m2.432.614c-.533-.454-1.377-.863-2.514-1.212a14 14 0 0 0-1.039-3.54c1.861 1.211 3.156 2.875 3.552 4.752M20.47 7.25a14 14 0 0 0-3.541-1.04c-.35-1.136-.758-1.98-1.212-2.513 1.877.397 3.54 1.692 4.753 3.553m-7.205-3.553c-.454.533-.862 1.377-1.212 2.514a14 14 0 0 0-3.54 1.039c1.211-1.861 2.875-3.156 4.752-3.553m-6.11 4.911a14 14 0 0 0-1.039 3.541c-1.137.35-1.98.758-2.513 1.212C4 11.484 5.293 9.82 7.155 8.608m-3.552 7.205c.532.454 1.376.862 2.513 1.211a14 14 0 0 0 1.039 3.541C5.294 19.354 4 17.69 3.603 15.813m4.91 6.11c1.094.491 2.288.842 3.542 1.04.349 1.136.757 1.98 1.211 2.513-1.877-.397-3.54-1.691-4.753-3.552m7.205 3.553c.454-.532.862-1.377 1.212-2.513a14 14 0 0 0 3.54-1.04c-1.211 1.862-2.875 3.156-4.752 3.553m6.111-4.91c.49-1.094.841-2.288 1.039-3.542 1.137-.349 1.98-.757 2.513-1.211-.396 1.876-1.69 3.54-3.552 4.752"/><path fill="url(#i)" d="M14.489 24.911c5.702 0 10.325-4.622 10.325-10.324 0-5.703-4.623-10.325-10.325-10.325S4.164 8.884 4.164 14.587 8.787 24.91 14.49 24.91"/><path fill="url(#j)" d="m13.415 15.069.447.447a.87.87 0 0 1 .256.618c0 .482.391.873.873.873a.91.91 0 0 1 .911.911 4.7 4.7 0 0 1-.4 1.9l-1.613 3.65a.777.777 0 0 1-1.26.236 3 3 0 0 1-.88-2.123v-.425c0-1.107-.44-2.169-1.223-2.952l-.047-.047a3.93 3.93 0 0 1-1.15-2.778v-.152c0-.723.585-1.309 1.308-1.309a3.93 3.93 0 0 1 2.778 1.15"/><path fill="url(#k)" d="M10.509 3.723A11.6 11.6 0 0 0 3.977 9.75a2.55 2.55 0 0 0 .52 2.855l.236.236a5.65 5.65 0 0 0 3.994 1.654.405.405 0 0 0 0-.81H7.482a1.04 1.04 0 0 1 0-2.08h.973a4.4 4.4 0 0 0 3.11-1.29l1.503-1.502c.327-.327.77-.51 1.233-.51.67 0 1.28-.383 1.57-.986a1.112 1.112 0 0 0-1-1.596h-1.94a1.03 1.03 0 0 1-1.03-1.032c0-.72-.717-1.215-1.392-.967"/><path fill="url(#l)" d="M14.875 5.722h-1.938c-.57 0-1.032-.462-1.032-1.032q0-.05-.005-.1a10.34 10.34 0 0 0-7.517 7.887q.057.066.119.128l.236.237a5.65 5.65 0 0 0 3.994 1.654.405.405 0 0 0 0-.81H7.487a1.04 1.04 0 1 1 0-2.081h.973a4.4 4.4 0 0 0 3.11-1.289l1.502-1.502c.328-.327.771-.51 1.234-.51.67 0 1.28-.384 1.57-.986a1.112 1.112 0 0 0-1-1.596"/><path fill="url(#m)" d="M25.786 12.094a1.59 1.59 0 0 0-1.555-1.242H21.73a2.68 2.68 0 0 0-2.682 2.683v.326a2.356 2.356 0 0 0 2.356 2.356c.662 0 1.198.537 1.198 1.198v3.128c0 .816 1.058 1.14 1.511.463a11.5 11.5 0 0 0 1.943-6.42c0-.855-.093-1.689-.269-2.492"/><path fill="url(#n)" d="M24.816 9.367h-3.455a1.119 1.119 0 0 1 0-2.238h1.973a11.6 11.6 0 0 1 1.482 2.238"/><path fill="url(#o)" d="M19.662 4.24a11.5 11.5 0 0 1 1.22 5.173c0 6.389-5.18 11.567-11.567 11.567-1.86 0-3.617-.44-5.174-1.22a11.57 11.57 0 0 0 10.347 6.393c6.388 0 11.566-5.179 11.566-11.567 0-4.528-2.602-8.448-6.392-10.347"/><path fill="url(#p)" d="M21.375 31.666H7.605a.67.67 0 0 1-.668-.668v-2.021c0-.37.3-.668.668-.668h13.77c.369 0 .668.299.668.668v2.021a.67.67 0 0 1-.668.668"/><path fill="url(#q)" d="M22.376 32H6.606a.67.67 0 0 1-.668-.668v-.378c0-.782.634-1.417 1.416-1.417h14.273c.783 0 1.417.635 1.417 1.417v.378a.67.67 0 0 1-.668.668"/><defs><linearGradient id="b" x1="21.6493" x2="23.6942" y1="10.189" y2="-9.30191" gradientUnits="userSpaceOnUse"><stop stop-color="#FFDA45" stop-opacity="0"/><stop offset="1" stop-color="#FCEE21"/></linearGradient><linearGradient id="c" x1="17.8233" x2="14.2468" y1="2.34736" y2="0.778751" gradientUnits="userSpaceOnUse"><stop stop-color="#FFDA45" stop-opacity="0"/><stop offset="1" stop-color="#B53759"/></linearGradient><linearGradient id="d" x1="13.5048" x2="16.0184" y1="1.62071" y2="3.41007" gradientUnits="userSpaceOnUse"><stop stop-color="#FFDA45"/><stop offset="1" stop-color="#FFA425"/></linearGradient><linearGradient id="e" x1="13.2826" x2="16.1589" y1="28.0319" y2="25.9844" gradientUnits="userSpaceOnUse"><stop stop-color="#FFDA45"/><stop offset="1" stop-color="#FFA425"/></linearGradient><linearGradient id="f" x1="16.4884" x2="12.3786" y1="27.8644" y2="23.284" gradientUnits="userSpaceOnUse"><stop stop-color="#FFDA45" stop-opacity="0"/><stop offset="1" stop-color="#B53759"/></linearGradient><linearGradient id="g" x1="8.88737" x2="22.9066" y1="8.98496" y2="23.0042" gradientUnits="userSpaceOnUse"><stop stop-color="#18CFFC"/><stop offset="1" stop-color="#4A98F7"/></linearGradient><linearGradient id="h" x1="16.2598" x2="12.0979" y1="27.3214" y2="-2.65897" gradientUnits="userSpaceOnUse"><stop stop-color="#18CFFC" stop-opacity="0"/><stop offset="1" stop-color="#65E1DC"/></linearGradient><linearGradient id="i" x1="16.9862" x2="5.46176" y1="17.0838" y2="5.55941" gradientUnits="userSpaceOnUse"><stop stop-color="#18CFFC" stop-opacity="0"/><stop offset="1" stop-color="#65E1DC"/></linearGradient><linearGradient id="j" x1="7.1446" x2="25.3691" y1="15.1892" y2="28.1203" gradientUnits="userSpaceOnUse"><stop stop-color="#92F37F"/><stop offset="1" stop-color="#4AB272"/></linearGradient><linearGradient id="k" x1="10.8531" x2="29.0776" y1="9.95039" y2="22.8815" gradientUnits="userSpaceOnUse"><stop stop-color="#92F37F"/><stop offset="1" stop-color="#4AB272"/></linearGradient><linearGradient id="l" x1="11.6564" x2="6.49356" y1="10.9007" y2="5.73789" gradientUnits="userSpaceOnUse"><stop stop-color="#92F37F" stop-opacity="0"/><stop offset="1" stop-color="#FFEE83"/></linearGradient><linearGradient id="m" x1="20.8034" x2="28.9703" y1="15.5732" y2="17.01" gradientUnits="userSpaceOnUse"><stop stop-color="#92F37F"/><stop offset="1" stop-color="#4AB272"/></linearGradient><linearGradient id="n" x1="22.101" x2="30.268" y1="8.21333" y2="9.65013" gradientUnits="userSpaceOnUse"><stop stop-color="#92F37F"/><stop offset="1" stop-color="#4AB272"/></linearGradient><linearGradient id="o" x1="16.6141" x2="32.5132" y1="15.8109" y2="-13.7592" gradientUnits="userSpaceOnUse"><stop stop-color="#0469BC" stop-opacity="0"/><stop offset="1" stop-color="#0469BC"/></linearGradient><linearGradient id="p" x1="14.4903" x2="14.4903" y1="28.7582" y2="30.1723" gradientUnits="userSpaceOnUse"><stop stop-color="#FFDA45"/><stop offset="1" stop-color="#FFA425"/></linearGradient><linearGradient id="q" x1="14.4908" x2="14.4908" y1="30.2584" y2="32.6682" gradientUnits="userSpaceOnUse"><stop stop-color="#FFDA45"/><stop offset="1" stop-color="#FFA425"/></linearGradient><radialGradient id="a" cx="0" cy="0" r="1" gradientTransform="translate(14.812 14.14)scale(14.663)" gradientUnits="userSpaceOnUse"><stop stop-color="#FFDA45"/><stop offset="0.509" stop-color="#FFD844"/><stop offset="0.6924" stop-color="#FFD140"/><stop offset="0.823" stop-color="#FFC639"/><stop offset="0.9279" stop-color="#FFB52F"/><stop offset="1" stop-color="#FFA425"/></radialGradient></defs></svg>