<svg xmlns="http://www.w3.org/2000/svg" width="32" height="32" fill="none" viewBox="0 0 32 32"><g clip-path="url(#a)"><path fill="url(#b)" d="M31.002 22.543H.998A1 1 0 0 1 0 21.545V1.14C0 .59.447.142.998.142h30.004c.551 0 .998.446.998.997v20.406a1 1 0 0 1-.998.998"/><path fill="url(#c)" d="M30.502 22.038H1.505a.96.96 0 0 1-.958-.959V1.606c0-.53.429-.959.958-.959h28.997c.529 0 .958.43.958.959v19.473c0 .53-.429.959-.958.959"/><path fill="url(#d)" d="M29.655 21.064H2.348a.8.8 0 0 1-.802-.802V2.422c0-.443.359-.802.802-.802h27.306c.442 0 .802.36.802.802v17.84c0 .443-.36.802-.803.802"/><path fill="url(#e)" d="M4.143 1.62H2.349a.8.8 0 0 0-.802.802v17.84c0 .443.359.802.802.802h1.794z"/><path fill="url(#f)" d="M29.655 1.62H2.348a.8.8 0 0 0-.802.802v1.453h28.91V2.422a.8.8 0 0 0-.803-.802"/><path fill="url(#g)" d="M2.288 21.064h27.305c.443 0 .802-.36.802-.803V2.422a.8.8 0 0 0-.223-.555L1.602 20.675c.14.233.394.389.686.389"/><path fill="url(#h)" d="M21.875 8.173v14.37H31a1 1 0 0 0 .998-.998v-3.25z"/><path fill="url(#i)" d="M28.18 19.424H3.823a.69.69 0 0 1-.69-.69V3.95a.69.69 0 0 1 .69-.69h24.356a.69.69 0 0 1 .69.69v14.784a.69.69 0 0 1-.69.69"/><path fill="url(#j)" d="M21.875 8.173v11.251h6.301a.69.69 0 0 0 .69-.69v-3.57z"/><path fill="url(#k)" d="M16.001 24.67a9.274 9.274 0 1 0 0-18.548 9.274 9.274 0 0 0 0 18.549"/><path fill="url(#l)" d="M16.004 24.073a8.676 8.676 0 1 0 0-17.352 8.676 8.676 0 0 0 0 17.352"/><path fill="url(#m)" d="M20.148 7.1A9.274 9.274 0 0 1 7.703 19.545 9.274 9.274 0 1 0 20.148 7.1"/><path fill="url(#n)" d="M16.003 13.432c3.108 0 5.627-1.465 5.627-3.271 0-1.807-2.52-3.271-5.627-3.271-3.108 0-5.628 1.464-5.628 3.27s2.52 3.272 5.628 3.272"/><path fill="#555A66" d="M23.535 9.988a7.78 7.78 0 0 0-4.974-1.799h-.057c-1.103 0-2.188-.154-3.235-.457a11.3 11.3 0 0 1 2.67-1.406 9 9 0 0 0-1.395-.187q-1.063.519-2.011 1.24l-.097.076a11.6 11.6 0 0 1-1.64-.764 9 9 0 0 0-.821.349c.583.364 1.196.68 1.83.94a12 12 0 0 0-1.511 1.617l-.04.051a16.3 16.3 0 0 0-2.958-.659 9 9 0 0 0-.574.66c1.05.1 2.087.307 3.09.615a12 12 0 0 0-1.182 2.23 3.6 3.6 0 0 0-2.706.55 3.64 3.64 0 0 0-1.127 1.204 9.4 9.4 0 0 0 .15 3.16c.014-.279.046-.87.096-1.556a2.9 2.9 0 0 1 1.283-2.212 2.87 2.87 0 0 1 2.052-.46 12.11 12.11 0 0 0 1.369 10.459q.622.324 1.295.55a11.38 11.38 0 0 1-1.969-10.817 6.56 6.56 0 0 1 4.3 5.559c.074.788.17 1.355.284 1.684a9.94 9.94 0 0 0 2.42 3.823q.412-.095.81-.225a9.2 9.2 0 0 1-2.55-3.834c-.093-.266-.18-.805-.247-1.515a7.28 7.28 0 0 0-4.766-6.167c.316-.773.718-1.509 1.199-2.196 5.093 1.836 8.895 6.216 9.971 11.517q.314-.307.596-.642c-1.24-5.25-5.05-9.572-10.116-11.477a11.4 11.4 0 0 1 1.6-1.63 12.3 12.3 0 0 0 3.93.64h.057a7.02 7.02 0 0 1 5.663 2.855l.524.719.049-.035a9.3 9.3 0 0 0-1.262-2.46"/><path fill="url(#o)" d="M14.568 8.269a12.3 12.3 0 0 0 3.93.64h.057c1.793 0 3.505.683 4.788 1.873a8.7 8.7 0 0 0-1.66-1.936 7.8 7.8 0 0 0-3.128-.657h-.057c-1.103 0-2.188-.154-3.235-.457q.776-.552 1.63-.965a9 9 0 0 0-1.436-.03q-.48.3-.93.642l-.097.076q-.455-.17-.896-.38-.479.142-.932.334.585.318 1.197.572a12 12 0 0 0-1.511 1.616l-.039.051a16 16 0 0 0-2.222-.548 9 9 0 0 0-.605.634c.809.114 1.607.29 2.384.53a12 12 0 0 0-1.182 2.23 3.59 3.59 0 0 0-3.05.811 8.7 8.7 0 0 0-.23 1.435 2.9 2.9 0 0 1 .976-1.1 2.87 2.87 0 0 1 2.052-.46 12.1 12.1 0 0 0 .743 9.39q.593.406 1.251.709a11.39 11.39 0 0 1-1.299-9.907 6.56 6.56 0 0 1 4.3 5.558c.074.79.17 1.356.284 1.685a9.9 9.9 0 0 0 1.937 3.311q.408-.075.803-.189a9.2 9.2 0 0 1-2.06-3.358c-.093-.267-.18-.805-.247-1.516a7.28 7.28 0 0 0-4.766-6.166 11.3 11.3 0 0 1 1.199-2.197 15.59 15.59 0 0 1 9.813 10.823q.3-.32.566-.669A16.31 16.31 0 0 0 12.968 9.9a11.4 11.4 0 0 1 1.6-1.63"/><path fill="url(#p)" d="M18.56 8.188h-.057c-1.103 0-2.188-.153-3.235-.457q.646-.459 1.346-.822a10 10 0 0 0-1.443.016q-.325.216-.639.454l-.096.076a12 12 0 0 1-.7-.29 7.4 7.4 0 0 0-.98.323q.513.27 1.049.492a12 12 0 0 0-1.512 1.617l-.039.05a16 16 0 0 0-1.64-.435 2.1 2.1 0 0 0-.223.688q.72.15 1.42.363a12 12 0 0 0-.81 1.4q.239.268.556.505c.273-.581.595-1.14.965-1.668a15.6 15.6 0 0 1 4.857 2.833q.46-.067.886-.177A16.3 16.3 0 0 0 12.973 9.9a11.4 11.4 0 0 1 1.6-1.63 12.3 12.3 0 0 0 3.93.64h.058c1.041 0 2.055.23 2.974.657a2.6 2.6 0 0 0-.637-1.018 7.8 7.8 0 0 0-2.337-.36"/><path fill="url(#q)" d="m24.789 12.445-.055-.157-.007-.022-.05-.137-.013-.031a9 9 0 0 0-.114-.286l-.015-.035-.053-.123-.015-.033-.057-.127-.013-.027-.065-.135-.008-.017A9 9 0 0 0 24 10.71l-.002-.003a9 9 0 0 0-.453-.698l-.016-.022a7.8 7.8 0 0 0-2.825-1.495q.127.405.216.825a6.97 6.97 0 0 1 3.298 2.447l.524.719.049-.036z"/><path fill="url(#r)" d="M15.998 31.859c-.568 0-1.05-.438-1.094-1.014a10.93 10.93 0 0 0-5.491-8.654 1.098 1.098 0 1 1 1.09-1.906 13.13 13.13 0 0 1 6.59 10.391 1.1 1.1 0 0 1-1.095 1.183"/><path fill="url(#s)" d="M11.655 31.859a1.1 1.1 0 0 1-1.093-1.014 10.93 10.93 0 0 0-5.493-8.654 1.098 1.098 0 0 1 1.09-1.907 13.13 13.13 0 0 1 6.592 10.392 1.1 1.1 0 0 1-1.096 1.183"/><path fill="url(#t)" d="M20.342 31.859a1.1 1.1 0 0 1-1.094-1.014 10.94 10.94 0 0 0-5.491-8.654 1.098 1.098 0 1 1 1.09-1.906 13.13 13.13 0 0 1 6.59 10.391 1.1 1.1 0 0 1-1.096 1.183"/><path fill="url(#u)" d="M16.006 31.859q-.043 0-.086-.004a1.1 1.1 0 0 1-1.01-1.179 13.13 13.13 0 0 1 6.59-10.391 1.098 1.098 0 1 1 1.09 1.906 10.94 10.94 0 0 0-5.491 8.654 1.1 1.1 0 0 1-1.093 1.014"/><path fill="url(#v)" d="M20.35 31.859q-.044 0-.087-.004a1.1 1.1 0 0 1-1.01-1.179 13.13 13.13 0 0 1 6.593-10.392 1.098 1.098 0 0 1 1.09 1.907 10.93 10.93 0 0 0-5.493 8.655 1.1 1.1 0 0 1-1.094 1.013"/><path fill="url(#w)" d="M11.654 31.859q-.042 0-.086-.004a1.1 1.1 0 0 1-1.01-1.179 13.13 13.13 0 0 1 6.591-10.391 1.098 1.098 0 1 1 1.09 1.906 10.94 10.94 0 0 0-5.491 8.654 1.1 1.1 0 0 1-1.094 1.014"/><path fill="url(#x)" d="M26.332 22.543H5.658a1.267 1.267 0 0 1 0-2.535h20.674a1.267 1.267 0 1 1 0 2.535"/></g><defs><linearGradient id="b" x1="14.0474" x2="24.4663" y1="6.40231" y2="32.7613" gradientUnits="userSpaceOnUse"><stop stop-color="#F9F7FC"/><stop offset="1" stop-color="#F0DDFC"/></linearGradient><linearGradient id="c" x1="29.18" x2="-8.52356" y1="24.519" y2="-13.1845" gradientUnits="userSpaceOnUse"><stop stop-color="#F9F7FC"/><stop offset="1" stop-color="#F0DDFC"/></linearGradient><linearGradient id="d" x1="14.2792" x2="23.4706" y1="6.98388" y2="30.2375" gradientUnits="userSpaceOnUse"><stop stop-color="#FF7044"/><stop offset="1" stop-color="#F92814"/></linearGradient><linearGradient id="e" x1="3.32726" x2="0.816711" y1="11.3419" y2="11.3419" gradientUnits="userSpaceOnUse"><stop stop-color="#F92814" stop-opacity="0"/><stop offset="1" stop-color="#C1272D"/></linearGradient><linearGradient id="f" x1="16.0018" x2="16.0018" y1="3.49877" y2="0.844901" gradientUnits="userSpaceOnUse"><stop stop-color="#F92814" stop-opacity="0"/><stop offset="1" stop-color="#C1272D"/></linearGradient><linearGradient id="g" x1="17.9647" x2="24.9456" y1="12.7218" y2="-14.961" gradientUnits="userSpaceOnUse"><stop stop-color="#F92814" stop-opacity="0"/><stop offset="1" stop-color="#C1272D"/></linearGradient><linearGradient id="h" x1="29.4392" x2="21.9934" y1="21.8172" y2="15.459" gradientUnits="userSpaceOnUse"><stop stop-color="#F92814" stop-opacity="0"/><stop offset="1" stop-color="#C1272D"/></linearGradient><linearGradient id="i" x1="14.5318" x2="22.3723" y1="7.62438" y2="27.4601" gradientUnits="userSpaceOnUse"><stop stop-color="#F9F7FC"/><stop offset="1" stop-color="#F0DDFC"/></linearGradient><linearGradient id="j" x1="30.8912" x2="17.8402" y1="21.8323" y2="10.2035" gradientUnits="userSpaceOnUse"><stop stop-color="#F0DDFC" stop-opacity="0"/><stop offset="0.2889" stop-color="#C8B7E0" stop-opacity="0.289"/><stop offset="0.5915" stop-color="#A595C8" stop-opacity="0.592"/><stop offset="0.8395" stop-color="#8F81B8" stop-opacity="0.84"/><stop offset="1" stop-color="#8779B3"/></linearGradient><linearGradient id="k" x1="6.72656" x2="25.2754" y1="15.3965" y2="15.3965" gradientUnits="userSpaceOnUse"><stop stop-color="#FF7044"/><stop offset="1" stop-color="#F92814"/></linearGradient><linearGradient id="l" x1="17.0396" x2="7.63213" y1="16.4322" y2="7.0247" gradientUnits="userSpaceOnUse"><stop stop-color="#FF7044" stop-opacity="0"/><stop offset="1" stop-color="#FFA425"/></linearGradient><linearGradient id="m" x1="16.3215" x2="29.0696" y1="18.9503" y2="-4.7594" gradientUnits="userSpaceOnUse"><stop stop-color="#F92814" stop-opacity="0"/><stop offset="1" stop-color="#C1272D"/></linearGradient><linearGradient id="n" x1="16.6159" x2="14.9295" y1="12.7588" y2="5.6153" gradientUnits="userSpaceOnUse"><stop stop-color="#F45227" stop-opacity="0"/><stop offset="1" stop-color="#FFDA45"/></linearGradient><linearGradient id="o" x1="11.7068" x2="4.82843" y1="10.8399" y2="3.73754" gradientUnits="userSpaceOnUse"><stop stop-color="#BEC3D2" stop-opacity="0"/><stop offset="0.5577" stop-color="#D4D9E4" stop-opacity="0.558"/><stop offset="1" stop-color="#E9EDF5"/></linearGradient><linearGradient id="p" x1="16.0746" x2="15.2748" y1="10.8119" y2="3.10173" gradientUnits="userSpaceOnUse"><stop stop-color="#BEC3D2" stop-opacity="0"/><stop offset="0.5577" stop-color="#D4D9E4" stop-opacity="0.558"/><stop offset="1" stop-color="#E9EDF5"/></linearGradient><linearGradient id="q" x1="22.4302" x2="23.222" y1="12.0216" y2="8.13448" gradientUnits="userSpaceOnUse"><stop stop-color="#555A66" stop-opacity="0"/><stop offset="1" stop-color="#333"/></linearGradient><linearGradient id="r" x1="8.85942" x2="17.097" y1="25.9993" y2="25.9993" gradientUnits="userSpaceOnUse"><stop stop-color="#4A98F7"/><stop offset="1" stop-color="#0469BC"/></linearGradient><linearGradient id="s" x1="4.51567" x2="12.7544" y1="25.9992" y2="25.9992" gradientUnits="userSpaceOnUse"><stop stop-color="#4A98F7"/><stop offset="1" stop-color="#0469BC"/></linearGradient><linearGradient id="t" x1="13.2032" x2="21.4408" y1="25.9992" y2="25.9992" gradientUnits="userSpaceOnUse"><stop stop-color="#4A98F7"/><stop offset="1" stop-color="#0469BC"/></linearGradient><linearGradient id="u" x1="23.1438" x2="14.9062" y1="25.9992" y2="25.9992" gradientUnits="userSpaceOnUse"><stop stop-color="#4A98F7"/><stop offset="1" stop-color="#0469BC"/></linearGradient><linearGradient id="v" x1="27.4887" x2="19.25" y1="25.9992" y2="25.9992" gradientUnits="userSpaceOnUse"><stop stop-color="#4A98F7"/><stop offset="1" stop-color="#0469BC"/></linearGradient><linearGradient id="w" x1="18.7923" x2="10.5547" y1="25.9992" y2="25.9992" gradientUnits="userSpaceOnUse"><stop stop-color="#4A98F7"/><stop offset="1" stop-color="#0469BC"/></linearGradient><linearGradient id="x" x1="15.995" x2="15.995" y1="20.196" y2="22.6718" gradientUnits="userSpaceOnUse"><stop stop-color="#FFDA45"/><stop offset="1" stop-color="#FFA425"/></linearGradient><clipPath id="a"><path fill="#fff" d="M0 0h32v32H0z"/></clipPath></defs></svg>